<ttFont>
<head>
    <!-- Most of this table will be recalculated by the compiler -->
    <tableVersion value="1.0"/>
    <fontRevision value="1.013"/>
    <checkSumAdjustment value="0xd4a0a2a0"/>
    <magicNumber value="0x5f0f3cf5"/>
    <flags value="00000000 00000011"/>
    <unitsPerEm value="1000"/>
    <created value="Mon Jul  1 17:13:25 2019"/>
    <modified value="Mon Jul  1 17:13:26 2019"/>
    <xMin value="6"/>
    <yMin value="-250"/>
    <xMax value="600"/>
    <yMax value="800"/>
    <macStyle value="00000000 00000000"/>
    <lowestRecPPEM value="6"/>
    <fontDirectionHint value="2"/>
    <indexToLocFormat value="0"/>
    <glyphDataFormat value="0"/>
  </head>
    <TTGlyph name=".notdef" xMin="50" yMin="-250" xMax="450" yMax="750">
      <contour>
        <pt x="50" y="-250" on="1"/>
        <pt x="450" y="-250" on="1"/>
        <pt x="450" y="750" on="1"/>
        <pt x="50" y="750" on="1"/>
      </contour>
      <contour>
        <pt x="100" y="-200" on="1"/>
        <pt x="100" y="700" on="1"/>
        <pt x="400" y="700" on="1"/>
        <pt x="400" y="-200" on="1"/>
      </contour>
    </TTGlyph>
    <TTGlyph name="A" xMin="24" yMin="0" xMax="578" yMax="700">
      <contour>
        <pt x="149" y="280" on="1"/>
        <pt x="301" y="280" on="1"/>
        <pt x="318" y="280" on="0"/>
        <pt x="351" y="280" on="0"/>
        <pt x="367" y="280" on="1"/>
        <pt x="404" y="289" on="1"/>
        <pt x="435" y="150" on="1"/>
        <pt x="158" y="150" on="1"/>
        <pt x="154" y="150" on="0"/>
        <pt x="147" y="157" on="0"/>
        <pt x="147" y="161" on="1"/>
      </contour>
      <contour>
        <pt x="174" y="0" on="1"/>
        <pt x="139" y="0" on="0"/>
        <pt x="68" y="0" on="0"/>
        <pt x="33" y="0" on="1"/>
        <pt x="30" y="0" on="0"/>
        <pt x="24" y="6" on="0"/>
        <pt x="25" y="13" on="1"/>
        <pt x="29" y="31" on="0"/>
        <pt x="47" y="113" on="0"/>
        <pt x="72" y="223" on="0"/>
        <pt x="101" y="349" on="0"/>
        <pt x="130" y="476" on="0"/>
        <pt x="156" y="591" on="0"/>
        <pt x="176" y="678" on="0"/>
        <pt x="181" y="700" on="1"/>
        <pt x="244" y="700" on="0"/>
        <pt x="356" y="700" on="0"/>
        <pt x="409" y="700" on="1"/>
        <pt x="419" y="700" on="0"/>
        <pt x="421" y="689" on="1"/>
        <pt x="446" y="583" on="0"/>
        <pt x="507" y="312" on="0"/>
        <pt x="542" y="153" on="1"/>
        <pt x="551" y="116" on="0"/>
        <pt x="570" y="40" on="0"/>
        <pt x="578" y="0" on="1"/>
        <pt x="542" y="0" on="0"/>
        <pt x="471" y="0" on="0"/>
        <pt x="435" y="0" on="1"/>
        <pt x="427" y="0" on="0"/>
        <pt x="424" y="11" on="1"/>
        <pt x="396" y="139" on="0"/>
        <pt x="356" y="317" on="0"/>
        <pt x="330" y="443" on="0"/>
        <pt x="314" y="542" on="0"/>
        <pt x="309" y="590" on="1"/>
        <pt x="341" y="565" on="1"/>
        <pt x="261" y="565" on="1"/>
        <pt x="293" y="590" on="1"/>
        <pt x="288" y="542" on="0"/>
        <pt x="271" y="443" on="0"/>
        <pt x="244" y="314" on="0"/>
        <pt x="203" y="132" on="0"/>
      </contour>
    </TTGlyph>
    <TTGlyph name="B" xMin="30" yMin="0" xMax="540" yMax="700">
      <contour>
        <pt x="330" y="0" on="1"/>
        <pt x="300" y="0" on="0"/>
        <pt x="221" y="0" on="0"/>
        <pt x="146" y="0" on="0"/>
        <pt x="92" y="0" on="0"/>
        <pt x="86" y="0" on="1"/>
        <pt x="75" y="0" on="0"/>
        <pt x="75" y="11" on="1"/>
        <pt x="75" y="119" on="0"/>
        <pt x="75" y="314" on="0"/>
        <pt x="75" y="508" on="0"/>
        <pt x="75" y="616" on="1"/>
        <pt x="237" y="616" on="1"/>
        <pt x="230" y="595" on="1"/>
        <pt x="230" y="565" on="0"/>
        <pt x="230" y="509" on="0"/>
        <pt x="230" y="483" on="1"/>
        <pt x="230" y="426" on="0"/>
        <pt x="230" y="314" on="0"/>
        <pt x="230" y="198" on="0"/>
        <pt x="230" y="132" on="1"/>
        <pt x="251" y="132" on="0"/>
        <pt x="293" y="132" on="0"/>
        <pt x="314" y="132" on="1"/>
        <pt x="351" y="132" on="0"/>
        <pt x="385" y="166" on="0"/>
        <pt x="385" y="194" on="1"/>
        <pt x="385" y="233" on="1"/>
        <pt x="385" y="290" on="0"/>
        <pt x="314" y="290" on="1"/>
        <pt x="150" y="290" on="1"/>
        <pt x="150" y="385" on="1"/>
        <pt x="389" y="385" on="1"/>
        <pt x="389" y="345" on="1"/>
        <pt x="430" y="342" on="0"/>
        <pt x="499" y="304" on="0"/>
        <pt x="540" y="242" on="0"/>
        <pt x="540" y="204" on="1"/>
        <pt x="540" y="169" on="1"/>
        <pt x="540" y="78" on="0"/>
        <pt x="425" y="0" on="0"/>
      </contour>
      <contour>
        <pt x="30" y="700" on="1"/>
        <pt x="101" y="700" on="0"/>
        <pt x="242" y="700" on="0"/>
        <pt x="313" y="700" on="1"/>
        <pt x="378" y="700" on="0"/>
        <pt x="466" y="672" on="0"/>
        <pt x="517" y="625" on="0"/>
        <pt x="540" y="566" on="0"/>
        <pt x="540" y="536" on="1"/>
        <pt x="540" y="508" on="1"/>
        <pt x="540" y="436" on="0"/>
        <pt x="422" y="366" on="0"/>
        <pt x="327" y="366" on="1"/>
        <pt x="272" y="366" on="0"/>
        <pt x="197" y="366" on="0"/>
        <pt x="168" y="366" on="1"/>
        <pt x="150" y="352" on="1"/>
        <pt x="150" y="417" on="1"/>
        <pt x="191" y="417" on="0"/>
        <pt x="275" y="417" on="0"/>
        <pt x="316" y="417" on="1"/>
        <pt x="385" y="417" on="0"/>
        <pt x="385" y="479" on="1"/>
        <pt x="385" y="508" on="1"/>
        <pt x="385" y="536" on="0"/>
        <pt x="370" y="551" on="1"/>
        <pt x="353" y="568" on="0"/>
        <pt x="315" y="568" on="1"/>
        <pt x="247" y="568" on="0"/>
        <pt x="109" y="568" on="0"/>
        <pt x="41" y="568" on="1"/>
        <pt x="37" y="568" on="0"/>
        <pt x="30" y="575" on="0"/>
        <pt x="30" y="579" on="1"/>
        <pt x="30" y="612" on="0"/>
        <pt x="30" y="667" on="0"/>
      </contour>
    </TTGlyph>
    <TTGlyph name="C" xMin="50" yMin="-20" xMax="550" yMax="720">
      <contour>
        <pt x="344" y="-20" on="1"/>
        <pt x="196" y="-20" on="0"/>
        <pt x="50" y="124" on="0"/>
        <pt x="50" y="256" on="1"/>
        <pt x="50" y="455" on="1"/>
        <pt x="50" y="534" on="0"/>
        <pt x="116" y="653" on="0"/>
        <pt x="241" y="720" on="0"/>
        <pt x="331" y="720" on="1"/>
        <pt x="408" y="720" on="0"/>
        <pt x="514" y="679" on="0"/>
        <pt x="537" y="656" on="1"/>
        <pt x="543" y="650" on="0"/>
        <pt x="543" y="638" on="1"/>
        <pt x="543" y="601" on="0"/>
        <pt x="543" y="502" on="0"/>
        <pt x="543" y="458" on="1"/>
        <pt x="511" y="458" on="0"/>
        <pt x="446" y="458" on="0"/>
        <pt x="414" y="458" on="1"/>
        <pt x="403" y="458" on="0"/>
        <pt x="403" y="469" on="1"/>
        <pt x="403" y="493" on="0"/>
        <pt x="403" y="548" on="0"/>
        <pt x="403" y="594" on="1"/>
        <pt x="431" y="553" on="1"/>
        <pt x="408" y="567" on="0"/>
        <pt x="359" y="577" on="0"/>
        <pt x="328" y="577" on="1"/>
        <pt x="274" y="577" on="0"/>
        <pt x="210" y="518" on="0"/>
        <pt x="210" y="452" on="1"/>
        <pt x="210" y="268" on="1"/>
        <pt x="210" y="225" on="0"/>
        <pt x="226" y="167" on="0"/>
        <pt x="243" y="150" on="1"/>
        <pt x="260" y="133" on="0"/>
        <pt x="313" y="120" on="0"/>
        <pt x="345" y="120" on="1"/>
        <pt x="399" y="120" on="0"/>
        <pt x="483" y="143" on="0"/>
        <pt x="530" y="172" on="1"/>
        <pt x="550" y="172" on="1"/>
        <pt x="550" y="140" on="0"/>
        <pt x="550" y="83" on="0"/>
        <pt x="550" y="49" on="1"/>
        <pt x="550" y="39" on="0"/>
        <pt x="544" y="33" on="1"/>
        <pt x="531" y="20" on="0"/>
        <pt x="473" y="-4" on="0"/>
        <pt x="392" y="-20" on="0"/>
      </contour>
    </TTGlyph>
    <TTGlyph name="D" xMin="30" yMin="0" xMax="540" yMax="700">
      <contour>
        <pt x="540" y="238" on="1"/>
        <pt x="540" y="127" on="0"/>
        <pt x="414" y="0" on="0"/>
        <pt x="304" y="0" on="1"/>
        <pt x="277" y="0" on="0"/>
        <pt x="208" y="0" on="0"/>
        <pt x="141" y="0" on="0"/>
        <pt x="93" y="0" on="0"/>
        <pt x="86" y="0" on="1"/>
        <pt x="75" y="0" on="0"/>
        <pt x="75" y="11" on="1"/>
        <pt x="75" y="163" on="0"/>
        <pt x="75" y="470" on="0"/>
        <pt x="75" y="622" on="1"/>
        <pt x="240" y="622" on="1"/>
        <pt x="230" y="597" on="1"/>
        <pt x="230" y="571" on="0"/>
        <pt x="230" y="517" on="0"/>
        <pt x="230" y="491" on="1"/>
        <pt x="230" y="401" on="0"/>
        <pt x="230" y="222" on="0"/>
        <pt x="230" y="132" on="1"/>
        <pt x="247" y="132" on="0"/>
        <pt x="279" y="132" on="0"/>
        <pt x="296" y="132" on="1"/>
        <pt x="346" y="132" on="0"/>
        <pt x="385" y="189" on="0"/>
        <pt x="385" y="237" on="1"/>
        <pt x="385" y="463" on="1"/>
        <pt x="385" y="525" on="0"/>
        <pt x="362" y="548" on="1"/>
        <pt x="352" y="559" on="0"/>
        <pt x="319" y="568" on="0"/>
        <pt x="296" y="568" on="1"/>
        <pt x="235" y="568" on="0"/>
        <pt x="103" y="568" on="0"/>
        <pt x="41" y="568" on="1"/>
        <pt x="36" y="568" on="0"/>
        <pt x="30" y="574" on="0"/>
        <pt x="30" y="579" on="1"/>
        <pt x="30" y="609" on="0"/>
        <pt x="30" y="670" on="0"/>
        <pt x="30" y="700" on="1"/>
        <pt x="92" y="700" on="0"/>
        <pt x="228" y="700" on="0"/>
        <pt x="290" y="700" on="1"/>
        <pt x="381" y="700" on="0"/>
        <pt x="491" y="640" on="0"/>
        <pt x="540" y="533" on="0"/>
        <pt x="540" y="463" on="1"/>
      </contour>
    </TTGlyph>
    <TTGlyph name="E" xMin="30" yMin="0" xMax="540" yMax="700">
      <contour>
        <pt x="30" y="700" on="1"/>
        <pt x="529" y="700" on="1"/>
        <pt x="534" y="700" on="0"/>
        <pt x="540" y="694" on="0"/>
        <pt x="540" y="689" on="1"/>
        <pt x="540" y="655" on="0"/>
        <pt x="540" y="600" on="0"/>
        <pt x="540" y="565" on="1"/>
        <pt x="41" y="565" on="1"/>
        <pt x="37" y="565" on="0"/>
        <pt x="30" y="572" on="0"/>
        <pt x="30" y="576" on="1"/>
        <pt x="30" y="611" on="0"/>
        <pt x="30" y="666" on="0"/>
      </contour>
      <contour>
        <pt x="176" y="416" on="1"/>
        <pt x="469" y="416" on="1"/>
        <pt x="474" y="416" on="0"/>
        <pt x="480" y="410" on="0"/>
        <pt x="480" y="405" on="1"/>
        <pt x="480" y="382" on="0"/>
        <pt x="480" y="342" on="0"/>
        <pt x="480" y="306" on="0"/>
        <pt x="480" y="286" on="1"/>
        <pt x="176" y="286" on="1"/>
      </contour>
      <contour>
        <pt x="86" y="0" on="1"/>
        <pt x="75" y="0" on="0"/>
        <pt x="75" y="11" on="1"/>
        <pt x="75" y="31" on="0"/>
        <pt x="75" y="128" on="0"/>
        <pt x="75" y="261" on="0"/>
        <pt x="75" y="410" on="0"/>
        <pt x="75" y="556" on="0"/>
        <pt x="75" y="616" on="1"/>
        <pt x="243" y="616" on="1"/>
        <pt x="235" y="592" on="1"/>
        <pt x="235" y="568" on="0"/>
        <pt x="235" y="519" on="0"/>
        <pt x="235" y="495" on="1"/>
        <pt x="235" y="407" on="0"/>
        <pt x="235" y="224" on="0"/>
        <pt x="235" y="135" on="1"/>
        <pt x="529" y="135" on="1"/>
        <pt x="540" y="135" on="0"/>
        <pt x="540" y="124" on="1"/>
        <pt x="540" y="91" on="0"/>
        <pt x="540" y="33" on="0"/>
        <pt x="540" y="0" on="1"/>
      </contour>
    </TTGlyph>
    <TTGlyph name="F" xMin="60" yMin="0" xMax="540" yMax="700">
      <contour>
        <pt x="275" y="0" on="1"/>
        <pt x="238" y="0" on="0"/>
        <pt x="164" y="0" on="0"/>
        <pt x="126" y="0" on="1"/>
        <pt x="115" y="0" on="0"/>
        <pt x="115" y="11" on="1"/>
        <pt x="115" y="117" on="0"/>
        <pt x="115" y="314" on="0"/>
        <pt x="115" y="510" on="0"/>
        <pt x="115" y="616" on="1"/>
        <pt x="287" y="616" on="1"/>
        <pt x="275" y="586" on="1"/>
        <pt x="275" y="557" on="0"/>
        <pt x="275" y="501" on="0"/>
        <pt x="275" y="475" on="1"/>
        <pt x="275" y="380" on="0"/>
        <pt x="275" y="202" on="0"/>
        <pt x="275" y="98" on="1"/>
        <pt x="275" y="71" on="0"/>
        <pt x="275" y="21" on="0"/>
      </contour>
      <contour>
        <pt x="60" y="700" on="1"/>
        <pt x="529" y="700" on="1"/>
        <pt x="534" y="700" on="0"/>
        <pt x="540" y="694" on="0"/>
        <pt x="540" y="689" on="1"/>
        <pt x="540" y="655" on="0"/>
        <pt x="540" y="600" on="0"/>
        <pt x="540" y="565" on="1"/>
        <pt x="71" y="565" on="1"/>
        <pt x="66" y="565" on="0"/>
        <pt x="60" y="571" on="0"/>
        <pt x="60" y="576" on="1"/>
        <pt x="60" y="611" on="0"/>
        <pt x="60" y="666" on="0"/>
      </contour>
      <contour>
        <pt x="206" y="390" on="1"/>
        <pt x="479" y="390" on="1"/>
        <pt x="484" y="390" on="0"/>
        <pt x="490" y="384" on="0"/>
        <pt x="490" y="379" on="1"/>
        <pt x="490" y="344" on="0"/>
        <pt x="490" y="284" on="0"/>
        <pt x="490" y="255" on="1"/>
        <pt x="206" y="255" on="1"/>
      </contour>
    </TTGlyph>
    <TTGlyph name="G" xMin="50" yMin="-20" xMax="565" yMax="720">
      <contour>
        <pt x="300" y="390" on="1"/>
        <pt x="554" y="390" on="1"/>
        <pt x="565" y="390" on="0"/>
        <pt x="565" y="379" on="1"/>
        <pt x="565" y="260" on="1"/>
        <pt x="311" y="260" on="1"/>
        <pt x="300" y="260" on="0"/>
        <pt x="300" y="271" on="1"/>
        <pt x="300" y="301" on="0"/>
        <pt x="300" y="360" on="0"/>
      </contour>
      <contour>
        <pt x="331" y="720" on="1"/>
        <pt x="402" y="720" on="0"/>
        <pt x="501" y="679" on="0"/>
        <pt x="524" y="656" on="1"/>
        <pt x="530" y="650" on="0"/>
        <pt x="530" y="638" on="1"/>
        <pt x="530" y="609" on="0"/>
        <pt x="530" y="532" on="0"/>
        <pt x="530" y="498" on="1"/>
        <pt x="498" y="498" on="0"/>
        <pt x="431" y="498" on="0"/>
        <pt x="399" y="498" on="1"/>
        <pt x="388" y="498" on="0"/>
        <pt x="388" y="509" on="1"/>
        <pt x="388" y="526" on="0"/>
        <pt x="388" y="563" on="0"/>
        <pt x="388" y="594" on="1"/>
        <pt x="416" y="553" on="1"/>
        <pt x="393" y="567" on="0"/>
        <pt x="359" y="577" on="0"/>
        <pt x="328" y="577" on="1"/>
        <pt x="274" y="577" on="0"/>
        <pt x="210" y="518" on="0"/>
        <pt x="210" y="452" on="1"/>
        <pt x="210" y="238" on="1"/>
        <pt x="210" y="207" on="0"/>
        <pt x="225" y="161" on="0"/>
        <pt x="239" y="147" on="1"/>
        <pt x="253" y="133" on="0"/>
        <pt x="291" y="120" on="0"/>
        <pt x="313" y="120" on="1"/>
        <pt x="351" y="120" on="0"/>
        <pt x="390" y="136" on="0"/>
        <pt x="390" y="142" on="1"/>
        <pt x="390" y="183" on="0"/>
        <pt x="390" y="265" on="0"/>
        <pt x="390" y="305" on="1"/>
        <pt x="535" y="305" on="1"/>
        <pt x="530" y="279" on="1"/>
        <pt x="530" y="228" on="0"/>
        <pt x="530" y="105" on="0"/>
        <pt x="530" y="48" on="1"/>
        <pt x="530" y="43" on="0"/>
        <pt x="527" y="40" on="1"/>
        <pt x="512" y="25" on="0"/>
        <pt x="447" y="-3" on="0"/>
        <pt x="362" y="-20" on="0"/>
        <pt x="317" y="-20" on="1"/>
        <pt x="182" y="-20" on="0"/>
        <pt x="50" y="120" on="0"/>
        <pt x="50" y="237" on="1"/>
        <pt x="50" y="455" on="1"/>
        <pt x="50" y="534" on="0"/>
        <pt x="116" y="653" on="0"/>
        <pt x="241" y="720" on="0"/>
      </contour>
    </TTGlyph>
    <TTGlyph name="H" xMin="60" yMin="0" xMax="540" yMax="700">
      <contour>
        <pt x="60" y="700" on="1"/>
        <pt x="98" y="700" on="0"/>
        <pt x="167" y="700" on="0"/>
        <pt x="204" y="700" on="1"/>
        <pt x="209" y="700" on="0"/>
        <pt x="215" y="694" on="0"/>
        <pt x="215" y="689" on="1"/>
        <pt x="215" y="517" on="0"/>
        <pt x="215" y="172" on="0"/>
        <pt x="215" y="0" on="1"/>
        <pt x="178" y="0" on="0"/>
        <pt x="109" y="0" on="0"/>
        <pt x="71" y="0" on="1"/>
        <pt x="60" y="0" on="0"/>
        <pt x="60" y="11" on="1"/>
        <pt x="60" y="157" on="0"/>
        <pt x="60" y="448" on="0"/>
        <pt x="60" y="593" on="1"/>
        <pt x="60" y="620" on="0"/>
        <pt x="60" y="673" on="0"/>
      </contour>
      <contour>
        <pt x="126" y="416" on="1"/>
        <pt x="322" y="416" on="1"/>
        <pt x="339" y="416" on="0"/>
        <pt x="372" y="416" on="0"/>
        <pt x="388" y="416" on="1"/>
        <pt x="425" y="425" on="1"/>
        <pt x="458" y="281" on="1"/>
        <pt x="137" y="281" on="1"/>
        <pt x="133" y="281" on="0"/>
        <pt x="126" y="288" on="0"/>
        <pt x="126" y="292" on="1"/>
      </contour>
      <contour>
        <pt x="540" y="0" on="1"/>
        <pt x="503" y="0" on="0"/>
        <pt x="434" y="0" on="0"/>
        <pt x="396" y="0" on="1"/>
        <pt x="392" y="0" on="0"/>
        <pt x="385" y="7" on="0"/>
        <pt x="385" y="11" on="1"/>
        <pt x="385" y="183" on="0"/>
        <pt x="385" y="528" on="0"/>
        <pt x="385" y="700" on="1"/>
        <pt x="423" y="700" on="0"/>
        <pt x="492" y="700" on="0"/>
        <pt x="529" y="700" on="1"/>
        <pt x="540" y="700" on="0"/>
        <pt x="540" y="689" on="1"/>
        <pt x="540" y="544" on="0"/>
        <pt x="540" y="255" on="0"/>
        <pt x="540" y="110" on="1"/>
        <pt x="540" y="80" on="0"/>
        <pt x="540" y="24" on="0"/>
      </contour>
    </TTGlyph>
    <TTGlyph name="I" xMin="70" yMin="0" xMax="530" yMax="700">
      <contour>
        <pt x="378" y="85" on="1"/>
        <pt x="218" y="85" on="1"/>
        <pt x="222" y="131" on="1"/>
        <pt x="222" y="147" on="0"/>
        <pt x="222" y="189" on="0"/>
        <pt x="222" y="205" on="1"/>
        <pt x="222" y="306" on="0"/>
        <pt x="222" y="513" on="0"/>
        <pt x="222" y="615" on="1"/>
        <pt x="382" y="615" on="1"/>
        <pt x="378" y="569" on="1"/>
        <pt x="378" y="553" on="0"/>
        <pt x="378" y="512" on="0"/>
        <pt x="378" y="495" on="1"/>
        <pt x="378" y="393" on="0"/>
        <pt x="378" y="186" on="0"/>
      </contour>
      <contour>
        <pt x="530" y="0" on="1"/>
        <pt x="81" y="0" on="1"/>
        <pt x="70" y="0" on="0"/>
        <pt x="70" y="11" on="1"/>
        <pt x="70" y="44" on="0"/>
        <pt x="70" y="102" on="0"/>
        <pt x="70" y="135" on="1"/>
        <pt x="519" y="135" on="1"/>
        <pt x="524" y="135" on="0"/>
        <pt x="530" y="129" on="0"/>
        <pt x="530" y="124" on="1"/>
        <pt x="530" y="91" on="0"/>
        <pt x="530" y="33" on="0"/>
      </contour>
      <contour>
        <pt x="70" y="700" on="1"/>
        <pt x="519" y="700" on="1"/>
        <pt x="530" y="700" on="0"/>
        <pt x="530" y="689" on="1"/>
        <pt x="530" y="656" on="0"/>
        <pt x="530" y="598" on="0"/>
        <pt x="530" y="565" on="1"/>
        <pt x="81" y="565" on="1"/>
        <pt x="77" y="565" on="0"/>
        <pt x="70" y="572" on="0"/>
        <pt x="70" y="576" on="1"/>
        <pt x="70" y="609" on="0"/>
        <pt x="70" y="667" on="0"/>
      </contour>
    </TTGlyph>
    <TTGlyph name="J" xMin="80" yMin="-20" xMax="510" yMax="700">
      <contour>
        <pt x="246" y="121" on="1"/>
        <pt x="273" y="121" on="0"/>
        <pt x="312" y="132" on="0"/>
        <pt x="325" y="145" on="1"/>
        <pt x="350" y="170" on="0"/>
        <pt x="350" y="232" on="1"/>
        <pt x="350" y="312" on="0"/>
        <pt x="350" y="490" on="0"/>
        <pt x="350" y="592" on="1"/>
        <pt x="372" y="544" on="1"/>
        <pt x="331" y="590" on="1"/>
        <pt x="378" y="565" on="1"/>
        <pt x="317" y="565" on="0"/>
        <pt x="194" y="565" on="0"/>
        <pt x="132" y="565" on="1"/>
        <pt x="128" y="565" on="0"/>
        <pt x="121" y="572" on="0"/>
        <pt x="121" y="576" on="1"/>
        <pt x="121" y="609" on="0"/>
        <pt x="121" y="667" on="0"/>
        <pt x="121" y="700" on="1"/>
        <pt x="216" y="700" on="0"/>
        <pt x="405" y="700" on="0"/>
        <pt x="499" y="700" on="1"/>
        <pt x="510" y="700" on="0"/>
        <pt x="510" y="689" on="1"/>
        <pt x="510" y="578" on="0"/>
        <pt x="510" y="356" on="0"/>
        <pt x="510" y="245" on="1"/>
        <pt x="510" y="169" on="0"/>
        <pt x="454" y="49" on="0"/>
        <pt x="341" y="-20" on="0"/>
        <pt x="256" y="-20" on="1"/>
        <pt x="192" y="-20" on="0"/>
        <pt x="96" y="1" on="0"/>
        <pt x="85" y="12" on="1"/>
        <pt x="80" y="17" on="0"/>
        <pt x="80" y="27" on="1"/>
        <pt x="80" y="58" on="0"/>
        <pt x="80" y="117" on="0"/>
        <pt x="80" y="151" on="1"/>
        <pt x="100" y="151" on="1"/>
        <pt x="137" y="135" on="0"/>
        <pt x="208" y="121" on="0"/>
      </contour>
    </TTGlyph>
    <TTGlyph name="K" xMin="60" yMin="0" xMax="586" yMax="700">
      <contour>
        <pt x="335" y="421" on="1"/>
        <pt x="374" y="358" on="0"/>
        <pt x="455" y="228" on="0"/>
        <pt x="494" y="165" on="1"/>
        <pt x="505" y="146" on="0"/>
        <pt x="522" y="135" on="0"/>
        <pt x="541" y="135" on="1"/>
        <pt x="549" y="135" on="0"/>
        <pt x="558" y="135" on="0"/>
        <pt x="565" y="135" on="1"/>
        <pt x="570" y="135" on="1"/>
        <pt x="570" y="101" on="0"/>
        <pt x="570" y="46" on="0"/>
        <pt x="570" y="11" on="1"/>
        <pt x="570" y="0" on="0"/>
        <pt x="559" y="0" on="1"/>
        <pt x="554" y="0" on="0"/>
        <pt x="534" y="0" on="0"/>
        <pt x="517" y="0" on="1"/>
        <pt x="480" y="0" on="0"/>
        <pt x="428" y="11" on="0"/>
        <pt x="384" y="50" on="0"/>
        <pt x="357" y="92" on="1"/>
        <pt x="338" y="124" on="0"/>
        <pt x="316" y="162" on="0"/>
        <pt x="306" y="191" on="0"/>
        <pt x="303" y="224" on="0"/>
        <pt x="303" y="249" on="1"/>
        <pt x="249" y="249" on="1"/>
      </contour>
      <contour>
        <pt x="577" y="700" on="1"/>
        <pt x="586" y="700" on="0"/>
        <pt x="586" y="692" on="1"/>
        <pt x="586" y="690" on="0"/>
        <pt x="584" y="683" on="0"/>
        <pt x="574" y="667" on="0"/>
        <pt x="562" y="649" on="1"/>
        <pt x="541" y="618" on="0"/>
        <pt x="463" y="504" on="0"/>
        <pt x="362" y="358" on="0"/>
        <pt x="250" y="197" on="0"/>
        <pt x="195" y="119" on="1"/>
        <pt x="195" y="343" on="1"/>
        <pt x="235" y="343" on="1"/>
        <pt x="241" y="380" on="0"/>
        <pt x="256" y="435" on="0"/>
        <pt x="277" y="481" on="0"/>
        <pt x="291" y="504" on="1"/>
        <pt x="307" y="532" on="0"/>
        <pt x="349" y="602" on="0"/>
        <pt x="391" y="673" on="0"/>
        <pt x="407" y="700" on="1"/>
      </contour>
      <contour>
        <pt x="60" y="700" on="1"/>
        <pt x="98" y="700" on="0"/>
        <pt x="167" y="700" on="0"/>
        <pt x="204" y="700" on="1"/>
        <pt x="215" y="700" on="0"/>
        <pt x="215" y="689" on="1"/>
        <pt x="215" y="517" on="0"/>
        <pt x="215" y="172" on="0"/>
        <pt x="215" y="0" on="1"/>
        <pt x="178" y="0" on="0"/>
        <pt x="109" y="0" on="0"/>
        <pt x="71" y="0" on="1"/>
        <pt x="60" y="0" on="0"/>
        <pt x="60" y="11" on="1"/>
        <pt x="60" y="157" on="0"/>
        <pt x="60" y="448" on="0"/>
        <pt x="60" y="593" on="1"/>
        <pt x="60" y="620" on="0"/>
        <pt x="60" y="673" on="0"/>
      </contour>
    </TTGlyph>
    <TTGlyph name="L" xMin="70" yMin="0" xMax="540" yMax="700">
      <contour>
        <pt x="81" y="0" on="1"/>
        <pt x="70" y="0" on="0"/>
        <pt x="70" y="11" on="1"/>
        <pt x="70" y="163" on="0"/>
        <pt x="70" y="468" on="0"/>
        <pt x="70" y="620" on="1"/>
        <pt x="70" y="640" on="0"/>
        <pt x="70" y="680" on="0"/>
        <pt x="70" y="700" on="1"/>
        <pt x="108" y="700" on="0"/>
        <pt x="182" y="700" on="0"/>
        <pt x="219" y="700" on="1"/>
        <pt x="230" y="700" on="0"/>
        <pt x="230" y="689" on="1"/>
        <pt x="230" y="553" on="0"/>
        <pt x="230" y="272" on="0"/>
        <pt x="230" y="135" on="1"/>
        <pt x="419" y="135" on="1"/>
        <pt x="459" y="135" on="0"/>
        <pt x="506" y="109" on="0"/>
        <pt x="532" y="50" on="0"/>
        <pt x="540" y="0" on="1"/>
      </contour>
      <contour>
        <pt x="400" y="225" on="1"/>
        <pt x="435" y="225" on="0"/>
        <pt x="495" y="225" on="0"/>
        <pt x="529" y="225" on="1"/>
        <pt x="540" y="225" on="0"/>
        <pt x="540" y="214" on="1"/>
        <pt x="540" y="195" on="0"/>
        <pt x="540" y="139" on="0"/>
        <pt x="540" y="76" on="0"/>
        <pt x="540" y="19" on="0"/>
        <pt x="540" y="0" on="1"/>
        <pt x="487" y="5" on="0"/>
        <pt x="425" y="37" on="0"/>
        <pt x="400" y="88" on="0"/>
        <pt x="400" y="121" on="1"/>
        <pt x="400" y="134" on="0"/>
        <pt x="400" y="174" on="0"/>
        <pt x="400" y="214" on="0"/>
      </contour>
    </TTGlyph>
    <TTGlyph name="M" xMin="50" yMin="0" xMax="550" yMax="700">
      <contour>
        <pt x="200" y="0" on="1"/>
        <pt x="166" y="0" on="0"/>
        <pt x="96" y="0" on="0"/>
        <pt x="61" y="0" on="1"/>
        <pt x="50" y="0" on="0"/>
        <pt x="50" y="11" on="1"/>
        <pt x="50" y="158" on="0"/>
        <pt x="50" y="453" on="0"/>
        <pt x="50" y="600" on="1"/>
        <pt x="50" y="625" on="0"/>
        <pt x="50" y="675" on="0"/>
        <pt x="50" y="700" on="1"/>
        <pt x="85" y="700" on="0"/>
        <pt x="155" y="700" on="0"/>
        <pt x="189" y="700" on="1"/>
        <pt x="199" y="700" on="0"/>
        <pt x="203" y="691" on="1"/>
        <pt x="224" y="639" on="0"/>
        <pt x="252" y="564" on="0"/>
        <pt x="273" y="494" on="0"/>
        <pt x="289" y="408" on="0"/>
        <pt x="297" y="345" on="1"/>
        <pt x="264" y="388" on="1"/>
        <pt x="337" y="388" on="1"/>
        <pt x="304" y="345" on="1"/>
        <pt x="312" y="408" on="0"/>
        <pt x="327" y="494" on="0"/>
        <pt x="348" y="565" on="0"/>
        <pt x="379" y="645" on="0"/>
        <pt x="402" y="700" on="1"/>
        <pt x="437" y="700" on="0"/>
        <pt x="505" y="700" on="0"/>
        <pt x="539" y="700" on="1"/>
        <pt x="550" y="700" on="0"/>
        <pt x="550" y="689" on="1"/>
        <pt x="550" y="542" on="0"/>
        <pt x="550" y="247" on="0"/>
        <pt x="550" y="99" on="1"/>
        <pt x="550" y="74" on="0"/>
        <pt x="550" y="25" on="0"/>
        <pt x="550" y="0" on="1"/>
        <pt x="516" y="0" on="0"/>
        <pt x="446" y="0" on="0"/>
        <pt x="411" y="0" on="1"/>
        <pt x="400" y="0" on="0"/>
        <pt x="400" y="11" on="1"/>
        <pt x="400" y="42" on="0"/>
        <pt x="400" y="102" on="0"/>
        <pt x="400" y="133" on="1"/>
        <pt x="400" y="152" on="0"/>
        <pt x="403" y="201" on="0"/>
        <pt x="413" y="277" on="0"/>
        <pt x="431" y="392" on="0"/>
        <pt x="446" y="476" on="1"/>
        <pt x="465" y="446" on="1"/>
        <pt x="392" y="446" on="1"/>
        <pt x="434" y="474" on="1"/>
        <pt x="402" y="387" on="0"/>
        <pt x="338" y="212" on="0"/>
        <pt x="306" y="125" on="1"/>
        <pt x="295" y="125" on="1"/>
        <pt x="292" y="125" on="0"/>
        <pt x="285" y="128" on="0"/>
        <pt x="283" y="133" on="1"/>
        <pt x="254" y="219" on="0"/>
        <pt x="196" y="389" on="0"/>
        <pt x="167" y="474" on="1"/>
        <pt x="208" y="446" on="1"/>
        <pt x="136" y="446" on="1"/>
        <pt x="154" y="476" on="1"/>
        <pt x="169" y="392" on="0"/>
        <pt x="188" y="278" on="0"/>
        <pt x="197" y="203" on="0"/>
        <pt x="200" y="153" on="0"/>
        <pt x="200" y="133" on="1"/>
        <pt x="200" y="100" on="0"/>
        <pt x="200" y="33" on="0"/>
      </contour>
    </TTGlyph>
    <TTGlyph name="N" xMin="60" yMin="0" xMax="540" yMax="700">
      <contour>
        <pt x="210" y="0" on="1"/>
        <pt x="176" y="0" on="0"/>
        <pt x="106" y="0" on="0"/>
        <pt x="71" y="0" on="1"/>
        <pt x="60" y="0" on="0"/>
        <pt x="60" y="11" on="1"/>
        <pt x="60" y="158" on="0"/>
        <pt x="60" y="453" on="0"/>
        <pt x="60" y="600" on="1"/>
        <pt x="60" y="625" on="0"/>
        <pt x="60" y="675" on="0"/>
        <pt x="60" y="700" on="1"/>
        <pt x="82" y="700" on="0"/>
        <pt x="148" y="700" on="0"/>
        <pt x="214" y="700" on="0"/>
        <pt x="236" y="700" on="1"/>
        <pt x="245" y="700" on="0"/>
        <pt x="251" y="697" on="0"/>
        <pt x="253" y="690" on="1"/>
        <pt x="276" y="626" on="0"/>
        <pt x="324" y="487" on="0"/>
        <pt x="381" y="318" on="0"/>
        <pt x="416" y="208" on="1"/>
        <pt x="383" y="223" on="1"/>
        <pt x="453" y="223" on="1"/>
        <pt x="433" y="213" on="1"/>
        <pt x="418" y="289" on="0"/>
        <pt x="401" y="390" on="0"/>
        <pt x="393" y="461" on="0"/>
        <pt x="390" y="520" on="0"/>
        <pt x="390" y="554" on="1"/>
        <pt x="390" y="591" on="0"/>
        <pt x="390" y="663" on="0"/>
        <pt x="390" y="700" on="1"/>
        <pt x="425" y="700" on="0"/>
        <pt x="495" y="700" on="0"/>
        <pt x="529" y="700" on="1"/>
        <pt x="540" y="700" on="0"/>
        <pt x="540" y="689" on="1"/>
        <pt x="540" y="542" on="0"/>
        <pt x="540" y="247" on="0"/>
        <pt x="540" y="100" on="1"/>
        <pt x="540" y="75" on="0"/>
        <pt x="540" y="25" on="0"/>
        <pt x="540" y="0" on="1"/>
        <pt x="519" y="0" on="0"/>
        <pt x="457" y="0" on="0"/>
        <pt x="394" y="0" on="0"/>
        <pt x="373" y="0" on="1"/>
        <pt x="370" y="0" on="0"/>
        <pt x="364" y="3" on="0"/>
        <pt x="362" y="8" on="1"/>
        <pt x="318" y="127" on="0"/>
        <pt x="230" y="370" on="0"/>
        <pt x="186" y="503" on="1"/>
        <pt x="220" y="490" on="1"/>
        <pt x="147" y="490" on="1"/>
        <pt x="168" y="500" on="1"/>
        <pt x="182" y="421" on="0"/>
        <pt x="198" y="315" on="0"/>
        <pt x="207" y="242" on="0"/>
        <pt x="210" y="189" on="0"/>
        <pt x="210" y="163" on="1"/>
        <pt x="210" y="123" on="0"/>
        <pt x="210" y="41" on="0"/>
      </contour>
    </TTGlyph>
    <TTGlyph name="O" xMin="55" yMin="-20" xMax="545" yMax="720">
      <contour>
        <pt x="300" y="720" on="1"/>
        <pt x="376" y="720" on="0"/>
        <pt x="485" y="664" on="0"/>
        <pt x="545" y="555" on="0"/>
        <pt x="545" y="477" on="1"/>
        <pt x="545" y="223" on="1"/>
        <pt x="545" y="106" on="0"/>
        <pt x="413" y="-20" on="0"/>
        <pt x="300" y="-20" on="1"/>
        <pt x="225" y="-20" on="0"/>
        <pt x="115" y="36" on="0"/>
        <pt x="55" y="145" on="0"/>
        <pt x="55" y="223" on="1"/>
        <pt x="55" y="477" on="1"/>
        <pt x="55" y="594" on="0"/>
        <pt x="187" y="720" on="0"/>
      </contour>
      <contour>
        <pt x="205" y="223" on="1"/>
        <pt x="205" y="195" on="0"/>
        <pt x="217" y="152" on="0"/>
        <pt x="231" y="138" on="1"/>
        <pt x="242" y="127" on="0"/>
        <pt x="277" y="115" on="0"/>
        <pt x="300" y="115" on="1"/>
        <pt x="350" y="115" on="0"/>
        <pt x="395" y="171" on="0"/>
        <pt x="395" y="223" on="1"/>
        <pt x="395" y="477" on="1"/>
        <pt x="395" y="506" on="0"/>
        <pt x="383" y="549" on="0"/>
        <pt x="369" y="562" on="1"/>
        <pt x="357" y="574" on="0"/>
        <pt x="323" y="585" on="0"/>
        <pt x="300" y="585" on="1"/>
        <pt x="250" y="585" on="0"/>
        <pt x="205" y="530" on="0"/>
        <pt x="205" y="477" on="1"/>
      </contour>
    </TTGlyph>
    <TTGlyph name="P" xMin="30" yMin="0" xMax="545" yMax="700">
      <contour>
        <pt x="235" y="0" on="1"/>
        <pt x="198" y="0" on="0"/>
        <pt x="124" y="0" on="0"/>
        <pt x="86" y="0" on="1"/>
        <pt x="75" y="0" on="0"/>
        <pt x="75" y="11" on="1"/>
        <pt x="75" y="117" on="0"/>
        <pt x="75" y="314" on="0"/>
        <pt x="75" y="510" on="0"/>
        <pt x="75" y="616" on="1"/>
        <pt x="247" y="616" on="1"/>
        <pt x="235" y="586" on="1"/>
        <pt x="235" y="557" on="0"/>
        <pt x="235" y="509" on="0"/>
        <pt x="235" y="483" on="1"/>
        <pt x="235" y="388" on="0"/>
        <pt x="235" y="202" on="0"/>
        <pt x="235" y="98" on="1"/>
        <pt x="235" y="71" on="0"/>
        <pt x="235" y="21" on="0"/>
      </contour>
      <contour>
        <pt x="30" y="700" on="1"/>
        <pt x="98" y="700" on="0"/>
        <pt x="251" y="700" on="0"/>
        <pt x="311" y="700" on="1"/>
        <pt x="397" y="700" on="0"/>
        <pt x="499" y="646" on="0"/>
        <pt x="545" y="549" on="0"/>
        <pt x="545" y="483" on="1"/>
        <pt x="545" y="423" on="1"/>
        <pt x="545" y="321" on="0"/>
        <pt x="439" y="205" on="0"/>
        <pt x="311" y="205" on="1"/>
        <pt x="288" y="205" on="0"/>
        <pt x="240" y="205" on="0"/>
        <pt x="216" y="205" on="1"/>
        <pt x="205" y="201" on="1"/>
        <pt x="205" y="340" on="1"/>
        <pt x="235" y="340" on="0"/>
        <pt x="292" y="340" on="0"/>
        <pt x="311" y="340" on="1"/>
        <pt x="349" y="340" on="0"/>
        <pt x="385" y="373" on="0"/>
        <pt x="385" y="416" on="1"/>
        <pt x="385" y="490" on="1"/>
        <pt x="385" y="533" on="0"/>
        <pt x="368" y="550" on="1"/>
        <pt x="352" y="566" on="0"/>
        <pt x="312" y="566" on="1"/>
        <pt x="246" y="566" on="0"/>
        <pt x="106" y="566" on="0"/>
        <pt x="41" y="566" on="1"/>
        <pt x="36" y="566" on="0"/>
        <pt x="30" y="572" on="0"/>
        <pt x="30" y="577" on="1"/>
        <pt x="30" y="610" on="0"/>
        <pt x="30" y="667" on="0"/>
      </contour>
    </TTGlyph>
    <TTGlyph name="Q" xMin="55" yMin="-145" xMax="570" yMax="720">
      <contour>
        <pt x="447" y="116" on="1"/>
        <pt x="464" y="87" on="0"/>
        <pt x="490" y="38" on="0"/>
        <pt x="507" y="9" on="1"/>
        <pt x="515" y="-4" on="0"/>
        <pt x="527" y="-10" on="0"/>
        <pt x="537" y="-10" on="1"/>
        <pt x="541" y="-10" on="0"/>
        <pt x="546" y="-10" on="0"/>
        <pt x="550" y="-10" on="1"/>
        <pt x="570" y="-10" on="1"/>
        <pt x="570" y="-44" on="0"/>
        <pt x="570" y="-99" on="0"/>
        <pt x="570" y="-134" on="1"/>
        <pt x="570" y="-145" on="0"/>
        <pt x="559" y="-145" on="1"/>
        <pt x="552" y="-145" on="0"/>
        <pt x="527" y="-145" on="0"/>
        <pt x="517" y="-145" on="1"/>
        <pt x="463" y="-145" on="0"/>
        <pt x="408" y="-116" on="0"/>
        <pt x="386" y="-73" on="1"/>
        <pt x="367" y="-38" on="0"/>
        <pt x="337" y="24" on="0"/>
        <pt x="318" y="59" on="1"/>
      </contour>
      <contour>
        <pt x="300" y="720" on="1"/>
        <pt x="376" y="720" on="0"/>
        <pt x="485" y="664" on="0"/>
        <pt x="545" y="555" on="0"/>
        <pt x="545" y="477" on="1"/>
        <pt x="545" y="223" on="1"/>
        <pt x="545" y="106" on="0"/>
        <pt x="413" y="-20" on="0"/>
        <pt x="300" y="-20" on="1"/>
        <pt x="225" y="-20" on="0"/>
        <pt x="115" y="36" on="0"/>
        <pt x="55" y="145" on="0"/>
        <pt x="55" y="223" on="1"/>
        <pt x="55" y="477" on="1"/>
        <pt x="55" y="594" on="0"/>
        <pt x="187" y="720" on="0"/>
      </contour>
      <contour>
        <pt x="205" y="223" on="1"/>
        <pt x="205" y="195" on="0"/>
        <pt x="217" y="152" on="0"/>
        <pt x="231" y="138" on="1"/>
        <pt x="242" y="127" on="0"/>
        <pt x="277" y="115" on="0"/>
        <pt x="300" y="115" on="1"/>
        <pt x="350" y="115" on="0"/>
        <pt x="395" y="171" on="0"/>
        <pt x="395" y="223" on="1"/>
        <pt x="395" y="477" on="1"/>
        <pt x="395" y="506" on="0"/>
        <pt x="383" y="549" on="0"/>
        <pt x="369" y="562" on="1"/>
        <pt x="357" y="574" on="0"/>
        <pt x="323" y="585" on="0"/>
        <pt x="300" y="585" on="1"/>
        <pt x="250" y="585" on="0"/>
        <pt x="205" y="530" on="0"/>
        <pt x="205" y="477" on="1"/>
      </contour>
    </TTGlyph>
    <TTGlyph name="R" xMin="30" yMin="0" xMax="560" yMax="700">
      <contour>
        <pt x="406" y="318" on="1"/>
        <pt x="431" y="274" on="0"/>
        <pt x="472" y="202" on="0"/>
        <pt x="496" y="158" on="1"/>
        <pt x="504" y="145" on="0"/>
        <pt x="517" y="135" on="0"/>
        <pt x="527" y="135" on="1"/>
        <pt x="531" y="135" on="0"/>
        <pt x="536" y="135" on="0"/>
        <pt x="540" y="135" on="1"/>
        <pt x="560" y="135" on="1"/>
        <pt x="560" y="101" on="0"/>
        <pt x="560" y="45" on="0"/>
        <pt x="560" y="11" on="1"/>
        <pt x="560" y="0" on="0"/>
        <pt x="549" y="0" on="1"/>
        <pt x="542" y="0" on="0"/>
        <pt x="517" y="0" on="0"/>
        <pt x="507" y="0" on="1"/>
        <pt x="453" y="0" on="0"/>
        <pt x="396" y="24" on="0"/>
        <pt x="375" y="65" on="1"/>
        <pt x="350" y="114" on="0"/>
        <pt x="301" y="212" on="0"/>
        <pt x="275" y="261" on="1"/>
      </contour>
      <contour>
        <pt x="30" y="700" on="1"/>
        <pt x="98" y="700" on="0"/>
        <pt x="236" y="700" on="0"/>
        <pt x="304" y="700" on="1"/>
        <pt x="388" y="700" on="0"/>
        <pt x="490" y="648" on="0"/>
        <pt x="535" y="554" on="0"/>
        <pt x="535" y="490" on="1"/>
        <pt x="535" y="431" on="1"/>
        <pt x="535" y="338" on="0"/>
        <pt x="425" y="233" on="0"/>
        <pt x="329" y="233" on="1"/>
        <pt x="301" y="233" on="0"/>
        <pt x="244" y="233" on="0"/>
        <pt x="216" y="233" on="1"/>
        <pt x="205" y="228" on="1"/>
        <pt x="205" y="363" on="1"/>
        <pt x="231" y="363" on="0"/>
        <pt x="284" y="363" on="0"/>
        <pt x="310" y="363" on="1"/>
        <pt x="380" y="363" on="0"/>
        <pt x="380" y="429" on="1"/>
        <pt x="380" y="499" on="1"/>
        <pt x="380" y="516" on="0"/>
        <pt x="372" y="540" on="0"/>
        <pt x="364" y="548" on="1"/>
        <pt x="347" y="565" on="0"/>
        <pt x="310" y="565" on="1"/>
        <pt x="243" y="565" on="0"/>
        <pt x="108" y="565" on="0"/>
        <pt x="41" y="565" on="1"/>
        <pt x="30" y="565" on="0"/>
        <pt x="30" y="576" on="1"/>
        <pt x="30" y="609" on="0"/>
        <pt x="30" y="667" on="0"/>
      </contour>
      <contour>
        <pt x="230" y="0" on="1"/>
        <pt x="193" y="0" on="0"/>
        <pt x="124" y="0" on="0"/>
        <pt x="86" y="0" on="1"/>
        <pt x="75" y="0" on="0"/>
        <pt x="75" y="11" on="1"/>
        <pt x="75" y="117" on="0"/>
        <pt x="75" y="314" on="0"/>
        <pt x="75" y="510" on="0"/>
        <pt x="75" y="616" on="1"/>
        <pt x="242" y="616" on="1"/>
        <pt x="230" y="586" on="1"/>
        <pt x="230" y="557" on="0"/>
        <pt x="230" y="501" on="0"/>
        <pt x="230" y="475" on="1"/>
        <pt x="230" y="380" on="0"/>
        <pt x="230" y="202" on="0"/>
        <pt x="230" y="98" on="1"/>
        <pt x="230" y="71" on="0"/>
        <pt x="230" y="21" on="0"/>
      </contour>
    </TTGlyph>
    <TTGlyph name="S" xMin="60" yMin="-20" xMax="546" yMax="720">
      <contour>
        <pt x="322" y="720" on="1"/>
        <pt x="393" y="720" on="0"/>
        <pt x="492" y="686" on="0"/>
        <pt x="515" y="663" on="1"/>
        <pt x="521" y="657" on="0"/>
        <pt x="521" y="645" on="1"/>
        <pt x="521" y="616" on="0"/>
        <pt x="521" y="539" on="0"/>
        <pt x="521" y="505" on="1"/>
        <pt x="489" y="505" on="0"/>
        <pt x="422" y="505" on="0"/>
        <pt x="390" y="505" on="1"/>
        <pt x="379" y="505" on="0"/>
        <pt x="379" y="516" on="1"/>
        <pt x="379" y="533" on="0"/>
        <pt x="379" y="573" on="0"/>
        <pt x="379" y="604" on="1"/>
        <pt x="407" y="571" on="1"/>
        <pt x="384" y="579" on="0"/>
        <pt x="346" y="585" on="0"/>
        <pt x="322" y="585" on="1"/>
        <pt x="268" y="585" on="0"/>
        <pt x="214" y="555" on="0"/>
        <pt x="214" y="519" on="1"/>
        <pt x="214" y="498" on="1"/>
        <pt x="214" y="471" on="0"/>
        <pt x="242" y="443" on="0"/>
        <pt x="291" y="428" on="1"/>
        <pt x="386" y="399" on="1"/>
        <pt x="449" y="380" on="0"/>
        <pt x="518" y="331" on="0"/>
        <pt x="546" y="265" on="0"/>
        <pt x="546" y="218" on="1"/>
        <pt x="546" y="170" on="1"/>
        <pt x="546" y="81" on="0"/>
        <pt x="405" y="-20" on="0"/>
        <pt x="279" y="-20" on="1"/>
        <pt x="231" y="-20" on="0"/>
        <pt x="146" y="-8" on="0"/>
        <pt x="83" y="16" on="0"/>
        <pt x="66" y="32" on="1"/>
        <pt x="63" y="35" on="0"/>
        <pt x="60" y="42" on="0"/>
        <pt x="60" y="52" on="1"/>
        <pt x="60" y="80" on="0"/>
        <pt x="60" y="139" on="0"/>
        <pt x="60" y="174" on="1"/>
        <pt x="80" y="174" on="1"/>
        <pt x="125" y="145" on="0"/>
        <pt x="223" y="116" on="0"/>
        <pt x="290" y="116" on="1"/>
        <pt x="349" y="116" on="0"/>
        <pt x="399" y="151" on="0"/>
        <pt x="399" y="172" on="1"/>
        <pt x="399" y="209" on="1"/>
        <pt x="399" y="223" on="0"/>
        <pt x="390" y="243" on="0"/>
        <pt x="359" y="262" on="0"/>
        <pt x="324" y="272" on="1"/>
        <pt x="230" y="301" on="1"/>
        <pt x="163" y="322" on="0"/>
        <pt x="93" y="377" on="0"/>
        <pt x="67" y="443" on="0"/>
        <pt x="67" y="479" on="1"/>
        <pt x="67" y="530" on="1"/>
        <pt x="67" y="585" on="0"/>
        <pt x="129" y="670" on="0"/>
        <pt x="244" y="720" on="0"/>
      </contour>
    </TTGlyph>
    <TTGlyph name="T" xMin="50" yMin="0" xMax="550" yMax="700">
      <contour>
        <pt x="50" y="700" on="1"/>
        <pt x="539" y="700" on="1"/>
        <pt x="544" y="700" on="0"/>
        <pt x="550" y="694" on="0"/>
        <pt x="550" y="689" on="1"/>
        <pt x="550" y="655" on="0"/>
        <pt x="550" y="600" on="0"/>
        <pt x="550" y="565" on="1"/>
        <pt x="61" y="565" on="1"/>
        <pt x="56" y="565" on="0"/>
        <pt x="50" y="571" on="0"/>
        <pt x="50" y="576" on="1"/>
        <pt x="50" y="611" on="0"/>
        <pt x="50" y="666" on="0"/>
      </contour>
      <contour>
        <pt x="380" y="0" on="1"/>
        <pt x="343" y="0" on="0"/>
        <pt x="269" y="0" on="0"/>
        <pt x="231" y="0" on="1"/>
        <pt x="220" y="0" on="0"/>
        <pt x="220" y="11" on="1"/>
        <pt x="220" y="170" on="0"/>
        <pt x="220" y="464" on="0"/>
        <pt x="220" y="623" on="1"/>
        <pt x="392" y="623" on="1"/>
        <pt x="380" y="593" on="1"/>
        <pt x="380" y="564" on="0"/>
        <pt x="380" y="501" on="0"/>
        <pt x="380" y="475" on="1"/>
        <pt x="380" y="380" on="0"/>
        <pt x="380" y="202" on="0"/>
        <pt x="380" y="98" on="1"/>
        <pt x="380" y="71" on="0"/>
        <pt x="380" y="21" on="0"/>
      </contour>
    </TTGlyph>
    <TTGlyph name="U" xMin="60" yMin="-10" xMax="540" yMax="700">
      <contour>
        <pt x="540" y="0" on="1"/>
        <pt x="503" y="0" on="0"/>
        <pt x="429" y="0" on="0"/>
        <pt x="391" y="0" on="1"/>
        <pt x="386" y="0" on="0"/>
        <pt x="380" y="6" on="0"/>
        <pt x="380" y="11" on="1"/>
        <pt x="380" y="183" on="0"/>
        <pt x="380" y="528" on="0"/>
        <pt x="380" y="700" on="1"/>
        <pt x="418" y="700" on="0"/>
        <pt x="492" y="700" on="0"/>
        <pt x="529" y="700" on="1"/>
        <pt x="540" y="700" on="0"/>
        <pt x="540" y="689" on="1"/>
        <pt x="540" y="544" on="0"/>
        <pt x="540" y="255" on="0"/>
        <pt x="540" y="110" on="1"/>
        <pt x="540" y="80" on="0"/>
        <pt x="540" y="24" on="0"/>
      </contour>
      <contour>
        <pt x="205" y="-10" on="1"/>
        <pt x="157" y="-10" on="0"/>
        <pt x="92" y="31" on="0"/>
        <pt x="60" y="107" on="0"/>
        <pt x="60" y="158" on="1"/>
        <pt x="60" y="268" on="0"/>
        <pt x="60" y="490" on="0"/>
        <pt x="60" y="600" on="1"/>
        <pt x="60" y="625" on="0"/>
        <pt x="60" y="675" on="0"/>
        <pt x="60" y="700" on="1"/>
        <pt x="98" y="700" on="0"/>
        <pt x="172" y="700" on="0"/>
        <pt x="209" y="700" on="1"/>
        <pt x="220" y="700" on="0"/>
        <pt x="220" y="689" on="1"/>
        <pt x="220" y="565" on="0"/>
        <pt x="220" y="297" on="0"/>
        <pt x="220" y="172" on="1"/>
        <pt x="220" y="130" on="0"/>
        <pt x="261" y="130" on="1"/>
        <pt x="284" y="130" on="0"/>
        <pt x="330" y="148" on="0"/>
        <pt x="378" y="185" on="0"/>
        <pt x="402" y="213" on="1"/>
        <pt x="402" y="86" on="1"/>
        <pt x="360" y="86" on="1"/>
        <pt x="332" y="37" on="0"/>
        <pt x="260" y="-10" on="0"/>
      </contour>
    </TTGlyph>
    <TTGlyph name="V" xMin="24" yMin="0" xMax="579" yMax="700">
      <contour>
        <pt x="167" y="700" on="1"/>
        <pt x="175" y="700" on="0"/>
        <pt x="178" y="689" on="1"/>
        <pt x="201" y="587" on="0"/>
        <pt x="235" y="433" on="0"/>
        <pt x="260" y="317" on="0"/>
        <pt x="278" y="226" on="0"/>
        <pt x="289" y="148" on="0"/>
        <pt x="293" y="110" on="1"/>
        <pt x="261" y="135" on="1"/>
        <pt x="341" y="135" on="1"/>
        <pt x="309" y="110" on="1"/>
        <pt x="314" y="158" on="0"/>
        <pt x="331" y="257" on="0"/>
        <pt x="358" y="386" on="0"/>
        <pt x="399" y="568" on="0"/>
        <pt x="428" y="700" on="1"/>
        <pt x="463" y="700" on="0"/>
        <pt x="534" y="700" on="0"/>
        <pt x="569" y="700" on="1"/>
        <pt x="572" y="700" on="0"/>
        <pt x="579" y="695" on="0"/>
        <pt x="577" y="687" on="1"/>
        <pt x="573" y="666" on="0"/>
        <pt x="549" y="563" on="0"/>
        <pt x="518" y="426" on="0"/>
        <pt x="484" y="275" on="0"/>
        <pt x="451" y="135" on="0"/>
        <pt x="427" y="26" on="0"/>
        <pt x="421" y="0" on="1"/>
        <pt x="358" y="0" on="0"/>
        <pt x="246" y="0" on="0"/>
        <pt x="193" y="0" on="1"/>
        <pt x="183" y="0" on="0"/>
        <pt x="181" y="11" on="1"/>
        <pt x="173" y="46" on="0"/>
        <pt x="155" y="124" on="0"/>
        <pt x="136" y="207" on="0"/>
        <pt x="116" y="297" on="0"/>
        <pt x="94" y="393" on="0"/>
        <pt x="72" y="494" on="0"/>
        <pt x="60" y="547" on="1"/>
        <pt x="51" y="584" on="0"/>
        <pt x="32" y="660" on="0"/>
        <pt x="24" y="700" on="1"/>
        <pt x="60" y="700" on="0"/>
        <pt x="131" y="700" on="0"/>
      </contour>
    </TTGlyph>
    <TTGlyph name="W" xMin="16" yMin="0" xMax="585" yMax="700">
      <contour>
        <pt x="16" y="700" on="1"/>
        <pt x="48" y="700" on="0"/>
        <pt x="110" y="700" on="0"/>
        <pt x="142" y="700" on="1"/>
        <pt x="154" y="700" on="0"/>
        <pt x="156" y="686" on="1"/>
        <pt x="157" y="677" on="0"/>
        <pt x="162" y="586" on="0"/>
        <pt x="169" y="437" on="0"/>
        <pt x="177" y="241" on="0"/>
        <pt x="181" y="127" on="1"/>
        <pt x="154" y="135" on="1"/>
        <pt x="221" y="135" on="1"/>
        <pt x="201" y="127" on="1"/>
        <pt x="209" y="249" on="0"/>
        <pt x="233" y="472" on="0"/>
        <pt x="244" y="571" on="1"/>
        <pt x="349" y="571" on="1"/>
        <pt x="359" y="571" on="0"/>
        <pt x="361" y="560" on="1"/>
        <pt x="362" y="553" on="0"/>
        <pt x="368" y="490" on="0"/>
        <pt x="378" y="397" on="0"/>
        <pt x="389" y="287" on="0"/>
        <pt x="400" y="176" on="0"/>
        <pt x="405" y="127" on="1"/>
        <pt x="384" y="135" on="1"/>
        <pt x="451" y="135" on="1"/>
        <pt x="425" y="127" on="1"/>
        <pt x="428" y="222" on="0"/>
        <pt x="432" y="361" on="0"/>
        <pt x="436" y="467" on="0"/>
        <pt x="440" y="557" on="0"/>
        <pt x="444" y="647" on="0"/>
        <pt x="446" y="700" on="1"/>
        <pt x="478" y="700" on="0"/>
        <pt x="540" y="700" on="0"/>
        <pt x="572" y="700" on="1"/>
        <pt x="585" y="700" on="0"/>
        <pt x="583" y="685" on="1"/>
        <pt x="582" y="680" on="0"/>
        <pt x="574" y="607" on="0"/>
        <pt x="561" y="491" on="0"/>
        <pt x="546" y="349" on="0"/>
        <pt x="530" y="199" on="0"/>
        <pt x="514" y="57" on="0"/>
        <pt x="508" y="0" on="1"/>
        <pt x="469" y="0" on="0"/>
        <pt x="393" y="0" on="0"/>
        <pt x="356" y="0" on="1"/>
        <pt x="347" y="0" on="0"/>
        <pt x="345" y="11" on="1"/>
        <pt x="344" y="16" on="0"/>
        <pt x="336" y="85" on="0"/>
        <pt x="325" y="197" on="0"/>
        <pt x="314" y="338" on="0"/>
        <pt x="310" y="416" on="1"/>
        <pt x="336" y="391" on="1"/>
        <pt x="267" y="391" on="1"/>
        <pt x="293" y="416" on="1"/>
        <pt x="289" y="338" on="0"/>
        <pt x="278" y="196" on="0"/>
        <pt x="267" y="82" on="0"/>
        <pt x="259" y="9" on="0"/>
        <pt x="258" y="0" on="1"/>
        <pt x="218" y="0" on="0"/>
        <pt x="139" y="0" on="0"/>
        <pt x="101" y="0" on="1"/>
        <pt x="92" y="0" on="0"/>
        <pt x="90" y="10" on="1"/>
        <pt x="89" y="14" on="0"/>
        <pt x="81" y="91" on="0"/>
        <pt x="67" y="216" on="0"/>
        <pt x="51" y="369" on="0"/>
        <pt x="34" y="528" on="0"/>
        <pt x="26" y="600" on="1"/>
        <pt x="24" y="627" on="0"/>
        <pt x="18" y="678" on="0"/>
      </contour>
    </TTGlyph>
    <TTGlyph name="X" xMin="21" yMin="0" xMax="583" yMax="700">
      <contour>
        <pt x="423" y="0" on="1"/>
        <pt x="413" y="0" on="0"/>
        <pt x="408" y="9" on="1"/>
        <pt x="378" y="71" on="0"/>
        <pt x="320" y="194" on="0"/>
        <pt x="290" y="256" on="1"/>
        <pt x="222" y="319" on="1"/>
        <pt x="172" y="414" on="0"/>
        <pt x="71" y="605" on="0"/>
        <pt x="21" y="700" on="1"/>
        <pt x="62" y="700" on="0"/>
        <pt x="138" y="700" on="0"/>
        <pt x="178" y="700" on="1"/>
        <pt x="186" y="700" on="0"/>
        <pt x="193" y="694" on="0"/>
        <pt x="196" y="689" on="1"/>
        <pt x="225" y="629" on="0"/>
        <pt x="286" y="506" on="0"/>
        <pt x="317" y="442" on="1"/>
        <pt x="380" y="385" on="1"/>
        <pt x="431" y="289" on="0"/>
        <pt x="532" y="96" on="0"/>
        <pt x="583" y="0" on="1"/>
        <pt x="544" y="0" on="0"/>
        <pt x="461" y="0" on="0"/>
      </contour>
      <contour>
        <pt x="565" y="700" on="1"/>
        <pt x="573" y="700" on="0"/>
        <pt x="579" y="689" on="0"/>
        <pt x="574" y="681" on="1"/>
        <pt x="569" y="672" on="0"/>
        <pt x="537" y="616" on="0"/>
        <pt x="492" y="535" on="0"/>
        <pt x="441" y="444" on="0"/>
        <pt x="391" y="355" on="0"/>
        <pt x="370" y="318" on="1"/>
        <pt x="275" y="447" on="1"/>
        <pt x="335" y="447" on="1"/>
        <pt x="340" y="485" on="0"/>
        <pt x="349" y="540" on="0"/>
        <pt x="365" y="592" on="0"/>
        <pt x="393" y="654" on="0"/>
        <pt x="416" y="700" on="1"/>
        <pt x="454" y="700" on="0"/>
        <pt x="528" y="700" on="0"/>
      </contour>
      <contour>
        <pt x="34" y="0" on="1"/>
        <pt x="28" y="0" on="0"/>
        <pt x="22" y="12" on="0"/>
        <pt x="26" y="19" on="1"/>
        <pt x="31" y="28" on="0"/>
        <pt x="63" y="84" on="0"/>
        <pt x="109" y="165" on="0"/>
        <pt x="160" y="256" on="0"/>
        <pt x="210" y="345" on="0"/>
        <pt x="231" y="382" on="1"/>
        <pt x="332" y="251" on="1"/>
        <pt x="272" y="251" on="1"/>
        <pt x="265" y="214" on="0"/>
        <pt x="253" y="159" on="0"/>
        <pt x="237" y="108" on="0"/>
        <pt x="208" y="46" on="0"/>
        <pt x="185" y="0" on="1"/>
        <pt x="148" y="0" on="0"/>
        <pt x="72" y="0" on="0"/>
      </contour>
    </TTGlyph>
    <TTGlyph name="Y" xMin="15" yMin="0" xMax="581" yMax="700">
      <contour>
        <pt x="380" y="0" on="1"/>
        <pt x="343" y="0" on="0"/>
        <pt x="269" y="0" on="0"/>
        <pt x="231" y="0" on="1"/>
        <pt x="220" y="0" on="0"/>
        <pt x="220" y="11" on="1"/>
        <pt x="220" y="81" on="0"/>
        <pt x="220" y="230" on="0"/>
        <pt x="220" y="300" on="1"/>
        <pt x="380" y="300" on="1"/>
        <pt x="380" y="253" on="0"/>
        <pt x="380" y="147" on="0"/>
        <pt x="380" y="100" on="1"/>
        <pt x="380" y="75" on="0"/>
        <pt x="380" y="25" on="0"/>
      </contour>
      <contour>
        <pt x="15" y="700" on="1"/>
        <pt x="55" y="700" on="0"/>
        <pt x="132" y="700" on="0"/>
        <pt x="172" y="700" on="1"/>
        <pt x="184" y="700" on="0"/>
        <pt x="187" y="689" on="1"/>
        <pt x="210" y="631" on="0"/>
        <pt x="242" y="545" on="0"/>
        <pt x="267" y="470" on="0"/>
        <pt x="289" y="384" on="0"/>
        <pt x="302" y="325" on="1"/>
        <pt x="263" y="358" on="1"/>
        <pt x="346" y="358" on="1"/>
        <pt x="308" y="325" on="1"/>
        <pt x="320" y="384" on="0"/>
        <pt x="340" y="471" on="0"/>
        <pt x="363" y="548" on="0"/>
        <pt x="394" y="638" on="0"/>
        <pt x="417" y="700" on="1"/>
        <pt x="456" y="700" on="0"/>
        <pt x="530" y="700" on="0"/>
        <pt x="567" y="700" on="1"/>
        <pt x="574" y="700" on="0"/>
        <pt x="581" y="691" on="0"/>
        <pt x="577" y="684" on="1"/>
        <pt x="525" y="570" on="0"/>
        <pt x="419" y="340" on="0"/>
        <pt x="365" y="225" on="1"/>
        <pt x="302" y="225" on="0"/>
        <pt x="247" y="226" on="0"/>
        <pt x="232" y="232" on="0"/>
        <pt x="228" y="239" on="1"/>
        <pt x="225" y="245" on="0"/>
        <pt x="193" y="314" on="0"/>
        <pt x="145" y="418" on="0"/>
        <pt x="90" y="538" on="0"/>
        <pt x="36" y="654" on="0"/>
      </contour>
    </TTGlyph>
    <TTGlyph name="Z" xMin="50" yMin="0" xMax="555" yMax="700">
      <contour>
        <pt x="555" y="0" on="1"/>
        <pt x="61" y="0" on="1"/>
        <pt x="50" y="0" on="0"/>
        <pt x="50" y="11" on="1"/>
        <pt x="50" y="161" on="1"/>
        <pt x="111" y="233" on="0"/>
        <pt x="231" y="378" on="0"/>
        <pt x="292" y="451" on="1"/>
        <pt x="312" y="475" on="0"/>
        <pt x="352" y="509" on="0"/>
        <pt x="397" y="535" on="0"/>
        <pt x="424" y="548" on="1"/>
        <pt x="399" y="512" on="1"/>
        <pt x="399" y="584" on="1"/>
        <pt x="414" y="558" on="1"/>
        <pt x="361" y="558" on="0"/>
        <pt x="291" y="558" on="0"/>
        <pt x="241" y="558" on="0"/>
        <pt x="217" y="558" on="1"/>
        <pt x="181" y="558" on="1"/>
        <pt x="116" y="558" on="0"/>
        <pt x="50" y="633" on="0"/>
        <pt x="50" y="700" on="1"/>
        <pt x="539" y="700" on="1"/>
        <pt x="550" y="700" on="0"/>
        <pt x="550" y="689" on="1"/>
        <pt x="550" y="539" on="1"/>
        <pt x="489" y="466" on="0"/>
        <pt x="368" y="322" on="0"/>
        <pt x="308" y="249" on="1"/>
        <pt x="288" y="225" on="0"/>
        <pt x="247" y="191" on="0"/>
        <pt x="203" y="165" on="0"/>
        <pt x="176" y="152" on="1"/>
        <pt x="201" y="188" on="1"/>
        <pt x="201" y="116" on="1"/>
        <pt x="185" y="142" on="1"/>
        <pt x="265" y="142" on="0"/>
        <pt x="400" y="142" on="0"/>
        <pt x="450" y="142" on="1"/>
        <pt x="544" y="142" on="1"/>
        <pt x="555" y="142" on="0"/>
        <pt x="555" y="131" on="1"/>
        <pt x="555" y="98" on="0"/>
        <pt x="555" y="33" on="0"/>
      </contour>
      <contour>
        <pt x="190" y="510" on="1"/>
        <pt x="156" y="510" on="0"/>
        <pt x="96" y="510" on="0"/>
        <pt x="61" y="510" on="1"/>
        <pt x="50" y="510" on="0"/>
        <pt x="50" y="521" on="1"/>
        <pt x="50" y="543" on="0"/>
        <pt x="50" y="610" on="0"/>
        <pt x="50" y="678" on="0"/>
        <pt x="50" y="700" on="1"/>
        <pt x="106" y="700" on="0"/>
        <pt x="167" y="676" on="0"/>
        <pt x="190" y="623" on="0"/>
        <pt x="190" y="579" on="1"/>
        <pt x="190" y="565" on="0"/>
        <pt x="190" y="524" on="0"/>
      </contour>
    </TTGlyph>
    <TTGlyph name="a" xMin="50" yMin="-10" xMax="570" yMax="550">
      <contour>
        <pt x="514" y="337" on="1"/>
        <pt x="514" y="307" on="0"/>
        <pt x="514" y="246" on="0"/>
        <pt x="514" y="185" on="0"/>
        <pt x="514" y="155" on="1"/>
        <pt x="514" y="142" on="0"/>
        <pt x="520" y="136" on="1"/>
        <pt x="526" y="130" on="0"/>
        <pt x="539" y="130" on="1"/>
        <pt x="542" y="130" on="0"/>
        <pt x="547" y="130" on="0"/>
        <pt x="550" y="130" on="1"/>
        <pt x="570" y="130" on="1"/>
        <pt x="570" y="100" on="0"/>
        <pt x="570" y="41" on="0"/>
        <pt x="570" y="11" on="1"/>
        <pt x="570" y="0" on="0"/>
        <pt x="559" y="0" on="1"/>
        <pt x="554" y="0" on="0"/>
        <pt x="509" y="0" on="0"/>
        <pt x="492" y="0" on="1"/>
        <pt x="433" y="0" on="0"/>
        <pt x="359" y="73" on="0"/>
        <pt x="359" y="131" on="1"/>
        <pt x="359" y="161" on="0"/>
        <pt x="359" y="221" on="0"/>
        <pt x="359" y="251" on="1"/>
        <pt x="359" y="276" on="0"/>
        <pt x="359" y="326" on="0"/>
        <pt x="359" y="351" on="1"/>
        <pt x="359" y="389" on="0"/>
        <pt x="317" y="417" on="0"/>
        <pt x="267" y="417" on="1"/>
        <pt x="223" y="417" on="0"/>
        <pt x="150" y="407" on="0"/>
        <pt x="110" y="394" on="1"/>
        <pt x="90" y="394" on="1"/>
        <pt x="90" y="422" on="0"/>
        <pt x="90" y="480" on="0"/>
        <pt x="90" y="508" on="1"/>
        <pt x="90" y="515" on="0"/>
        <pt x="93" y="518" on="1"/>
        <pt x="99" y="524" on="0"/>
        <pt x="155" y="539" on="0"/>
        <pt x="231" y="550" on="0"/>
        <pt x="267" y="550" on="1"/>
        <pt x="397" y="550" on="0"/>
        <pt x="514" y="452" on="0"/>
      </contour>
      <contour>
        <pt x="200" y="155" on="1"/>
        <pt x="200" y="142" on="0"/>
        <pt x="219" y="122" on="0"/>
        <pt x="236" y="122" on="1"/>
        <pt x="272" y="122" on="0"/>
        <pt x="342" y="147" on="0"/>
        <pt x="377" y="172" on="1"/>
        <pt x="377" y="167" on="0"/>
        <pt x="374" y="154" on="0"/>
        <pt x="362" y="122" on="0"/>
        <pt x="349" y="89" on="1"/>
        <pt x="330" y="42" on="0"/>
        <pt x="250" y="-10" on="0"/>
        <pt x="197" y="-10" on="1"/>
        <pt x="154" y="-10" on="0"/>
        <pt x="87" y="27" on="0"/>
        <pt x="50" y="92" on="0"/>
        <pt x="50" y="134" on="1"/>
        <pt x="50" y="178" on="1"/>
        <pt x="50" y="221" on="0"/>
        <pt x="87" y="285" on="0"/>
        <pt x="154" y="322" on="0"/>
        <pt x="197" y="322" on="1"/>
        <pt x="252" y="322" on="0"/>
        <pt x="347" y="305" on="0"/>
        <pt x="384" y="291" on="1"/>
        <pt x="401" y="284" on="0"/>
        <pt x="410" y="243" on="0"/>
        <pt x="410" y="224" on="1"/>
        <pt x="367" y="224" on="0"/>
        <pt x="280" y="224" on="0"/>
        <pt x="236" y="224" on="1"/>
        <pt x="219" y="224" on="0"/>
        <pt x="209" y="214" on="1"/>
        <pt x="200" y="205" on="0"/>
        <pt x="200" y="191" on="1"/>
      </contour>
      <contour>
        <pt x="386" y="181" on="1"/>
        <pt x="401" y="178" on="1"/>
        <pt x="375" y="87" on="1"/>
        <pt x="337" y="87" on="1"/>
      </contour>
    </TTGlyph>
    <TTGlyph name="a.italic" xMin="55" yMin="-10" xMax="580" yMax="552">
      <contour>
        <pt x="218" y="-10" on="1"/>
        <pt x="168" y="-10" on="0"/>
        <pt x="95" y="36" on="0"/>
        <pt x="55" y="123" on="0"/>
        <pt x="55" y="184" on="1"/>
        <pt x="55" y="358" on="1"/>
        <pt x="55" y="420" on="0"/>
        <pt x="95" y="506" on="0"/>
        <pt x="168" y="552" on="0"/>
        <pt x="218" y="552" on="1"/>
        <pt x="271" y="552" on="0"/>
        <pt x="345" y="500" on="0"/>
        <pt x="364" y="459" on="1"/>
        <pt x="385" y="416" on="0"/>
        <pt x="400" y="373" on="0"/>
        <pt x="395" y="359" on="0"/>
        <pt x="387" y="358" on="1"/>
        <pt x="361" y="381" on="0"/>
        <pt x="304" y="407" on="0"/>
        <pt x="274" y="407" on="1"/>
        <pt x="243" y="407" on="0"/>
        <pt x="210" y="369" on="0"/>
        <pt x="210" y="333" on="1"/>
        <pt x="210" y="209" on="1"/>
        <pt x="210" y="188" on="0"/>
        <pt x="219" y="159" on="0"/>
        <pt x="227" y="151" on="1"/>
        <pt x="243" y="135" on="0"/>
        <pt x="274" y="135" on="1"/>
        <pt x="303" y="135" on="0"/>
        <pt x="361" y="177" on="0"/>
        <pt x="386" y="211" on="1"/>
        <pt x="403" y="206" on="0"/>
        <pt x="383" y="149" on="0"/>
        <pt x="366" y="102" on="1"/>
        <pt x="347" y="49" on="0"/>
        <pt x="268" y="-10" on="0"/>
      </contour>
      <contour>
        <pt x="580" y="130" on="1"/>
        <pt x="580" y="100" on="0"/>
        <pt x="580" y="41" on="0"/>
        <pt x="580" y="11" on="1"/>
        <pt x="580" y="0" on="0"/>
        <pt x="569" y="0" on="1"/>
        <pt x="557" y="0" on="0"/>
        <pt x="532" y="0" on="0"/>
        <pt x="520" y="0" on="1"/>
        <pt x="470" y="0" on="0"/>
        <pt x="405" y="37" on="0"/>
        <pt x="375" y="97" on="0"/>
        <pt x="375" y="131" on="1"/>
        <pt x="375" y="199" on="0"/>
        <pt x="375" y="334" on="0"/>
        <pt x="375" y="401" on="1"/>
        <pt x="375" y="436" on="0"/>
        <pt x="375" y="506" on="0"/>
        <pt x="375" y="540" on="1"/>
        <pt x="411" y="540" on="0"/>
        <pt x="483" y="540" on="0"/>
        <pt x="519" y="540" on="1"/>
        <pt x="530" y="540" on="0"/>
        <pt x="530" y="529" on="1"/>
        <pt x="530" y="435" on="0"/>
        <pt x="530" y="247" on="0"/>
        <pt x="530" y="152" on="1"/>
        <pt x="530" y="130" on="0"/>
        <pt x="551" y="130" on="1"/>
        <pt x="553" y="130" on="0"/>
        <pt x="558" y="130" on="0"/>
        <pt x="560" y="130" on="1"/>
      </contour>
      <contour>
        <pt x="382" y="475" on="1"/>
        <pt x="404" y="416" on="1"/>
        <pt x="382" y="413" on="1"/>
        <pt x="347" y="475" on="1"/>
      </contour>
      <contour>
        <pt x="389" y="89" on="1"/>
        <pt x="351" y="89" on="1"/>
        <pt x="400" y="189" on="1"/>
        <pt x="415" y="186" on="1"/>
      </contour>
    </TTGlyph>
    <TTGlyph name="b" xMin="70" yMin="-10" xMax="545" yMax="750">
      <contour>
        <pt x="185" y="0" on="1"/>
        <pt x="174" y="0" on="0"/>
        <pt x="133" y="0" on="0"/>
        <pt x="92" y="0" on="0"/>
        <pt x="81" y="0" on="1"/>
        <pt x="70" y="0" on="0"/>
        <pt x="70" y="11" on="1"/>
        <pt x="70" y="159" on="0"/>
        <pt x="70" y="455" on="0"/>
        <pt x="70" y="603" on="1"/>
        <pt x="70" y="640" on="0"/>
        <pt x="70" y="713" on="0"/>
        <pt x="70" y="750" on="1"/>
        <pt x="106" y="750" on="0"/>
        <pt x="178" y="750" on="0"/>
        <pt x="214" y="750" on="1"/>
        <pt x="225" y="750" on="0"/>
        <pt x="225" y="739" on="1"/>
        <pt x="225" y="632" on="0"/>
        <pt x="225" y="425" on="0"/>
        <pt x="225" y="217" on="0"/>
        <pt x="225" y="110" on="1"/>
        <pt x="225" y="110" on="0"/>
        <pt x="217" y="87" on="0"/>
        <pt x="205" y="55" on="0"/>
        <pt x="194" y="22" on="0"/>
        <pt x="185" y="0" on="0"/>
      </contour>
      <contour>
        <pt x="382" y="-10" on="1"/>
        <pt x="334" y="-10" on="0"/>
        <pt x="256" y="43" on="0"/>
        <pt x="230" y="93" on="1"/>
        <pt x="211" y="131" on="0"/>
        <pt x="198" y="170" on="0"/>
        <pt x="204" y="190" on="0"/>
        <pt x="210" y="198" on="1"/>
        <pt x="237" y="167" on="0"/>
        <pt x="297" y="135" on="0"/>
        <pt x="326" y="135" on="1"/>
        <pt x="390" y="135" on="0"/>
        <pt x="390" y="209" on="1"/>
        <pt x="390" y="333" on="1"/>
        <pt x="390" y="374" on="0"/>
        <pt x="373" y="391" on="1"/>
        <pt x="357" y="407" on="0"/>
        <pt x="326" y="407" on="1"/>
        <pt x="298" y="407" on="0"/>
        <pt x="240" y="366" on="0"/>
        <pt x="214" y="331" on="1"/>
        <pt x="197" y="336" on="0"/>
        <pt x="217" y="394" on="0"/>
        <pt x="234" y="440" on="1"/>
        <pt x="254" y="493" on="0"/>
        <pt x="332" y="552" on="0"/>
        <pt x="382" y="552" on="1"/>
        <pt x="432" y="552" on="0"/>
        <pt x="505" y="506" on="0"/>
        <pt x="545" y="419" on="0"/>
        <pt x="545" y="358" on="1"/>
        <pt x="545" y="184" on="1"/>
        <pt x="545" y="92" on="0"/>
        <pt x="457" y="-10" on="0"/>
      </contour>
      <contour>
        <pt x="214" y="461" on="1"/>
        <pt x="252" y="461" on="1"/>
        <pt x="203" y="367" on="1"/>
        <pt x="188" y="370" on="1"/>
      </contour>
      <contour>
        <pt x="191" y="84" on="1"/>
        <pt x="189" y="150" on="1"/>
        <pt x="211" y="153" on="1"/>
        <pt x="256" y="84" on="1"/>
      </contour>
    </TTGlyph>
    <TTGlyph name="c" xMin="65" yMin="-12" xMax="520" yMax="552">
      <contour>
        <pt x="332" y="552" on="1"/>
        <pt x="404" y="552" on="0"/>
        <pt x="505" y="523" on="0"/>
        <pt x="517" y="511" on="1"/>
        <pt x="520" y="508" on="0"/>
        <pt x="520" y="503" on="1"/>
        <pt x="520" y="472" on="0"/>
        <pt x="520" y="410" on="0"/>
        <pt x="520" y="379" on="1"/>
        <pt x="500" y="379" on="1"/>
        <pt x="460" y="395" on="0"/>
        <pt x="385" y="412" on="0"/>
        <pt x="343" y="412" on="1"/>
        <pt x="283" y="412" on="0"/>
        <pt x="220" y="365" on="0"/>
        <pt x="220" y="305" on="1"/>
        <pt x="220" y="233" on="1"/>
        <pt x="220" y="183" on="0"/>
        <pt x="246" y="157" on="1"/>
        <pt x="260" y="143" on="0"/>
        <pt x="307" y="128" on="0"/>
        <pt x="343" y="128" on="1"/>
        <pt x="385" y="128" on="0"/>
        <pt x="460" y="145" on="0"/>
        <pt x="500" y="161" on="1"/>
        <pt x="520" y="161" on="1"/>
        <pt x="520" y="130" on="0"/>
        <pt x="520" y="68" on="0"/>
        <pt x="520" y="37" on="1"/>
        <pt x="520" y="32" on="0"/>
        <pt x="517" y="29" on="1"/>
        <pt x="505" y="17" on="0"/>
        <pt x="403" y="-12" on="0"/>
        <pt x="328" y="-12" on="1"/>
        <pt x="246" y="-12" on="0"/>
        <pt x="128" y="49" on="0"/>
        <pt x="65" y="156" on="0"/>
        <pt x="65" y="225" on="1"/>
        <pt x="65" y="315" on="1"/>
        <pt x="65" y="384" on="0"/>
        <pt x="127" y="491" on="0"/>
        <pt x="247" y="552" on="0"/>
      </contour>
    </TTGlyph>
    <TTGlyph name="c.italic" xMin="65" yMin="-12" xMax="520" yMax="552">
      <contour>
        <pt x="332" y="552" on="1"/>
        <pt x="408" y="552" on="0"/>
        <pt x="506" y="522" on="0"/>
        <pt x="517" y="511" on="1"/>
        <pt x="520" y="508" on="0"/>
        <pt x="520" y="504" on="1"/>
        <pt x="520" y="351" on="1"/>
        <pt x="520" y="340" on="0"/>
        <pt x="509" y="340" on="1"/>
        <pt x="478" y="340" on="0"/>
        <pt x="416" y="340" on="0"/>
        <pt x="385" y="340" on="1"/>
        <pt x="385" y="360" on="1"/>
        <pt x="385" y="373" on="0"/>
        <pt x="385" y="401" on="0"/>
        <pt x="385" y="415" on="1"/>
        <pt x="375" y="417" on="0"/>
        <pt x="354" y="418" on="0"/>
        <pt x="343" y="418" on="1"/>
        <pt x="283" y="418" on="0"/>
        <pt x="220" y="367" on="0"/>
        <pt x="220" y="304" on="1"/>
        <pt x="220" y="234" on="1"/>
        <pt x="220" y="183" on="0"/>
        <pt x="246" y="157" on="1"/>
        <pt x="260" y="143" on="0"/>
        <pt x="307" y="128" on="0"/>
        <pt x="343" y="128" on="1"/>
        <pt x="389" y="128" on="0"/>
        <pt x="464" y="145" on="0"/>
        <pt x="500" y="161" on="1"/>
        <pt x="520" y="161" on="1"/>
        <pt x="520" y="130" on="0"/>
        <pt x="520" y="68" on="0"/>
        <pt x="520" y="37" on="1"/>
        <pt x="520" y="32" on="0"/>
        <pt x="517" y="29" on="1"/>
        <pt x="505" y="17" on="0"/>
        <pt x="407" y="-12" on="0"/>
        <pt x="328" y="-12" on="1"/>
        <pt x="246" y="-12" on="0"/>
        <pt x="128" y="49" on="0"/>
        <pt x="65" y="156" on="0"/>
        <pt x="65" y="225" on="1"/>
        <pt x="65" y="315" on="1"/>
        <pt x="65" y="384" on="0"/>
        <pt x="127" y="491" on="0"/>
        <pt x="247" y="552" on="0"/>
      </contour>
    </TTGlyph>
    <TTGlyph name="d" xMin="55" yMin="-10" xMax="530" yMax="750">
      <contour>
        <pt x="218" y="-10" on="1"/>
        <pt x="168" y="-10" on="0"/>
        <pt x="95" y="36" on="0"/>
        <pt x="55" y="123" on="0"/>
        <pt x="55" y="184" on="1"/>
        <pt x="55" y="358" on="1"/>
        <pt x="55" y="450" on="0"/>
        <pt x="143" y="552" on="0"/>
        <pt x="218" y="552" on="1"/>
        <pt x="269" y="552" on="0"/>
        <pt x="339" y="501" on="0"/>
        <pt x="359" y="460" on="1"/>
        <pt x="388" y="402" on="0"/>
        <pt x="400" y="356" on="0"/>
        <pt x="390" y="345" on="1"/>
        <pt x="364" y="375" on="0"/>
        <pt x="303" y="407" on="0"/>
        <pt x="274" y="407" on="1"/>
        <pt x="210" y="407" on="0"/>
        <pt x="210" y="333" on="1"/>
        <pt x="210" y="209" on="1"/>
        <pt x="210" y="168" on="0"/>
        <pt x="227" y="151" on="1"/>
        <pt x="243" y="135" on="0"/>
        <pt x="274" y="135" on="1"/>
        <pt x="303" y="135" on="0"/>
        <pt x="362" y="167" on="0"/>
        <pt x="390" y="201" on="1"/>
        <pt x="391" y="191" on="0"/>
        <pt x="383" y="149" on="0"/>
        <pt x="366" y="102" on="1"/>
        <pt x="347" y="50" on="0"/>
        <pt x="268" y="-10" on="0"/>
      </contour>
      <contour>
        <pt x="530" y="0" on="1"/>
        <pt x="494" y="0" on="0"/>
        <pt x="422" y="0" on="0"/>
        <pt x="386" y="0" on="1"/>
        <pt x="382" y="0" on="0"/>
        <pt x="375" y="7" on="0"/>
        <pt x="375" y="11" on="1"/>
        <pt x="375" y="171" on="0"/>
        <pt x="375" y="490" on="0"/>
        <pt x="375" y="650" on="1"/>
        <pt x="375" y="675" on="0"/>
        <pt x="375" y="725" on="0"/>
        <pt x="375" y="750" on="1"/>
        <pt x="411" y="750" on="0"/>
        <pt x="483" y="750" on="0"/>
        <pt x="519" y="750" on="1"/>
        <pt x="524" y="750" on="0"/>
        <pt x="530" y="744" on="0"/>
        <pt x="530" y="739" on="1"/>
        <pt x="530" y="592" on="0"/>
        <pt x="530" y="296" on="0"/>
        <pt x="530" y="149" on="1"/>
        <pt x="530" y="112" on="0"/>
        <pt x="530" y="38" on="0"/>
      </contour>
      <contour>
        <pt x="372" y="409" on="1"/>
        <pt x="337" y="468" on="1"/>
        <pt x="382" y="468" on="1"/>
        <pt x="404" y="412" on="1"/>
      </contour>
      <contour>
        <pt x="386" y="77" on="1"/>
        <pt x="338" y="77" on="1"/>
        <pt x="384" y="171" on="1"/>
        <pt x="399" y="168" on="1"/>
      </contour>
    </TTGlyph>
    <TTGlyph name="d.italic" xMin="55" yMin="-10" xMax="580" yMax="750">
      <contour>
        <pt x="218" y="-10" on="1"/>
        <pt x="168" y="-10" on="0"/>
        <pt x="95" y="36" on="0"/>
        <pt x="55" y="123" on="0"/>
        <pt x="55" y="184" on="1"/>
        <pt x="55" y="358" on="1"/>
        <pt x="55" y="420" on="0"/>
        <pt x="95" y="506" on="0"/>
        <pt x="168" y="552" on="0"/>
        <pt x="218" y="552" on="1"/>
        <pt x="266" y="552" on="0"/>
        <pt x="347" y="492" on="0"/>
        <pt x="370" y="449" on="1"/>
        <pt x="391" y="412" on="0"/>
        <pt x="402" y="373" on="0"/>
        <pt x="395" y="359" on="0"/>
        <pt x="387" y="358" on="1"/>
        <pt x="361" y="381" on="0"/>
        <pt x="304" y="407" on="0"/>
        <pt x="274" y="407" on="1"/>
        <pt x="243" y="407" on="0"/>
        <pt x="210" y="369" on="0"/>
        <pt x="210" y="333" on="1"/>
        <pt x="210" y="209" on="1"/>
        <pt x="210" y="188" on="0"/>
        <pt x="219" y="159" on="0"/>
        <pt x="227" y="151" on="1"/>
        <pt x="243" y="135" on="0"/>
        <pt x="274" y="135" on="1"/>
        <pt x="303" y="135" on="0"/>
        <pt x="361" y="177" on="0"/>
        <pt x="386" y="211" on="1"/>
        <pt x="403" y="206" on="0"/>
        <pt x="383" y="149" on="0"/>
        <pt x="366" y="102" on="1"/>
        <pt x="347" y="50" on="0"/>
        <pt x="268" y="-10" on="0"/>
      </contour>
      <contour>
        <pt x="580" y="130" on="1"/>
        <pt x="580" y="100" on="0"/>
        <pt x="580" y="41" on="0"/>
        <pt x="580" y="11" on="1"/>
        <pt x="580" y="0" on="0"/>
        <pt x="569" y="0" on="1"/>
        <pt x="557" y="0" on="0"/>
        <pt x="532" y="0" on="0"/>
        <pt x="520" y="0" on="1"/>
        <pt x="470" y="0" on="0"/>
        <pt x="405" y="37" on="0"/>
        <pt x="375" y="97" on="0"/>
        <pt x="375" y="131" on="1"/>
        <pt x="375" y="251" on="0"/>
        <pt x="375" y="491" on="0"/>
        <pt x="375" y="611" on="1"/>
        <pt x="375" y="646" on="0"/>
        <pt x="375" y="716" on="0"/>
        <pt x="375" y="750" on="1"/>
        <pt x="411" y="750" on="0"/>
        <pt x="483" y="750" on="0"/>
        <pt x="519" y="750" on="1"/>
        <pt x="530" y="750" on="0"/>
        <pt x="530" y="739" on="1"/>
        <pt x="530" y="641" on="0"/>
        <pt x="530" y="446" on="0"/>
        <pt x="530" y="250" on="0"/>
        <pt x="530" y="152" on="1"/>
        <pt x="530" y="141" on="0"/>
        <pt x="536" y="135" on="1"/>
        <pt x="541" y="130" on="0"/>
        <pt x="551" y="130" on="1"/>
        <pt x="553" y="130" on="0"/>
        <pt x="558" y="130" on="0"/>
        <pt x="560" y="130" on="1"/>
      </contour>
      <contour>
        <pt x="382" y="473" on="1"/>
        <pt x="404" y="414" on="1"/>
        <pt x="382" y="411" on="1"/>
        <pt x="347" y="473" on="1"/>
      </contour>
      <contour>
        <pt x="389" y="89" on="1"/>
        <pt x="351" y="89" on="1"/>
        <pt x="400" y="189" on="1"/>
        <pt x="415" y="186" on="1"/>
      </contour>
    </TTGlyph>
    <TTGlyph name="e" xMin="65" yMin="-12" xMax="530" yMax="552">
      <contour>
        <pt x="302" y="552" on="1"/>
        <pt x="373" y="552" on="0"/>
        <pt x="475" y="494" on="0"/>
        <pt x="530" y="394" on="0"/>
        <pt x="530" y="330" on="1"/>
        <pt x="530" y="244" on="1"/>
        <pt x="530" y="234" on="0"/>
        <pt x="520" y="234" on="1"/>
        <pt x="185" y="234" on="1"/>
        <pt x="149" y="234" on="0"/>
        <pt x="110" y="276" on="0"/>
        <pt x="110" y="324" on="1"/>
        <pt x="385" y="324" on="1"/>
        <pt x="385" y="328" on="0"/>
        <pt x="385" y="333" on="0"/>
        <pt x="385" y="337" on="1"/>
        <pt x="385" y="387" on="0"/>
        <pt x="364" y="408" on="1"/>
        <pt x="354" y="418" on="0"/>
        <pt x="324" y="427" on="0"/>
        <pt x="302" y="427" on="1"/>
        <pt x="257" y="427" on="0"/>
        <pt x="215" y="385" on="0"/>
        <pt x="215" y="337" on="1"/>
        <pt x="215" y="210" on="1"/>
        <pt x="215" y="166" on="0"/>
        <pt x="236" y="145" on="1"/>
        <pt x="251" y="130" on="0"/>
        <pt x="300" y="118" on="0"/>
        <pt x="332" y="118" on="1"/>
        <pt x="385" y="118" on="0"/>
        <pt x="461" y="133" on="0"/>
        <pt x="495" y="143" on="1"/>
        <pt x="515" y="143" on="1"/>
        <pt x="515" y="115" on="0"/>
        <pt x="515" y="57" on="0"/>
        <pt x="515" y="29" on="1"/>
        <pt x="515" y="25" on="0"/>
        <pt x="511" y="21" on="1"/>
        <pt x="504" y="14" on="0"/>
        <pt x="448" y="-1" on="0"/>
        <pt x="370" y="-12" on="0"/>
        <pt x="331" y="-12" on="1"/>
        <pt x="241" y="-12" on="0"/>
        <pt x="123" y="43" on="0"/>
        <pt x="65" y="144" on="0"/>
        <pt x="65" y="212" on="1"/>
        <pt x="65" y="330" on="1"/>
        <pt x="65" y="394" on="0"/>
        <pt x="122" y="494" on="0"/>
        <pt x="228" y="552" on="0"/>
      </contour>
      <contour>
        <pt x="194" y="227" on="1"/>
        <pt x="188" y="283" on="1"/>
        <pt x="206" y="287" on="1"/>
        <pt x="235" y="243" on="1"/>
      </contour>
    </TTGlyph>
    <TTGlyph name="e.italic" xMin="65" yMin="-12" xMax="541" yMax="552">
      <contour>
        <pt x="312" y="552" on="1"/>
        <pt x="385" y="552" on="0"/>
        <pt x="487" y="507" on="0"/>
        <pt x="541" y="428" on="0"/>
        <pt x="541" y="377" on="1"/>
        <pt x="541" y="359" on="1"/>
        <pt x="541" y="285" on="0"/>
        <pt x="450" y="214" on="0"/>
        <pt x="353" y="214" on="1"/>
        <pt x="310" y="214" on="0"/>
        <pt x="224" y="214" on="0"/>
        <pt x="199" y="214" on="1"/>
        <pt x="159" y="214" on="0"/>
        <pt x="110" y="256" on="0"/>
        <pt x="110" y="304" on="1"/>
        <pt x="172" y="304" on="0"/>
        <pt x="281" y="304" on="0"/>
        <pt x="327" y="304" on="1"/>
        <pt x="357" y="304" on="0"/>
        <pt x="394" y="333" on="0"/>
        <pt x="394" y="361" on="1"/>
        <pt x="394" y="390" on="0"/>
        <pt x="377" y="407" on="1"/>
        <pt x="357" y="427" on="0"/>
        <pt x="312" y="427" on="1"/>
        <pt x="262" y="427" on="0"/>
        <pt x="215" y="385" on="0"/>
        <pt x="215" y="337" on="1"/>
        <pt x="215" y="210" on="1"/>
        <pt x="215" y="166" on="0"/>
        <pt x="236" y="145" on="1"/>
        <pt x="251" y="130" on="0"/>
        <pt x="302" y="118" on="0"/>
        <pt x="341" y="118" on="1"/>
        <pt x="389" y="118" on="0"/>
        <pt x="465" y="131" on="0"/>
        <pt x="499" y="143" on="1"/>
        <pt x="519" y="143" on="1"/>
        <pt x="519" y="115" on="0"/>
        <pt x="519" y="57" on="0"/>
        <pt x="519" y="28" on="1"/>
        <pt x="519" y="24" on="0"/>
        <pt x="515" y="20" on="1"/>
        <pt x="505" y="10" on="0"/>
        <pt x="408" y="-12" on="0"/>
        <pt x="340" y="-12" on="1"/>
        <pt x="246" y="-12" on="0"/>
        <pt x="124" y="43" on="0"/>
        <pt x="65" y="144" on="0"/>
        <pt x="65" y="212" on="1"/>
        <pt x="65" y="330" on="1"/>
        <pt x="65" y="394" on="0"/>
        <pt x="124" y="494" on="0"/>
        <pt x="234" y="552" on="0"/>
      </contour>
      <contour>
        <pt x="197" y="208" on="1"/>
        <pt x="177" y="264" on="1"/>
        <pt x="194" y="268" on="1"/>
        <pt x="234" y="224" on="1"/>
      </contour>
    </TTGlyph>
    <TTGlyph name="f" xMin="60" yMin="0" xMax="550" yMax="770">
      <contour>
        <pt x="325" y="61" on="1"/>
        <pt x="325" y="59" on="0"/>
        <pt x="318" y="55" on="0"/>
        <pt x="291" y="52" on="0"/>
        <pt x="229" y="50" on="0"/>
        <pt x="175" y="50" on="1"/>
        <pt x="175" y="177" on="0"/>
        <pt x="175" y="431" on="0"/>
        <pt x="175" y="558" on="1"/>
        <pt x="175" y="608" on="0"/>
        <pt x="206" y="687" on="0"/>
        <pt x="265" y="742" on="0"/>
        <pt x="351" y="770" on="0"/>
        <pt x="406" y="770" on="1"/>
        <pt x="465" y="770" on="0"/>
        <pt x="539" y="755" on="0"/>
        <pt x="547" y="747" on="1"/>
        <pt x="550" y="744" on="0"/>
        <pt x="550" y="739" on="1"/>
        <pt x="550" y="711" on="0"/>
        <pt x="550" y="654" on="0"/>
        <pt x="550" y="625" on="1"/>
        <pt x="530" y="625" on="1"/>
        <pt x="499" y="632" on="0"/>
        <pt x="441" y="640" on="0"/>
        <pt x="403" y="640" on="1"/>
        <pt x="379" y="640" on="0"/>
        <pt x="350" y="633" on="0"/>
        <pt x="341" y="625" on="1"/>
        <pt x="325" y="609" on="0"/>
        <pt x="325" y="556" on="1"/>
        <pt x="325" y="432" on="0"/>
        <pt x="325" y="185" on="0"/>
      </contour>
      <contour>
        <pt x="60" y="510" on="1"/>
        <pt x="509" y="510" on="1"/>
        <pt x="520" y="510" on="0"/>
        <pt x="520" y="499" on="1"/>
        <pt x="520" y="468" on="0"/>
        <pt x="520" y="412" on="0"/>
        <pt x="520" y="380" on="1"/>
        <pt x="71" y="380" on="1"/>
        <pt x="67" y="380" on="0"/>
        <pt x="60" y="387" on="0"/>
        <pt x="60" y="391" on="1"/>
        <pt x="60" y="423" on="0"/>
        <pt x="60" y="478" on="0"/>
      </contour>
      <contour>
        <pt x="60" y="130" on="1"/>
        <pt x="509" y="130" on="1"/>
        <pt x="520" y="130" on="0"/>
        <pt x="520" y="119" on="1"/>
        <pt x="520" y="87" on="0"/>
        <pt x="520" y="32" on="0"/>
        <pt x="520" y="0" on="1"/>
        <pt x="71" y="0" on="1"/>
        <pt x="67" y="0" on="0"/>
        <pt x="60" y="7" on="0"/>
        <pt x="60" y="11" on="1"/>
        <pt x="60" y="43" on="0"/>
        <pt x="60" y="98" on="0"/>
      </contour>
      <contour>
        <pt x="316" y="122" on="1"/>
        <pt x="231" y="119" on="1"/>
        <pt x="228" y="134" on="1"/>
        <pt x="316" y="147" on="1"/>
      </contour>
    </TTGlyph>
    <TTGlyph name="f.italic" xMin="70" yMin="-200" xMax="574" yMax="770">
      <contour>
        <pt x="70" y="450" on="1"/>
        <pt x="519" y="450" on="1"/>
        <pt x="530" y="450" on="0"/>
        <pt x="530" y="439" on="1"/>
        <pt x="530" y="407" on="0"/>
        <pt x="530" y="352" on="0"/>
        <pt x="530" y="320" on="1"/>
        <pt x="81" y="320" on="1"/>
        <pt x="77" y="320" on="0"/>
        <pt x="70" y="327" on="0"/>
        <pt x="70" y="331" on="1"/>
        <pt x="70" y="363" on="0"/>
        <pt x="70" y="418" on="0"/>
      </contour>
      <contour>
        <pt x="184" y="558" on="1"/>
        <pt x="184" y="628" on="0"/>
        <pt x="242" y="722" on="0"/>
        <pt x="348" y="770" on="0"/>
        <pt x="420" y="770" on="1"/>
        <pt x="464" y="770" on="0"/>
        <pt x="527" y="759" on="0"/>
        <pt x="565" y="744" on="0"/>
        <pt x="571" y="738" on="1"/>
        <pt x="574" y="735" on="0"/>
        <pt x="574" y="730" on="1"/>
        <pt x="574" y="571" on="1"/>
        <pt x="574" y="560" on="0"/>
        <pt x="563" y="560" on="1"/>
        <pt x="532" y="560" on="0"/>
        <pt x="470" y="560" on="0"/>
        <pt x="439" y="560" on="1"/>
        <pt x="439" y="569" on="1"/>
        <pt x="439" y="588" on="0"/>
        <pt x="439" y="624" on="0"/>
        <pt x="439" y="642" on="1"/>
        <pt x="432" y="644" on="0"/>
        <pt x="418" y="645" on="0"/>
        <pt x="411" y="645" on="1"/>
        <pt x="379" y="645" on="0"/>
        <pt x="361" y="627" on="1"/>
        <pt x="350" y="616" on="0"/>
        <pt x="339" y="580" on="0"/>
        <pt x="339" y="556" on="1"/>
        <pt x="339" y="370" on="0"/>
        <pt x="339" y="-4" on="0"/>
        <pt x="339" y="-189" on="1"/>
        <pt x="339" y="-200" on="0"/>
        <pt x="328" y="-200" on="1"/>
        <pt x="292" y="-200" on="0"/>
        <pt x="220" y="-200" on="0"/>
        <pt x="184" y="-200" on="1"/>
        <pt x="184" y="-175" on="0"/>
        <pt x="184" y="-125" on="0"/>
        <pt x="184" y="-100" on="1"/>
        <pt x="184" y="64" on="0"/>
        <pt x="184" y="394" on="0"/>
      </contour>
    </TTGlyph>
    <TTGlyph name="g" xMin="35" yMin="-250" xMax="585" yMax="639">
      <contour>
        <pt x="110" y="72" on="1"/>
        <pt x="110" y="110" on="0"/>
        <pt x="157" y="162" on="0"/>
        <pt x="207" y="175" on="1"/>
        <pt x="221" y="179" on="0"/>
        <pt x="242" y="181" on="0"/>
        <pt x="260" y="181" on="1"/>
        <pt x="260" y="167" on="0"/>
        <pt x="260" y="136" on="0"/>
        <pt x="260" y="122" on="1"/>
        <pt x="260" y="112" on="0"/>
        <pt x="267" y="105" on="0"/>
        <pt x="277" y="105" on="1"/>
        <pt x="400" y="105" on="1"/>
        <pt x="460" y="105" on="0"/>
        <pt x="537" y="64" on="0"/>
        <pt x="575" y="-8" on="0"/>
        <pt x="575" y="-55" on="1"/>
        <pt x="575" y="-90" on="1"/>
        <pt x="575" y="-160" on="0"/>
        <pt x="489" y="-250" on="0"/>
        <pt x="400" y="-250" on="1"/>
        <pt x="191" y="-250" on="1"/>
        <pt x="114" y="-250" on="0"/>
        <pt x="35" y="-189" on="0"/>
        <pt x="35" y="-131" on="1"/>
        <pt x="35" y="-118" on="1"/>
        <pt x="35" y="-68" on="0"/>
        <pt x="107" y="-8" on="0"/>
        <pt x="165" y="-8" on="1"/>
        <pt x="200" y="-8" on="0"/>
        <pt x="214" y="-11" on="0"/>
        <pt x="214" y="-16" on="1"/>
        <pt x="196" y="-24" on="0"/>
        <pt x="183" y="-48" on="0"/>
        <pt x="183" y="-68" on="1"/>
        <pt x="183" y="-96" on="1"/>
        <pt x="183" y="-121" on="0"/>
        <pt x="203" y="-140" on="0"/>
        <pt x="228" y="-140" on="1"/>
        <pt x="382" y="-140" on="1"/>
        <pt x="406" y="-140" on="0"/>
        <pt x="416" y="-130" on="1"/>
        <pt x="422" y="-124" on="0"/>
        <pt x="427" y="-102" on="0"/>
        <pt x="427" y="-89" on="1"/>
        <pt x="427" y="-65" on="1"/>
        <pt x="427" y="-39" on="0"/>
        <pt x="407" y="-20" on="0"/>
        <pt x="382" y="-20" on="1"/>
        <pt x="199" y="-20" on="1"/>
        <pt x="177" y="-20" on="0"/>
        <pt x="136" y="5" on="0"/>
        <pt x="110" y="47" on="0"/>
      </contour>
      <contour>
        <pt x="468" y="508" on="1"/>
        <pt x="462" y="507" on="0"/>
        <pt x="431" y="508" on="0"/>
        <pt x="397" y="513" on="0"/>
        <pt x="386" y="517" on="1"/>
        <pt x="416" y="565" on="1"/>
        <pt x="422" y="575" on="0"/>
        <pt x="422" y="589" on="1"/>
        <pt x="422" y="615" on="0"/>
        <pt x="422" y="630" on="0"/>
        <pt x="422" y="639" on="1"/>
        <pt x="457" y="639" on="0"/>
        <pt x="539" y="639" on="0"/>
        <pt x="574" y="639" on="1"/>
        <pt x="585" y="639" on="0"/>
        <pt x="585" y="628" on="1"/>
        <pt x="585" y="545" on="1"/>
        <pt x="585" y="535" on="0"/>
        <pt x="579" y="525" on="0"/>
        <pt x="553" y="520" on="0"/>
        <pt x="524" y="516" on="1"/>
      </contour>
      <contour>
        <pt x="293" y="290" on="1"/>
        <pt x="337" y="290" on="0"/>
        <pt x="381" y="321" on="0"/>
        <pt x="381" y="353" on="1"/>
        <pt x="381" y="374" on="1"/>
        <pt x="381" y="401" on="0"/>
        <pt x="365" y="417" on="1"/>
        <pt x="343" y="437" on="0"/>
        <pt x="293" y="437" on="1"/>
        <pt x="250" y="437" on="0"/>
        <pt x="205" y="406" on="0"/>
        <pt x="205" y="374" on="1"/>
        <pt x="205" y="353" on="1"/>
        <pt x="205" y="326" on="0"/>
        <pt x="220" y="311" on="1"/>
        <pt x="241" y="290" on="0"/>
      </contour>
      <contour>
        <pt x="60" y="374" on="1"/>
        <pt x="60" y="457" on="0"/>
        <pt x="179" y="551" on="0"/>
        <pt x="293" y="551" on="1"/>
        <pt x="407" y="551" on="0"/>
        <pt x="526" y="457" on="0"/>
        <pt x="526" y="374" on="1"/>
        <pt x="526" y="353" on="1"/>
        <pt x="526" y="270" on="0"/>
        <pt x="407" y="176" on="0"/>
        <pt x="293" y="176" on="1"/>
        <pt x="179" y="176" on="0"/>
        <pt x="60" y="270" on="0"/>
        <pt x="60" y="353" on="1"/>
      </contour>
      <contour>
        <pt x="138" y="-32" on="1"/>
        <pt x="138" y="30" on="1"/>
        <pt x="171" y="30" on="1"/>
        <pt x="171" y="-32" on="1"/>
      </contour>
      <contour>
        <pt x="194" y="144" on="1"/>
        <pt x="194" y="206" on="1"/>
        <pt x="247" y="206" on="1"/>
        <pt x="247" y="144" on="1"/>
      </contour>
      <contour>
        <pt x="443" y="470" on="1"/>
        <pt x="443" y="532" on="1"/>
        <pt x="476" y="532" on="1"/>
        <pt x="476" y="470" on="1"/>
      </contour>
    </TTGlyph>
    <TTGlyph name="g.italic" xMin="55" yMin="-210" xMax="530" yMax="552">
      <contour>
        <pt x="218" y="30" on="1"/>
        <pt x="143" y="30" on="0"/>
        <pt x="55" y="133" on="0"/>
        <pt x="55" y="224" on="1"/>
        <pt x="55" y="358" on="1"/>
        <pt x="55" y="450" on="0"/>
        <pt x="143" y="552" on="0"/>
        <pt x="218" y="552" on="1"/>
        <pt x="269" y="552" on="0"/>
        <pt x="339" y="501" on="0"/>
        <pt x="359" y="460" on="1"/>
        <pt x="388" y="402" on="0"/>
        <pt x="400" y="356" on="0"/>
        <pt x="390" y="345" on="1"/>
        <pt x="364" y="375" on="0"/>
        <pt x="303" y="407" on="0"/>
        <pt x="274" y="407" on="1"/>
        <pt x="243" y="407" on="0"/>
        <pt x="210" y="369" on="0"/>
        <pt x="210" y="333" on="1"/>
        <pt x="210" y="249" on="1"/>
        <pt x="210" y="208" on="0"/>
        <pt x="227" y="191" on="1"/>
        <pt x="243" y="175" on="0"/>
        <pt x="274" y="175" on="1"/>
        <pt x="303" y="175" on="0"/>
        <pt x="362" y="207" on="0"/>
        <pt x="390" y="241" on="1"/>
        <pt x="391" y="231" on="0"/>
        <pt x="383" y="189" on="0"/>
        <pt x="366" y="142" on="1"/>
        <pt x="347" y="90" on="0"/>
        <pt x="268" y="30" on="0"/>
      </contour>
      <contour>
        <pt x="256" y="-70" on="1"/>
        <pt x="324" y="-70" on="0"/>
        <pt x="352" y="-42" on="1"/>
        <pt x="380" y="-15" on="0"/>
        <pt x="380" y="49" on="1"/>
        <pt x="380" y="118" on="0"/>
        <pt x="380" y="238" on="0"/>
        <pt x="380" y="357" on="0"/>
        <pt x="380" y="427" on="1"/>
        <pt x="380" y="456" on="0"/>
        <pt x="380" y="512" on="0"/>
        <pt x="380" y="540" on="1"/>
        <pt x="415" y="540" on="0"/>
        <pt x="485" y="540" on="0"/>
        <pt x="519" y="540" on="1"/>
        <pt x="530" y="540" on="0"/>
        <pt x="530" y="529" on="1"/>
        <pt x="530" y="440" on="0"/>
        <pt x="530" y="289" on="0"/>
        <pt x="530" y="138" on="0"/>
        <pt x="530" y="49" on="1"/>
        <pt x="530" y="-69" on="0"/>
        <pt x="401" y="-210" on="0"/>
        <pt x="262" y="-210" on="1"/>
        <pt x="220" y="-210" on="0"/>
        <pt x="144" y="-198" on="0"/>
        <pt x="92" y="-180" on="0"/>
        <pt x="84" y="-173" on="1"/>
        <pt x="81" y="-170" on="0"/>
        <pt x="81" y="-165" on="1"/>
        <pt x="81" y="-133" on="0"/>
        <pt x="81" y="-71" on="0"/>
        <pt x="81" y="-40" on="1"/>
        <pt x="101" y="-40" on="1"/>
        <pt x="142" y="-57" on="0"/>
        <pt x="215" y="-70" on="0"/>
      </contour>
      <contour>
        <pt x="378" y="401" on="1"/>
        <pt x="343" y="460" on="1"/>
        <pt x="388" y="460" on="1"/>
        <pt x="410" y="404" on="1"/>
      </contour>
      <contour>
        <pt x="390" y="127" on="1"/>
        <pt x="342" y="127" on="1"/>
        <pt x="388" y="221" on="1"/>
        <pt x="403" y="218" on="1"/>
      </contour>
    </TTGlyph>
    <TTGlyph name="h" xMin="70" yMin="0" xMax="540" yMax="750">
      <contour>
        <pt x="230" y="0" on="1"/>
        <pt x="193" y="0" on="0"/>
        <pt x="119" y="0" on="0"/>
        <pt x="81" y="0" on="1"/>
        <pt x="70" y="0" on="0"/>
        <pt x="70" y="11" on="1"/>
        <pt x="70" y="171" on="0"/>
        <pt x="70" y="492" on="0"/>
        <pt x="70" y="652" on="1"/>
        <pt x="70" y="679" on="0"/>
        <pt x="70" y="729" on="0"/>
        <pt x="70" y="750" on="1"/>
        <pt x="111" y="750" on="0"/>
        <pt x="185" y="750" on="0"/>
        <pt x="219" y="750" on="1"/>
        <pt x="224" y="750" on="0"/>
        <pt x="230" y="744" on="0"/>
        <pt x="230" y="739" on="1"/>
        <pt x="230" y="555" on="0"/>
        <pt x="230" y="185" on="0"/>
      </contour>
      <contour>
        <pt x="540" y="0" on="1"/>
        <pt x="503" y="0" on="0"/>
        <pt x="429" y="0" on="0"/>
        <pt x="391" y="0" on="1"/>
        <pt x="380" y="0" on="0"/>
        <pt x="380" y="11" on="1"/>
        <pt x="380" y="99" on="0"/>
        <pt x="380" y="275" on="0"/>
        <pt x="380" y="363" on="1"/>
        <pt x="380" y="383" on="0"/>
        <pt x="358" y="407" on="0"/>
        <pt x="338" y="407" on="1"/>
        <pt x="306" y="407" on="0"/>
        <pt x="241" y="367" on="0"/>
        <pt x="213" y="328" on="1"/>
        <pt x="208" y="351" on="0"/>
        <pt x="225" y="411" on="0"/>
        <pt x="241" y="439" on="1"/>
        <pt x="270" y="489" on="0"/>
        <pt x="344" y="552" on="0"/>
        <pt x="398" y="552" on="1"/>
        <pt x="439" y="552" on="0"/>
        <pt x="503" y="516" on="0"/>
        <pt x="540" y="447" on="0"/>
        <pt x="540" y="397" on="1"/>
        <pt x="540" y="324" on="0"/>
        <pt x="540" y="174" on="0"/>
        <pt x="540" y="99" on="1"/>
        <pt x="540" y="74" on="0"/>
        <pt x="540" y="25" on="0"/>
      </contour>
      <contour>
        <pt x="209" y="454" on="1"/>
        <pt x="265" y="454" on="1"/>
        <pt x="192" y="320" on="1"/>
        <pt x="168" y="323" on="1"/>
      </contour>
    </TTGlyph>
    <TTGlyph name="h.italic" xMin="70" yMin="0" xMax="580" yMax="750">
      <contour>
        <pt x="230" y="0" on="1"/>
        <pt x="193" y="0" on="0"/>
        <pt x="119" y="0" on="0"/>
        <pt x="81" y="0" on="1"/>
        <pt x="70" y="0" on="0"/>
        <pt x="70" y="11" on="1"/>
        <pt x="70" y="172" on="0"/>
        <pt x="70" y="491" on="0"/>
        <pt x="70" y="652" on="1"/>
        <pt x="70" y="679" on="0"/>
        <pt x="70" y="729" on="0"/>
        <pt x="70" y="750" on="1"/>
        <pt x="111" y="750" on="0"/>
        <pt x="185" y="750" on="0"/>
        <pt x="219" y="750" on="1"/>
        <pt x="230" y="750" on="0"/>
        <pt x="230" y="739" on="1"/>
        <pt x="230" y="555" on="0"/>
        <pt x="230" y="184" on="0"/>
      </contour>
      <contour>
        <pt x="395" y="552" on="1"/>
        <pt x="453" y="552" on="0"/>
        <pt x="530" y="472" on="0"/>
        <pt x="530" y="400" on="1"/>
        <pt x="530" y="336" on="0"/>
        <pt x="530" y="205" on="0"/>
        <pt x="530" y="141" on="1"/>
        <pt x="530" y="136" on="0"/>
        <pt x="533" y="133" on="1"/>
        <pt x="536" y="130" on="0"/>
        <pt x="541" y="130" on="1"/>
        <pt x="546" y="130" on="0"/>
        <pt x="555" y="130" on="0"/>
        <pt x="560" y="130" on="1"/>
        <pt x="580" y="130" on="1"/>
        <pt x="580" y="100" on="0"/>
        <pt x="580" y="41" on="0"/>
        <pt x="580" y="11" on="1"/>
        <pt x="580" y="0" on="0"/>
        <pt x="569" y="0" on="1"/>
        <pt x="564" y="0" on="0"/>
        <pt x="513" y="0" on="0"/>
        <pt x="494" y="0" on="1"/>
        <pt x="451" y="0" on="0"/>
        <pt x="396" y="30" on="0"/>
        <pt x="370" y="86" on="0"/>
        <pt x="370" y="124" on="1"/>
        <pt x="370" y="186" on="0"/>
        <pt x="370" y="310" on="0"/>
        <pt x="370" y="371" on="1"/>
        <pt x="370" y="407" on="0"/>
        <pt x="334" y="407" on="1"/>
        <pt x="270" y="407" on="0"/>
        <pt x="213" y="328" on="1"/>
        <pt x="208" y="351" on="0"/>
        <pt x="226" y="411" on="0"/>
        <pt x="241" y="439" on="1"/>
        <pt x="273" y="497" on="0"/>
        <pt x="352" y="552" on="0"/>
      </contour>
      <contour>
        <pt x="209" y="454" on="1"/>
        <pt x="265" y="454" on="1"/>
        <pt x="192" y="320" on="1"/>
        <pt x="168" y="323" on="1"/>
      </contour>
    </TTGlyph>
    <TTGlyph name="i" xMin="60" yMin="0" xMax="540" yMax="800">
      <contour>
        <pt x="80" y="540" on="1"/>
        <pt x="155" y="540" on="0"/>
        <pt x="304" y="540" on="0"/>
        <pt x="379" y="540" on="1"/>
        <pt x="384" y="540" on="0"/>
        <pt x="390" y="534" on="0"/>
        <pt x="390" y="529" on="1"/>
        <pt x="390" y="411" on="0"/>
        <pt x="390" y="175" on="0"/>
        <pt x="390" y="57" on="1"/>
        <pt x="350" y="57" on="0"/>
        <pt x="281" y="61" on="0"/>
        <pt x="240" y="74" on="0"/>
        <pt x="240" y="86" on="1"/>
        <pt x="240" y="166" on="0"/>
        <pt x="240" y="328" on="0"/>
        <pt x="240" y="410" on="1"/>
        <pt x="203" y="410" on="0"/>
        <pt x="129" y="410" on="0"/>
        <pt x="91" y="410" on="1"/>
        <pt x="80" y="410" on="0"/>
        <pt x="80" y="421" on="1"/>
        <pt x="80" y="451" on="0"/>
        <pt x="80" y="510" on="0"/>
      </contour>
      <contour>
        <pt x="60" y="130" on="1"/>
        <pt x="529" y="130" on="1"/>
        <pt x="540" y="130" on="0"/>
        <pt x="540" y="119" on="1"/>
        <pt x="540" y="88" on="0"/>
        <pt x="540" y="31" on="0"/>
        <pt x="540" y="0" on="1"/>
        <pt x="71" y="0" on="1"/>
        <pt x="67" y="0" on="0"/>
        <pt x="60" y="7" on="0"/>
        <pt x="60" y="11" on="1"/>
        <pt x="60" y="42" on="0"/>
        <pt x="60" y="99" on="0"/>
      </contour>
      <contour>
        <pt x="394" y="650" on="1"/>
        <pt x="352" y="650" on="0"/>
        <pt x="267" y="650" on="0"/>
        <pt x="225" y="650" on="1"/>
        <pt x="214" y="650" on="0"/>
        <pt x="214" y="661" on="1"/>
        <pt x="214" y="800" on="1"/>
        <pt x="256" y="800" on="0"/>
        <pt x="341" y="800" on="0"/>
        <pt x="383" y="800" on="1"/>
        <pt x="394" y="800" on="0"/>
        <pt x="394" y="789" on="1"/>
      </contour>
      <contour>
        <pt x="256" y="402" on="1"/>
        <pt x="232" y="418" on="1"/>
        <pt x="260" y="455" on="1"/>
        <pt x="275" y="452" on="1"/>
      </contour>
      <contour>
        <pt x="237" y="117" on="1"/>
        <pt x="249" y="144" on="1"/>
        <pt x="290" y="113" on="1"/>
        <pt x="287" y="100" on="1"/>
      </contour>
    </TTGlyph>
    <TTGlyph name="i.italic" xMin="50" yMin="0" xMax="550" yMax="800">
      <contour>
        <pt x="50" y="540" on="1"/>
        <pt x="130" y="540" on="0"/>
        <pt x="290" y="540" on="0"/>
        <pt x="369" y="540" on="1"/>
        <pt x="380" y="540" on="0"/>
        <pt x="380" y="529" on="1"/>
        <pt x="380" y="436" on="0"/>
        <pt x="380" y="250" on="0"/>
        <pt x="380" y="157" on="1"/>
        <pt x="380" y="143" on="0"/>
        <pt x="386" y="137" on="1"/>
        <pt x="393" y="130" on="0"/>
        <pt x="410" y="130" on="1"/>
        <pt x="440" y="130" on="0"/>
        <pt x="502" y="130" on="0"/>
        <pt x="530" y="130" on="1"/>
        <pt x="550" y="130" on="1"/>
        <pt x="550" y="100" on="0"/>
        <pt x="550" y="41" on="0"/>
        <pt x="550" y="11" on="1"/>
        <pt x="550" y="0" on="0"/>
        <pt x="539" y="0" on="1"/>
        <pt x="503" y="0" on="0"/>
        <pt x="431" y="0" on="0"/>
        <pt x="395" y="0" on="1"/>
        <pt x="337" y="0" on="0"/>
        <pt x="264" y="36" on="0"/>
        <pt x="230" y="110" on="0"/>
        <pt x="230" y="166" on="1"/>
        <pt x="230" y="227" on="0"/>
        <pt x="230" y="349" on="0"/>
        <pt x="230" y="410" on="1"/>
        <pt x="188" y="410" on="0"/>
        <pt x="103" y="410" on="0"/>
        <pt x="61" y="410" on="1"/>
        <pt x="50" y="410" on="0"/>
        <pt x="50" y="421" on="1"/>
        <pt x="50" y="451" on="0"/>
        <pt x="50" y="510" on="0"/>
      </contour>
      <contour>
        <pt x="394" y="650" on="1"/>
        <pt x="352" y="650" on="0"/>
        <pt x="267" y="650" on="0"/>
        <pt x="225" y="650" on="1"/>
        <pt x="214" y="650" on="0"/>
        <pt x="214" y="661" on="1"/>
        <pt x="214" y="800" on="1"/>
        <pt x="256" y="800" on="0"/>
        <pt x="341" y="800" on="0"/>
        <pt x="383" y="800" on="1"/>
        <pt x="394" y="800" on="0"/>
        <pt x="394" y="789" on="1"/>
      </contour>
      <contour>
        <pt x="247" y="407" on="1"/>
        <pt x="221" y="417" on="1"/>
        <pt x="254" y="470" on="1"/>
        <pt x="269" y="467" on="1"/>
      </contour>
    </TTGlyph>
    <TTGlyph name="j" xMin="20" yMin="-210" xMax="454" yMax="800">
      <contour>
        <pt x="195" y="-60" on="1"/>
        <pt x="247" y="-60" on="0"/>
        <pt x="271" y="-35" on="1"/>
        <pt x="286" y="-21" on="0"/>
        <pt x="299" y="26" on="0"/>
        <pt x="299" y="59" on="1"/>
        <pt x="299" y="144" on="0"/>
        <pt x="299" y="313" on="0"/>
        <pt x="299" y="398" on="1"/>
        <pt x="244" y="398" on="0"/>
        <pt x="136" y="398" on="0"/>
        <pt x="81" y="398" on="1"/>
        <pt x="70" y="398" on="0"/>
        <pt x="70" y="409" on="1"/>
        <pt x="70" y="442" on="0"/>
        <pt x="70" y="507" on="0"/>
        <pt x="70" y="540" on="1"/>
        <pt x="162" y="540" on="0"/>
        <pt x="346" y="540" on="0"/>
        <pt x="438" y="540" on="1"/>
        <pt x="443" y="540" on="0"/>
        <pt x="449" y="534" on="0"/>
        <pt x="449" y="529" on="1"/>
        <pt x="449" y="405" on="0"/>
        <pt x="449" y="158" on="0"/>
        <pt x="449" y="34" on="1"/>
        <pt x="449" y="-86" on="0"/>
        <pt x="322" y="-210" on="0"/>
        <pt x="195" y="-210" on="1"/>
        <pt x="132" y="-210" on="0"/>
        <pt x="34" y="-188" on="0"/>
        <pt x="23" y="-177" on="1"/>
        <pt x="20" y="-174" on="0"/>
        <pt x="20" y="-169" on="1"/>
        <pt x="20" y="-134" on="0"/>
        <pt x="20" y="-64" on="0"/>
        <pt x="20" y="-30" on="1"/>
        <pt x="40" y="-30" on="1"/>
        <pt x="78" y="-46" on="0"/>
        <pt x="154" y="-60" on="0"/>
      </contour>
      <contour>
        <pt x="454" y="650" on="1"/>
        <pt x="412" y="650" on="0"/>
        <pt x="327" y="650" on="0"/>
        <pt x="285" y="650" on="1"/>
        <pt x="274" y="650" on="0"/>
        <pt x="274" y="661" on="1"/>
        <pt x="274" y="800" on="1"/>
        <pt x="316" y="800" on="0"/>
        <pt x="401" y="800" on="0"/>
        <pt x="443" y="800" on="1"/>
        <pt x="454" y="800" on="0"/>
        <pt x="454" y="789" on="1"/>
      </contour>
      <contour>
        <pt x="312" y="393" on="1"/>
        <pt x="288" y="409" on="1"/>
        <pt x="316" y="446" on="1"/>
        <pt x="331" y="443" on="1"/>
      </contour>
    </TTGlyph>
    <TTGlyph name="j.italic" xMin="90" yMin="-210" xMax="504" yMax="800">
      <contour>
        <pt x="265" y="-80" on="1"/>
        <pt x="349" y="-80" on="0"/>
        <pt x="349" y="9" on="1"/>
        <pt x="349" y="109" on="0"/>
        <pt x="349" y="310" on="0"/>
        <pt x="349" y="410" on="1"/>
        <pt x="287" y="410" on="0"/>
        <pt x="163" y="410" on="0"/>
        <pt x="101" y="410" on="1"/>
        <pt x="90" y="410" on="0"/>
        <pt x="90" y="421" on="1"/>
        <pt x="90" y="451" on="0"/>
        <pt x="90" y="510" on="0"/>
        <pt x="90" y="540" on="1"/>
        <pt x="190" y="540" on="0"/>
        <pt x="388" y="540" on="0"/>
        <pt x="488" y="540" on="1"/>
        <pt x="499" y="540" on="0"/>
        <pt x="499" y="529" on="1"/>
        <pt x="499" y="405" on="0"/>
        <pt x="499" y="156" on="0"/>
        <pt x="499" y="28" on="1"/>
        <pt x="499" y="-84" on="0"/>
        <pt x="381" y="-210" on="0"/>
        <pt x="265" y="-210" on="1"/>
        <pt x="202" y="-210" on="0"/>
        <pt x="104" y="-188" on="0"/>
        <pt x="93" y="-177" on="1"/>
        <pt x="90" y="-174" on="0"/>
        <pt x="90" y="-169" on="1"/>
        <pt x="90" y="-145" on="0"/>
        <pt x="90" y="-82" on="0"/>
        <pt x="90" y="-22" on="0"/>
        <pt x="90" y="19" on="0"/>
        <pt x="90" y="21" on="1"/>
        <pt x="90" y="32" on="0"/>
        <pt x="101" y="32" on="1"/>
        <pt x="133" y="32" on="0"/>
        <pt x="201" y="32" on="0"/>
        <pt x="233" y="32" on="1"/>
        <pt x="233" y="12" on="1"/>
        <pt x="233" y="-15" on="0"/>
        <pt x="233" y="-66" on="0"/>
        <pt x="233" y="-77" on="1"/>
        <pt x="241" y="-78" on="0"/>
        <pt x="258" y="-80" on="0"/>
      </contour>
      <contour>
        <pt x="504" y="650" on="1"/>
        <pt x="462" y="650" on="0"/>
        <pt x="377" y="650" on="0"/>
        <pt x="335" y="650" on="1"/>
        <pt x="324" y="650" on="0"/>
        <pt x="324" y="661" on="1"/>
        <pt x="324" y="800" on="1"/>
        <pt x="366" y="800" on="0"/>
        <pt x="451" y="800" on="0"/>
        <pt x="493" y="800" on="1"/>
        <pt x="504" y="800" on="0"/>
        <pt x="504" y="789" on="1"/>
      </contour>
      <contour>
        <pt x="362" y="405" on="1"/>
        <pt x="338" y="421" on="1"/>
        <pt x="366" y="458" on="1"/>
        <pt x="381" y="455" on="1"/>
      </contour>
    </TTGlyph>
    <TTGlyph name="k" xMin="70" yMin="0" xMax="587" yMax="750">
      <contour>
        <pt x="220" y="0" on="1"/>
        <pt x="183" y="0" on="0"/>
        <pt x="119" y="0" on="0"/>
        <pt x="81" y="0" on="1"/>
        <pt x="70" y="0" on="0"/>
        <pt x="70" y="11" on="1"/>
        <pt x="70" y="171" on="0"/>
        <pt x="70" y="492" on="0"/>
        <pt x="70" y="652" on="1"/>
        <pt x="70" y="679" on="0"/>
        <pt x="70" y="729" on="0"/>
        <pt x="70" y="750" on="1"/>
        <pt x="111" y="750" on="0"/>
        <pt x="175" y="750" on="0"/>
        <pt x="209" y="750" on="1"/>
        <pt x="220" y="750" on="0"/>
        <pt x="220" y="739" on="1"/>
        <pt x="220" y="555" on="0"/>
        <pt x="220" y="185" on="0"/>
      </contour>
      <contour>
        <pt x="416" y="0" on="1"/>
        <pt x="404" y="0" on="0"/>
        <pt x="398" y="9" on="1"/>
        <pt x="392" y="17" on="0"/>
        <pt x="354" y="75" on="0"/>
        <pt x="336" y="102" on="1"/>
        <pt x="318" y="129" on="0"/>
        <pt x="299" y="179" on="0"/>
        <pt x="293" y="214" on="1"/>
        <pt x="250" y="214" on="1"/>
        <pt x="342" y="329" on="1"/>
        <pt x="405" y="244" on="0"/>
        <pt x="525" y="83" on="0"/>
        <pt x="587" y="0" on="1"/>
        <pt x="563" y="0" on="0"/>
        <pt x="517" y="0" on="0"/>
        <pt x="459" y="0" on="0"/>
      </contour>
      <contour>
        <pt x="200" y="321" on="1"/>
        <pt x="240" y="321" on="1"/>
        <pt x="251" y="365" on="0"/>
        <pt x="281" y="421" on="0"/>
        <pt x="303" y="449" on="1"/>
        <pt x="320" y="471" on="0"/>
        <pt x="351" y="511" on="0"/>
        <pt x="373" y="540" on="1"/>
        <pt x="539" y="540" on="1"/>
        <pt x="549" y="540" on="0"/>
        <pt x="549" y="531" on="1"/>
        <pt x="549" y="528" on="0"/>
        <pt x="547" y="523" on="0"/>
        <pt x="541" y="516" on="1"/>
        <pt x="479" y="446" on="0"/>
        <pt x="363" y="316" on="0"/>
        <pt x="253" y="192" on="0"/>
        <pt x="200" y="131" on="1"/>
      </contour>
    </TTGlyph>
    <TTGlyph name="k.italic" xMin="70" yMin="0" xMax="562" yMax="750">
      <contour>
        <pt x="230" y="0" on="1"/>
        <pt x="193" y="0" on="0"/>
        <pt x="119" y="0" on="0"/>
        <pt x="81" y="0" on="1"/>
        <pt x="70" y="0" on="0"/>
        <pt x="70" y="11" on="1"/>
        <pt x="70" y="171" on="0"/>
        <pt x="70" y="492" on="0"/>
        <pt x="70" y="652" on="1"/>
        <pt x="70" y="679" on="0"/>
        <pt x="70" y="729" on="0"/>
        <pt x="70" y="750" on="1"/>
        <pt x="111" y="750" on="0"/>
        <pt x="185" y="750" on="0"/>
        <pt x="219" y="750" on="1"/>
        <pt x="224" y="750" on="0"/>
        <pt x="230" y="744" on="0"/>
        <pt x="230" y="739" on="1"/>
        <pt x="230" y="555" on="0"/>
        <pt x="230" y="185" on="0"/>
      </contour>
      <contour>
        <pt x="562" y="130" on="1"/>
        <pt x="562" y="101" on="0"/>
        <pt x="562" y="42" on="0"/>
        <pt x="562" y="13" on="1"/>
        <pt x="562" y="5" on="0"/>
        <pt x="556" y="0" on="0"/>
        <pt x="548" y="0" on="1"/>
        <pt x="538" y="0" on="0"/>
        <pt x="509" y="0" on="0"/>
        <pt x="487" y="0" on="1"/>
        <pt x="448" y="0" on="0"/>
        <pt x="399" y="22" on="0"/>
        <pt x="370" y="54" on="1"/>
        <pt x="357" y="69" on="0"/>
        <pt x="318" y="112" on="0"/>
        <pt x="282" y="153" on="0"/>
        <pt x="272" y="163" on="1"/>
        <pt x="265" y="171" on="0"/>
        <pt x="263" y="179" on="0"/>
        <pt x="263" y="187" on="1"/>
        <pt x="263" y="221" on="0"/>
        <pt x="263" y="267" on="0"/>
        <pt x="263" y="301" on="1"/>
        <pt x="282" y="301" on="0"/>
        <pt x="317" y="301" on="0"/>
        <pt x="336" y="301" on="1"/>
        <pt x="363" y="301" on="0"/>
        <pt x="385" y="324" on="0"/>
        <pt x="385" y="347" on="1"/>
        <pt x="385" y="375" on="1"/>
        <pt x="385" y="385" on="0"/>
        <pt x="380" y="399" on="0"/>
        <pt x="374" y="405" on="1"/>
        <pt x="362" y="417" on="0"/>
        <pt x="338" y="417" on="1"/>
        <pt x="306" y="417" on="0"/>
        <pt x="243" y="370" on="0"/>
        <pt x="213" y="328" on="1"/>
        <pt x="208" y="351" on="0"/>
        <pt x="226" y="411" on="0"/>
        <pt x="241" y="439" on="1"/>
        <pt x="273" y="498" on="0"/>
        <pt x="360" y="552" on="0"/>
        <pt x="409" y="552" on="1"/>
        <pt x="451" y="552" on="0"/>
        <pt x="512" y="518" on="0"/>
        <pt x="545" y="454" on="0"/>
        <pt x="545" y="408" on="1"/>
        <pt x="545" y="370" on="1"/>
        <pt x="545" y="308" on="0"/>
        <pt x="481" y="245" on="0"/>
        <pt x="414" y="245" on="1"/>
        <pt x="410" y="245" on="0"/>
        <pt x="401" y="245" on="0"/>
        <pt x="396" y="245" on="1"/>
        <pt x="391" y="234" on="1"/>
        <pt x="402" y="221" on="0"/>
        <pt x="435" y="187" on="0"/>
        <pt x="465" y="156" on="0"/>
        <pt x="472" y="148" on="1"/>
        <pt x="483" y="137" on="0"/>
        <pt x="495" y="130" on="0"/>
        <pt x="508" y="130" on="1"/>
        <pt x="522" y="130" on="0"/>
        <pt x="534" y="130" on="0"/>
        <pt x="539" y="130" on="1"/>
      </contour>
      <contour>
        <pt x="209" y="454" on="1"/>
        <pt x="265" y="454" on="1"/>
        <pt x="192" y="320" on="1"/>
        <pt x="168" y="323" on="1"/>
      </contour>
      <contour>
        <pt x="399" y="263" on="1"/>
        <pt x="399" y="212" on="1"/>
        <pt x="380" y="212" on="1"/>
        <pt x="380" y="263" on="1"/>
      </contour>
    </TTGlyph>
    <TTGlyph name="l" xMin="60" yMin="0" xMax="540" yMax="750">
      <contour>
        <pt x="80" y="750" on="1"/>
        <pt x="155" y="750" on="0"/>
        <pt x="304" y="750" on="0"/>
        <pt x="379" y="750" on="1"/>
        <pt x="390" y="750" on="0"/>
        <pt x="390" y="739" on="1"/>
        <pt x="390" y="570" on="0"/>
        <pt x="390" y="234" on="0"/>
        <pt x="390" y="65" on="1"/>
        <pt x="350" y="65" on="0"/>
        <pt x="281" y="70" on="0"/>
        <pt x="240" y="82" on="0"/>
        <pt x="240" y="94" on="1"/>
        <pt x="240" y="225" on="0"/>
        <pt x="240" y="489" on="0"/>
        <pt x="240" y="620" on="1"/>
        <pt x="203" y="620" on="0"/>
        <pt x="129" y="620" on="0"/>
        <pt x="91" y="620" on="1"/>
        <pt x="80" y="620" on="0"/>
        <pt x="80" y="631" on="1"/>
        <pt x="80" y="661" on="0"/>
        <pt x="80" y="720" on="0"/>
      </contour>
      <contour>
        <pt x="60" y="130" on="1"/>
        <pt x="529" y="130" on="1"/>
        <pt x="540" y="130" on="0"/>
        <pt x="540" y="119" on="1"/>
        <pt x="540" y="88" on="0"/>
        <pt x="540" y="31" on="0"/>
        <pt x="540" y="0" on="1"/>
        <pt x="71" y="0" on="1"/>
        <pt x="67" y="0" on="0"/>
        <pt x="60" y="7" on="0"/>
        <pt x="60" y="11" on="1"/>
        <pt x="60" y="42" on="0"/>
        <pt x="60" y="99" on="0"/>
      </contour>
      <contour>
        <pt x="256" y="612" on="1"/>
        <pt x="232" y="628" on="1"/>
        <pt x="260" y="665" on="1"/>
        <pt x="275" y="662" on="1"/>
      </contour>
      <contour>
        <pt x="246" y="117" on="1"/>
        <pt x="258" y="144" on="1"/>
        <pt x="299" y="113" on="1"/>
        <pt x="296" y="108" on="1"/>
      </contour>
    </TTGlyph>
    <TTGlyph name="l.italic" xMin="50" yMin="0" xMax="550" yMax="750">
      <contour>
        <pt x="50" y="750" on="1"/>
        <pt x="130" y="750" on="0"/>
        <pt x="290" y="750" on="0"/>
        <pt x="369" y="750" on="1"/>
        <pt x="380" y="750" on="0"/>
        <pt x="380" y="739" on="1"/>
        <pt x="380" y="594" on="0"/>
        <pt x="380" y="303" on="0"/>
        <pt x="380" y="157" on="1"/>
        <pt x="380" y="143" on="0"/>
        <pt x="386" y="137" on="1"/>
        <pt x="393" y="130" on="0"/>
        <pt x="410" y="130" on="1"/>
        <pt x="440" y="130" on="0"/>
        <pt x="502" y="130" on="0"/>
        <pt x="530" y="130" on="1"/>
        <pt x="550" y="130" on="1"/>
        <pt x="550" y="100" on="0"/>
        <pt x="550" y="41" on="0"/>
        <pt x="550" y="11" on="1"/>
        <pt x="550" y="0" on="0"/>
        <pt x="539" y="0" on="1"/>
        <pt x="503" y="0" on="0"/>
        <pt x="431" y="0" on="0"/>
        <pt x="395" y="0" on="1"/>
        <pt x="337" y="0" on="0"/>
        <pt x="264" y="34" on="0"/>
        <pt x="230" y="102" on="0"/>
        <pt x="230" y="154" on="1"/>
        <pt x="230" y="270" on="0"/>
        <pt x="230" y="504" on="0"/>
        <pt x="230" y="620" on="1"/>
        <pt x="188" y="620" on="0"/>
        <pt x="103" y="620" on="0"/>
        <pt x="61" y="620" on="1"/>
        <pt x="50" y="620" on="0"/>
        <pt x="50" y="631" on="1"/>
        <pt x="50" y="661" on="0"/>
        <pt x="50" y="720" on="0"/>
      </contour>
      <contour>
        <pt x="247" y="617" on="1"/>
        <pt x="221" y="627" on="1"/>
        <pt x="254" y="680" on="1"/>
        <pt x="269" y="677" on="1"/>
      </contour>
    </TTGlyph>
    <TTGlyph name="m" xMin="30" yMin="0" xMax="570" yMax="552">
      <contour>
        <pt x="165" y="0" on="1"/>
        <pt x="134" y="0" on="0"/>
        <pt x="72" y="0" on="0"/>
        <pt x="41" y="0" on="1"/>
        <pt x="30" y="0" on="0"/>
        <pt x="30" y="11" on="1"/>
        <pt x="30" y="118" on="0"/>
        <pt x="30" y="333" on="0"/>
        <pt x="30" y="440" on="1"/>
        <pt x="30" y="465" on="0"/>
        <pt x="30" y="515" on="0"/>
        <pt x="30" y="540" on="1"/>
        <pt x="53" y="540" on="0"/>
        <pt x="102" y="540" on="0"/>
        <pt x="125" y="540" on="1"/>
        <pt x="125" y="540" on="0"/>
        <pt x="138" y="503" on="0"/>
        <pt x="153" y="455" on="0"/>
        <pt x="165" y="418" on="0"/>
        <pt x="165" y="418" on="1"/>
        <pt x="165" y="314" on="0"/>
        <pt x="165" y="104" on="0"/>
      </contour>
      <contour>
        <pt x="360" y="0" on="1"/>
        <pt x="334" y="0" on="0"/>
        <pt x="278" y="0" on="0"/>
        <pt x="256" y="0" on="1"/>
        <pt x="245" y="0" on="0"/>
        <pt x="245" y="11" on="1"/>
        <pt x="245" y="102" on="0"/>
        <pt x="245" y="283" on="0"/>
        <pt x="245" y="374" on="1"/>
        <pt x="245" y="393" on="0"/>
        <pt x="230" y="404" on="0"/>
        <pt x="218" y="404" on="1"/>
        <pt x="204" y="404" on="0"/>
        <pt x="170" y="389" on="0"/>
        <pt x="151" y="369" on="1"/>
        <pt x="151" y="379" on="0"/>
        <pt x="156" y="412" on="0"/>
        <pt x="163" y="447" on="0"/>
        <pt x="167" y="458" on="1"/>
        <pt x="183" y="504" on="0"/>
        <pt x="235" y="552" on="0"/>
        <pt x="275" y="552" on="1"/>
        <pt x="312" y="552" on="0"/>
        <pt x="360" y="500" on="0"/>
        <pt x="360" y="455" on="1"/>
        <pt x="360" y="397" on="0"/>
        <pt x="360" y="181" on="0"/>
      </contour>
      <contour>
        <pt x="570" y="0" on="1"/>
        <pt x="540" y="0" on="0"/>
        <pt x="477" y="1" on="0"/>
        <pt x="451" y="0" on="1"/>
        <pt x="440" y="0" on="0"/>
        <pt x="440" y="11" on="1"/>
        <pt x="440" y="102" on="0"/>
        <pt x="440" y="283" on="0"/>
        <pt x="440" y="374" on="1"/>
        <pt x="440" y="393" on="0"/>
        <pt x="425" y="404" on="0"/>
        <pt x="413" y="404" on="1"/>
        <pt x="400" y="404" on="0"/>
        <pt x="369" y="388" on="0"/>
        <pt x="351" y="369" on="1"/>
        <pt x="353" y="382" on="0"/>
        <pt x="369" y="430" on="0"/>
        <pt x="379" y="458" on="1"/>
        <pt x="396" y="500" on="0"/>
        <pt x="445" y="552" on="0"/>
        <pt x="484" y="552" on="1"/>
        <pt x="522" y="552" on="0"/>
        <pt x="570" y="501" on="0"/>
        <pt x="570" y="455" on="1"/>
        <pt x="570" y="366" on="0"/>
        <pt x="570" y="188" on="0"/>
        <pt x="570" y="100" on="1"/>
        <pt x="570" y="75" on="0"/>
        <pt x="570" y="25" on="0"/>
      </contour>
      <contour>
        <pt x="139" y="464" on="1"/>
        <pt x="195" y="464" on="1"/>
        <pt x="132" y="330" on="1"/>
        <pt x="108" y="333" on="1"/>
      </contour>
      <contour>
        <pt x="339" y="464" on="1"/>
        <pt x="395" y="464" on="1"/>
        <pt x="332" y="330" on="1"/>
        <pt x="308" y="333" on="1"/>
      </contour>
    </TTGlyph>
    <TTGlyph name="m.italic" xMin="30" yMin="0" xMax="600" yMax="552">
      <contour>
        <pt x="165" y="0" on="1"/>
        <pt x="134" y="0" on="0"/>
        <pt x="72" y="0" on="0"/>
        <pt x="41" y="0" on="1"/>
        <pt x="30" y="0" on="0"/>
        <pt x="30" y="11" on="1"/>
        <pt x="30" y="118" on="0"/>
        <pt x="30" y="333" on="0"/>
        <pt x="30" y="440" on="1"/>
        <pt x="30" y="465" on="0"/>
        <pt x="30" y="515" on="0"/>
        <pt x="30" y="540" on="1"/>
        <pt x="53" y="540" on="0"/>
        <pt x="102" y="540" on="0"/>
        <pt x="125" y="540" on="1"/>
        <pt x="125" y="540" on="0"/>
        <pt x="138" y="503" on="0"/>
        <pt x="153" y="455" on="0"/>
        <pt x="165" y="418" on="0"/>
        <pt x="165" y="418" on="1"/>
        <pt x="165" y="314" on="0"/>
        <pt x="165" y="104" on="0"/>
      </contour>
      <contour>
        <pt x="360" y="0" on="1"/>
        <pt x="334" y="0" on="0"/>
        <pt x="278" y="0" on="0"/>
        <pt x="256" y="0" on="1"/>
        <pt x="245" y="0" on="0"/>
        <pt x="245" y="11" on="1"/>
        <pt x="245" y="102" on="0"/>
        <pt x="245" y="283" on="0"/>
        <pt x="245" y="374" on="1"/>
        <pt x="245" y="393" on="0"/>
        <pt x="230" y="404" on="0"/>
        <pt x="218" y="404" on="1"/>
        <pt x="204" y="404" on="0"/>
        <pt x="170" y="389" on="0"/>
        <pt x="151" y="369" on="1"/>
        <pt x="151" y="383" on="0"/>
        <pt x="161" y="441" on="0"/>
        <pt x="167" y="458" on="1"/>
        <pt x="183" y="504" on="0"/>
        <pt x="235" y="552" on="0"/>
        <pt x="275" y="552" on="1"/>
        <pt x="312" y="552" on="0"/>
        <pt x="360" y="500" on="0"/>
        <pt x="360" y="455" on="1"/>
        <pt x="360" y="397" on="0"/>
        <pt x="360" y="181" on="0"/>
      </contour>
      <contour>
        <pt x="440" y="94" on="1"/>
        <pt x="440" y="165" on="0"/>
        <pt x="440" y="304" on="0"/>
        <pt x="440" y="374" on="1"/>
        <pt x="440" y="393" on="0"/>
        <pt x="425" y="404" on="0"/>
        <pt x="413" y="404" on="1"/>
        <pt x="400" y="404" on="0"/>
        <pt x="369" y="388" on="0"/>
        <pt x="351" y="369" on="1"/>
        <pt x="353" y="382" on="0"/>
        <pt x="369" y="430" on="0"/>
        <pt x="379" y="458" on="1"/>
        <pt x="396" y="500" on="0"/>
        <pt x="445" y="552" on="0"/>
        <pt x="484" y="552" on="1"/>
        <pt x="522" y="552" on="0"/>
        <pt x="570" y="501" on="0"/>
        <pt x="570" y="455" on="1"/>
        <pt x="570" y="376" on="0"/>
        <pt x="570" y="220" on="0"/>
        <pt x="570" y="141" on="1"/>
        <pt x="570" y="136" on="0"/>
        <pt x="573" y="133" on="1"/>
        <pt x="576" y="130" on="0"/>
        <pt x="581" y="130" on="1"/>
        <pt x="583" y="130" on="0"/>
        <pt x="587" y="130" on="0"/>
        <pt x="589" y="130" on="1"/>
        <pt x="600" y="130" on="1"/>
        <pt x="600" y="100" on="0"/>
        <pt x="600" y="41" on="0"/>
        <pt x="600" y="11" on="1"/>
        <pt x="600" y="0" on="0"/>
        <pt x="589" y="0" on="1"/>
        <pt x="585" y="0" on="0"/>
        <pt x="548" y="0" on="0"/>
        <pt x="534" y="0" on="1"/>
        <pt x="502" y="0" on="0"/>
        <pt x="460" y="23" on="0"/>
        <pt x="440" y="66" on="0"/>
      </contour>
      <contour>
        <pt x="139" y="464" on="1"/>
        <pt x="195" y="464" on="1"/>
        <pt x="132" y="330" on="1"/>
        <pt x="108" y="333" on="1"/>
      </contour>
      <contour>
        <pt x="339" y="464" on="1"/>
        <pt x="395" y="464" on="1"/>
        <pt x="332" y="330" on="1"/>
        <pt x="308" y="333" on="1"/>
      </contour>
    </TTGlyph>
    <TTGlyph name="n" xMin="70" yMin="0" xMax="540" yMax="552">
      <contour>
        <pt x="540" y="0" on="1"/>
        <pt x="503" y="0" on="0"/>
        <pt x="429" y="0" on="0"/>
        <pt x="391" y="0" on="1"/>
        <pt x="380" y="0" on="0"/>
        <pt x="380" y="11" on="1"/>
        <pt x="380" y="99" on="0"/>
        <pt x="380" y="275" on="0"/>
        <pt x="380" y="363" on="1"/>
        <pt x="380" y="383" on="0"/>
        <pt x="358" y="407" on="0"/>
        <pt x="338" y="407" on="1"/>
        <pt x="306" y="407" on="0"/>
        <pt x="241" y="367" on="0"/>
        <pt x="213" y="328" on="1"/>
        <pt x="208" y="351" on="0"/>
        <pt x="225" y="411" on="0"/>
        <pt x="241" y="439" on="1"/>
        <pt x="270" y="489" on="0"/>
        <pt x="344" y="552" on="0"/>
        <pt x="398" y="552" on="1"/>
        <pt x="439" y="552" on="0"/>
        <pt x="503" y="516" on="0"/>
        <pt x="540" y="447" on="0"/>
        <pt x="540" y="397" on="1"/>
        <pt x="540" y="324" on="0"/>
        <pt x="540" y="174" on="0"/>
        <pt x="540" y="99" on="1"/>
        <pt x="540" y="74" on="0"/>
        <pt x="540" y="25" on="0"/>
      </contour>
      <contour>
        <pt x="230" y="0" on="1"/>
        <pt x="193" y="0" on="0"/>
        <pt x="119" y="0" on="0"/>
        <pt x="81" y="0" on="1"/>
        <pt x="70" y="0" on="0"/>
        <pt x="70" y="11" on="1"/>
        <pt x="70" y="119" on="0"/>
        <pt x="70" y="334" on="0"/>
        <pt x="70" y="442" on="1"/>
        <pt x="70" y="469" on="0"/>
        <pt x="70" y="519" on="0"/>
        <pt x="70" y="540" on="1"/>
        <pt x="111" y="540" on="0"/>
        <pt x="185" y="540" on="0"/>
        <pt x="219" y="540" on="1"/>
        <pt x="224" y="540" on="0"/>
        <pt x="230" y="534" on="0"/>
        <pt x="230" y="529" on="1"/>
        <pt x="230" y="397" on="0"/>
        <pt x="230" y="132" on="0"/>
      </contour>
      <contour>
        <pt x="209" y="454" on="1"/>
        <pt x="265" y="454" on="1"/>
        <pt x="192" y="320" on="1"/>
        <pt x="168" y="323" on="1"/>
      </contour>
    </TTGlyph>
    <TTGlyph name="n.italic" xMin="70" yMin="0" xMax="580" yMax="552">
      <contour>
        <pt x="230" y="0" on="1"/>
        <pt x="193" y="0" on="0"/>
        <pt x="119" y="0" on="0"/>
        <pt x="81" y="0" on="1"/>
        <pt x="70" y="0" on="0"/>
        <pt x="70" y="11" on="1"/>
        <pt x="70" y="119" on="0"/>
        <pt x="70" y="334" on="0"/>
        <pt x="70" y="442" on="1"/>
        <pt x="70" y="469" on="0"/>
        <pt x="70" y="519" on="0"/>
        <pt x="70" y="540" on="1"/>
        <pt x="111" y="540" on="0"/>
        <pt x="185" y="540" on="0"/>
        <pt x="219" y="540" on="1"/>
        <pt x="230" y="540" on="0"/>
        <pt x="230" y="529" on="1"/>
        <pt x="230" y="397" on="0"/>
        <pt x="230" y="132" on="0"/>
      </contour>
      <contour>
        <pt x="395" y="552" on="1"/>
        <pt x="453" y="552" on="0"/>
        <pt x="530" y="472" on="0"/>
        <pt x="530" y="400" on="1"/>
        <pt x="530" y="339" on="0"/>
        <pt x="530" y="203" on="0"/>
        <pt x="530" y="141" on="1"/>
        <pt x="530" y="136" on="0"/>
        <pt x="533" y="133" on="1"/>
        <pt x="536" y="130" on="0"/>
        <pt x="541" y="130" on="1"/>
        <pt x="546" y="130" on="0"/>
        <pt x="555" y="130" on="0"/>
        <pt x="560" y="130" on="1"/>
        <pt x="580" y="130" on="1"/>
        <pt x="580" y="97" on="0"/>
        <pt x="580" y="44" on="0"/>
        <pt x="580" y="11" on="1"/>
        <pt x="580" y="0" on="0"/>
        <pt x="569" y="0" on="1"/>
        <pt x="564" y="0" on="0"/>
        <pt x="513" y="0" on="0"/>
        <pt x="494" y="0" on="1"/>
        <pt x="451" y="0" on="0"/>
        <pt x="396" y="30" on="0"/>
        <pt x="370" y="86" on="0"/>
        <pt x="370" y="124" on="1"/>
        <pt x="370" y="186" on="0"/>
        <pt x="370" y="310" on="0"/>
        <pt x="370" y="371" on="1"/>
        <pt x="370" y="407" on="0"/>
        <pt x="334" y="407" on="1"/>
        <pt x="270" y="407" on="0"/>
        <pt x="213" y="328" on="1"/>
        <pt x="208" y="351" on="0"/>
        <pt x="226" y="411" on="0"/>
        <pt x="241" y="439" on="1"/>
        <pt x="273" y="497" on="0"/>
        <pt x="352" y="552" on="0"/>
      </contour>
      <contour>
        <pt x="209" y="454" on="1"/>
        <pt x="265" y="454" on="1"/>
        <pt x="192" y="320" on="1"/>
        <pt x="168" y="323" on="1"/>
      </contour>
    </TTGlyph>
    <TTGlyph name="o" xMin="53" yMin="-12" xMax="547" yMax="552">
      <contour>
        <pt x="300" y="552" on="1"/>
        <pt x="373" y="552" on="0"/>
        <pt x="484" y="493" on="0"/>
        <pt x="547" y="388" on="0"/>
        <pt x="547" y="319" on="1"/>
        <pt x="547" y="221" on="1"/>
        <pt x="547" y="152" on="0"/>
        <pt x="485" y="47" on="0"/>
        <pt x="374" y="-12" on="0"/>
        <pt x="300" y="-12" on="1"/>
        <pt x="227" y="-12" on="0"/>
        <pt x="115" y="47" on="0"/>
        <pt x="53" y="152" on="0"/>
        <pt x="53" y="221" on="1"/>
        <pt x="53" y="319" on="1"/>
        <pt x="53" y="388" on="0"/>
        <pt x="115" y="493" on="0"/>
        <pt x="227" y="552" on="0"/>
      </contour>
      <contour>
        <pt x="300" y="422" on="1"/>
        <pt x="254" y="422" on="0"/>
        <pt x="203" y="368" on="0"/>
        <pt x="203" y="317" on="1"/>
        <pt x="203" y="223" on="1"/>
        <pt x="203" y="170" on="0"/>
        <pt x="230" y="143" on="1"/>
        <pt x="255" y="118" on="0"/>
        <pt x="300" y="118" on="1"/>
        <pt x="347" y="118" on="0"/>
        <pt x="397" y="172" on="0"/>
        <pt x="397" y="223" on="1"/>
        <pt x="397" y="317" on="1"/>
        <pt x="397" y="374" on="0"/>
        <pt x="372" y="399" on="1"/>
        <pt x="349" y="422" on="0"/>
      </contour>
    </TTGlyph>
    <TTGlyph name="p" xMin="70" yMin="-200" xMax="545" yMax="552">
      <contour>
        <pt x="225" y="-200" on="1"/>
        <pt x="189" y="-200" on="0"/>
        <pt x="117" y="-200" on="0"/>
        <pt x="81" y="-200" on="1"/>
        <pt x="70" y="-200" on="0"/>
        <pt x="70" y="-189" on="1"/>
        <pt x="70" y="-32" on="0"/>
        <pt x="70" y="282" on="0"/>
        <pt x="70" y="439" on="1"/>
        <pt x="70" y="468" on="0"/>
        <pt x="70" y="518" on="0"/>
        <pt x="70" y="540" on="1"/>
        <pt x="106" y="540" on="0"/>
        <pt x="178" y="540" on="0"/>
        <pt x="214" y="540" on="1"/>
        <pt x="219" y="540" on="0"/>
        <pt x="225" y="534" on="0"/>
        <pt x="225" y="529" on="1"/>
        <pt x="225" y="347" on="0"/>
        <pt x="225" y="-18" on="0"/>
      </contour>
      <contour>
        <pt x="382" y="552" on="1"/>
        <pt x="432" y="552" on="0"/>
        <pt x="505" y="506" on="0"/>
        <pt x="545" y="419" on="0"/>
        <pt x="545" y="358" on="1"/>
        <pt x="545" y="184" on="1"/>
        <pt x="545" y="92" on="0"/>
        <pt x="457" y="-10" on="0"/>
        <pt x="382" y="-10" on="1"/>
        <pt x="334" y="-10" on="0"/>
        <pt x="253" y="50" on="0"/>
        <pt x="230" y="93" on="1"/>
        <pt x="210" y="131" on="0"/>
        <pt x="198" y="169" on="0"/>
        <pt x="205" y="183" on="0"/>
        <pt x="213" y="184" on="1"/>
        <pt x="239" y="161" on="0"/>
        <pt x="296" y="135" on="0"/>
        <pt x="326" y="135" on="1"/>
        <pt x="390" y="135" on="0"/>
        <pt x="390" y="209" on="1"/>
        <pt x="390" y="333" on="1"/>
        <pt x="390" y="374" on="0"/>
        <pt x="373" y="391" on="1"/>
        <pt x="357" y="407" on="0"/>
        <pt x="326" y="407" on="1"/>
        <pt x="298" y="407" on="0"/>
        <pt x="240" y="366" on="0"/>
        <pt x="214" y="331" on="1"/>
        <pt x="197" y="336" on="0"/>
        <pt x="217" y="394" on="0"/>
        <pt x="234" y="440" on="1"/>
        <pt x="254" y="493" on="0"/>
        <pt x="332" y="552" on="0"/>
      </contour>
      <contour>
        <pt x="214" y="461" on="1"/>
        <pt x="252" y="461" on="1"/>
        <pt x="203" y="367" on="1"/>
        <pt x="188" y="370" on="1"/>
      </contour>
      <contour>
        <pt x="218" y="72" on="1"/>
        <pt x="196" y="128" on="1"/>
        <pt x="218" y="131" on="1"/>
        <pt x="253" y="72" on="1"/>
      </contour>
    </TTGlyph>
    <TTGlyph name="q" xMin="55" yMin="-200" xMax="530" yMax="552">
      <contour>
        <pt x="218" y="552" on="1"/>
        <pt x="266" y="552" on="0"/>
        <pt x="347" y="492" on="0"/>
        <pt x="370" y="449" on="1"/>
        <pt x="391" y="412" on="0"/>
        <pt x="402" y="373" on="0"/>
        <pt x="395" y="359" on="0"/>
        <pt x="387" y="358" on="1"/>
        <pt x="361" y="381" on="0"/>
        <pt x="304" y="407" on="0"/>
        <pt x="274" y="407" on="1"/>
        <pt x="210" y="407" on="0"/>
        <pt x="210" y="333" on="1"/>
        <pt x="210" y="209" on="1"/>
        <pt x="210" y="188" on="0"/>
        <pt x="219" y="159" on="0"/>
        <pt x="227" y="151" on="1"/>
        <pt x="243" y="135" on="0"/>
        <pt x="274" y="135" on="1"/>
        <pt x="303" y="135" on="0"/>
        <pt x="361" y="177" on="0"/>
        <pt x="386" y="211" on="1"/>
        <pt x="403" y="206" on="0"/>
        <pt x="383" y="149" on="0"/>
        <pt x="366" y="102" on="1"/>
        <pt x="347" y="50" on="0"/>
        <pt x="268" y="-10" on="0"/>
        <pt x="218" y="-10" on="1"/>
        <pt x="168" y="-10" on="0"/>
        <pt x="95" y="36" on="0"/>
        <pt x="55" y="123" on="0"/>
        <pt x="55" y="184" on="1"/>
        <pt x="55" y="358" on="1"/>
        <pt x="55" y="450" on="0"/>
        <pt x="143" y="552" on="0"/>
      </contour>
      <contour>
        <pt x="375" y="540" on="1"/>
        <pt x="411" y="540" on="0"/>
        <pt x="483" y="540" on="0"/>
        <pt x="519" y="540" on="1"/>
        <pt x="524" y="540" on="0"/>
        <pt x="530" y="534" on="0"/>
        <pt x="530" y="529" on="1"/>
        <pt x="530" y="384" on="0"/>
        <pt x="530" y="94" on="0"/>
        <pt x="530" y="-51" on="1"/>
        <pt x="530" y="-88" on="0"/>
        <pt x="530" y="-162" on="0"/>
        <pt x="530" y="-200" on="1"/>
        <pt x="494" y="-200" on="0"/>
        <pt x="422" y="-200" on="0"/>
        <pt x="386" y="-200" on="1"/>
        <pt x="382" y="-200" on="0"/>
        <pt x="375" y="-193" on="0"/>
        <pt x="375" y="-189" on="1"/>
        <pt x="375" y="-84" on="0"/>
        <pt x="375" y="126" on="0"/>
        <pt x="375" y="336" on="0"/>
        <pt x="375" y="440" on="1"/>
        <pt x="375" y="465" on="0"/>
        <pt x="375" y="515" on="0"/>
      </contour>
      <contour>
        <pt x="382" y="470" on="1"/>
        <pt x="404" y="414" on="1"/>
        <pt x="382" y="411" on="1"/>
        <pt x="347" y="470" on="1"/>
      </contour>
      <contour>
        <pt x="386" y="85" on="1"/>
        <pt x="343" y="85" on="1"/>
        <pt x="397" y="179" on="1"/>
        <pt x="412" y="176" on="1"/>
      </contour>
    </TTGlyph>
    <TTGlyph name="r" xMin="60" yMin="0" xMax="562" yMax="550">
      <contour>
        <pt x="330" y="60" on="1"/>
        <pt x="276" y="60" on="0"/>
        <pt x="214" y="62" on="0"/>
        <pt x="187" y="65" on="0"/>
        <pt x="180" y="69" on="0"/>
        <pt x="180" y="71" on="1"/>
        <pt x="180" y="156" on="0"/>
        <pt x="180" y="326" on="0"/>
        <pt x="180" y="410" on="1"/>
        <pt x="154" y="410" on="0"/>
        <pt x="102" y="410" on="0"/>
        <pt x="76" y="410" on="1"/>
        <pt x="65" y="410" on="0"/>
        <pt x="65" y="421" on="1"/>
        <pt x="65" y="451" on="0"/>
        <pt x="65" y="510" on="0"/>
        <pt x="65" y="540" on="1"/>
        <pt x="88" y="540" on="0"/>
        <pt x="157" y="540" on="0"/>
        <pt x="241" y="540" on="0"/>
        <pt x="284" y="540" on="1"/>
        <pt x="284" y="540" on="0"/>
        <pt x="294" y="513" on="0"/>
        <pt x="307" y="472" on="0"/>
        <pt x="321" y="432" on="0"/>
        <pt x="330" y="404" on="0"/>
        <pt x="330" y="404" on="1"/>
        <pt x="330" y="318" on="0"/>
        <pt x="330" y="146" on="0"/>
      </contour>
      <contour>
        <pt x="60" y="130" on="1"/>
        <pt x="479" y="130" on="1"/>
        <pt x="490" y="130" on="0"/>
        <pt x="490" y="119" on="1"/>
        <pt x="490" y="88" on="0"/>
        <pt x="490" y="31" on="0"/>
        <pt x="490" y="0" on="1"/>
        <pt x="71" y="0" on="1"/>
        <pt x="67" y="0" on="0"/>
        <pt x="60" y="7" on="0"/>
        <pt x="60" y="11" on="1"/>
        <pt x="60" y="42" on="0"/>
        <pt x="60" y="99" on="0"/>
      </contour>
      <contour>
        <pt x="458" y="392" on="1"/>
        <pt x="417" y="392" on="0"/>
        <pt x="337" y="359" on="0"/>
        <pt x="312" y="328" on="1"/>
        <pt x="307" y="351" on="0"/>
        <pt x="325" y="407" on="0"/>
        <pt x="334" y="429" on="1"/>
        <pt x="357" y="482" on="0"/>
        <pt x="439" y="550" on="0"/>
        <pt x="501" y="550" on="1"/>
        <pt x="524" y="550" on="0"/>
        <pt x="553" y="542" on="0"/>
        <pt x="559" y="536" on="1"/>
        <pt x="562" y="533" on="0"/>
        <pt x="562" y="526" on="1"/>
        <pt x="562" y="490" on="0"/>
        <pt x="562" y="415" on="0"/>
        <pt x="562" y="380" on="1"/>
        <pt x="542" y="380" on="1"/>
        <pt x="518" y="387" on="0"/>
        <pt x="481" y="392" on="0"/>
      </contour>
      <contour>
        <pt x="193" y="408" on="1"/>
        <pt x="167" y="415" on="1"/>
        <pt x="196" y="455" on="1"/>
        <pt x="211" y="452" on="1"/>
      </contour>
      <contour>
        <pt x="298" y="434" on="1"/>
        <pt x="354" y="434" on="1"/>
        <pt x="281" y="293" on="1"/>
        <pt x="257" y="296" on="1"/>
      </contour>
      <contour>
        <pt x="174" y="115" on="1"/>
        <pt x="188" y="142" on="1"/>
        <pt x="226" y="111" on="1"/>
        <pt x="223" y="96" on="1"/>
      </contour>
    </TTGlyph>
    <TTGlyph name="r.italic" xMin="55" yMin="0" xMax="552" yMax="550">
      <contour>
        <pt x="305" y="0" on="1"/>
        <pt x="271" y="0" on="0"/>
        <pt x="201" y="0" on="0"/>
        <pt x="166" y="0" on="1"/>
        <pt x="155" y="0" on="0"/>
        <pt x="155" y="11" on="1"/>
        <pt x="155" y="52" on="0"/>
        <pt x="155" y="155" on="0"/>
        <pt x="155" y="266" on="0"/>
        <pt x="155" y="369" on="0"/>
        <pt x="155" y="410" on="1"/>
        <pt x="133" y="410" on="0"/>
        <pt x="89" y="410" on="0"/>
        <pt x="66" y="410" on="1"/>
        <pt x="55" y="410" on="0"/>
        <pt x="55" y="421" on="1"/>
        <pt x="55" y="451" on="0"/>
        <pt x="55" y="510" on="0"/>
        <pt x="55" y="540" on="1"/>
        <pt x="78" y="540" on="0"/>
        <pt x="119" y="540" on="0"/>
        <pt x="157" y="540" on="0"/>
        <pt x="195" y="540" on="0"/>
        <pt x="236" y="540" on="0"/>
        <pt x="259" y="540" on="1"/>
        <pt x="259" y="540" on="0"/>
        <pt x="269" y="513" on="0"/>
        <pt x="282" y="472" on="0"/>
        <pt x="296" y="432" on="0"/>
        <pt x="305" y="404" on="0"/>
        <pt x="305" y="404" on="1"/>
        <pt x="305" y="363" on="0"/>
        <pt x="305" y="260" on="0"/>
        <pt x="305" y="150" on="0"/>
        <pt x="305" y="98" on="1"/>
        <pt x="305" y="71" on="0"/>
        <pt x="305" y="22" on="0"/>
      </contour>
      <contour>
        <pt x="413" y="401" on="1"/>
        <pt x="386" y="401" on="0"/>
        <pt x="313" y="359" on="0"/>
        <pt x="287" y="316" on="1"/>
        <pt x="288" y="351" on="0"/>
        <pt x="300" y="407" on="0"/>
        <pt x="309" y="429" on="1"/>
        <pt x="332" y="485" on="0"/>
        <pt x="411" y="550" on="0"/>
        <pt x="469" y="550" on="1"/>
        <pt x="502" y="550" on="0"/>
        <pt x="542" y="538" on="0"/>
        <pt x="549" y="531" on="1"/>
        <pt x="551" y="530" on="0"/>
        <pt x="552" y="524" on="0"/>
        <pt x="552" y="522" on="1"/>
        <pt x="552" y="330" on="1"/>
        <pt x="552" y="319" on="0"/>
        <pt x="541" y="319" on="1"/>
        <pt x="510" y="319" on="0"/>
        <pt x="448" y="319" on="0"/>
        <pt x="417" y="319" on="1"/>
        <pt x="417" y="339" on="1"/>
        <pt x="417" y="354" on="0"/>
        <pt x="417" y="386" on="0"/>
        <pt x="417" y="401" on="1"/>
        <pt x="416" y="401" on="0"/>
        <pt x="415" y="401" on="0"/>
      </contour>
      <contour>
        <pt x="168" y="408" on="1"/>
        <pt x="142" y="415" on="1"/>
        <pt x="171" y="455" on="1"/>
        <pt x="186" y="452" on="1"/>
      </contour>
      <contour>
        <pt x="273" y="434" on="1"/>
        <pt x="329" y="434" on="1"/>
        <pt x="256" y="293" on="1"/>
        <pt x="232" y="296" on="1"/>
      </contour>
    </TTGlyph>
    <TTGlyph name="s" xMin="73" yMin="-9" xMax="536" yMax="549">
      <contour>
        <pt x="295" y="131" on="1"/>
        <pt x="351" y="131" on="0"/>
        <pt x="389" y="156" on="0"/>
        <pt x="389" y="177" on="1"/>
        <pt x="389" y="193" on="0"/>
        <pt x="367" y="213" on="0"/>
        <pt x="333" y="217" on="1"/>
        <pt x="229" y="231" on="1"/>
        <pt x="156" y="241" on="0"/>
        <pt x="83" y="311" on="0"/>
        <pt x="83" y="368" on="1"/>
        <pt x="83" y="455" on="0"/>
        <pt x="217" y="549" on="0"/>
        <pt x="327" y="549" on="1"/>
        <pt x="404" y="549" on="0"/>
        <pt x="489" y="527" on="0"/>
        <pt x="498" y="518" on="1"/>
        <pt x="501" y="515" on="0"/>
        <pt x="501" y="508" on="1"/>
        <pt x="501" y="478" on="0"/>
        <pt x="501" y="416" on="0"/>
        <pt x="501" y="386" on="1"/>
        <pt x="481" y="386" on="1"/>
        <pt x="438" y="399" on="0"/>
        <pt x="372" y="409" on="0"/>
        <pt x="328" y="409" on="1"/>
        <pt x="273" y="409" on="0"/>
        <pt x="234" y="384" on="0"/>
        <pt x="234" y="361" on="1"/>
        <pt x="234" y="345" on="0"/>
        <pt x="255" y="327" on="0"/>
        <pt x="283" y="323" on="1"/>
        <pt x="378" y="311" on="1"/>
        <pt x="431" y="305" on="0"/>
        <pt x="501" y="268" on="0"/>
        <pt x="536" y="208" on="0"/>
        <pt x="536" y="166" on="1"/>
        <pt x="536" y="79" on="0"/>
        <pt x="413" y="-9" on="0"/>
        <pt x="294" y="-9" on="1"/>
        <pt x="235" y="-9" on="0"/>
        <pt x="141" y="5" on="0"/>
        <pt x="82" y="24" on="0"/>
        <pt x="75" y="30" on="1"/>
        <pt x="73" y="32" on="0"/>
        <pt x="73" y="37" on="1"/>
        <pt x="73" y="69" on="0"/>
        <pt x="73" y="135" on="0"/>
        <pt x="73" y="168" on="1"/>
        <pt x="93" y="168" on="1"/>
        <pt x="142" y="149" on="0"/>
        <pt x="233" y="131" on="0"/>
      </contour>
    </TTGlyph>
    <TTGlyph name="s.italic" xMin="73" yMin="-9" xMax="536" yMax="549">
      <contour>
        <pt x="295" y="131" on="1"/>
        <pt x="351" y="131" on="0"/>
        <pt x="389" y="156" on="0"/>
        <pt x="389" y="177" on="1"/>
        <pt x="389" y="193" on="0"/>
        <pt x="367" y="213" on="0"/>
        <pt x="333" y="217" on="1"/>
        <pt x="229" y="231" on="1"/>
        <pt x="156" y="241" on="0"/>
        <pt x="83" y="311" on="0"/>
        <pt x="83" y="368" on="1"/>
        <pt x="83" y="455" on="0"/>
        <pt x="217" y="549" on="0"/>
        <pt x="327" y="549" on="1"/>
        <pt x="408" y="549" on="0"/>
        <pt x="499" y="527" on="0"/>
        <pt x="508" y="518" on="1"/>
        <pt x="511" y="515" on="0"/>
        <pt x="511" y="508" on="1"/>
        <pt x="511" y="379" on="1"/>
        <pt x="511" y="368" on="0"/>
        <pt x="500" y="368" on="1"/>
        <pt x="469" y="368" on="0"/>
        <pt x="407" y="368" on="0"/>
        <pt x="376" y="368" on="1"/>
        <pt x="376" y="388" on="1"/>
        <pt x="376" y="393" on="0"/>
        <pt x="376" y="402" on="0"/>
        <pt x="376" y="406" on="1"/>
        <pt x="367" y="408" on="0"/>
        <pt x="346" y="409" on="0"/>
        <pt x="328" y="409" on="1"/>
        <pt x="275" y="409" on="0"/>
        <pt x="234" y="379" on="0"/>
        <pt x="234" y="358" on="1"/>
        <pt x="234" y="339" on="0"/>
        <pt x="261" y="321" on="0"/>
        <pt x="289" y="317" on="1"/>
        <pt x="384" y="305" on="1"/>
        <pt x="467" y="295" on="0"/>
        <pt x="536" y="227" on="0"/>
        <pt x="536" y="166" on="1"/>
        <pt x="536" y="81" on="0"/>
        <pt x="411" y="-9" on="0"/>
        <pt x="294" y="-9" on="1"/>
        <pt x="242" y="-9" on="0"/>
        <pt x="146" y="5" on="0"/>
        <pt x="82" y="24" on="0"/>
        <pt x="75" y="30" on="1"/>
        <pt x="73" y="32" on="0"/>
        <pt x="73" y="37" on="1"/>
        <pt x="73" y="69" on="0"/>
        <pt x="73" y="133" on="0"/>
        <pt x="73" y="164" on="1"/>
        <pt x="93" y="164" on="1"/>
        <pt x="126" y="152" on="0"/>
        <pt x="183" y="138" on="0"/>
        <pt x="250" y="131" on="0"/>
      </contour>
    </TTGlyph>
    <TTGlyph name="t" xMin="60" yMin="0" xMax="500" yMax="700">
      <contour>
        <pt x="60" y="540" on="1"/>
        <pt x="489" y="540" on="1"/>
        <pt x="500" y="540" on="0"/>
        <pt x="500" y="529" on="1"/>
        <pt x="500" y="497" on="0"/>
        <pt x="500" y="442" on="0"/>
        <pt x="500" y="410" on="1"/>
        <pt x="71" y="410" on="1"/>
        <pt x="67" y="410" on="0"/>
        <pt x="60" y="417" on="0"/>
        <pt x="60" y="421" on="1"/>
        <pt x="60" y="453" on="0"/>
        <pt x="60" y="508" on="0"/>
      </contour>
      <contour>
        <pt x="500" y="132" on="1"/>
        <pt x="500" y="102" on="0"/>
        <pt x="500" y="41" on="0"/>
        <pt x="500" y="11" on="1"/>
        <pt x="500" y="0" on="0"/>
        <pt x="489" y="0" on="1"/>
        <pt x="486" y="0" on="0"/>
        <pt x="455" y="0" on="0"/>
        <pt x="418" y="0" on="0"/>
        <pt x="404" y="0" on="1"/>
        <pt x="333" y="0" on="0"/>
        <pt x="230" y="46" on="0"/>
        <pt x="175" y="144" on="0"/>
        <pt x="175" y="220" on="1"/>
        <pt x="175" y="315" on="0"/>
        <pt x="175" y="505" on="0"/>
        <pt x="175" y="600" on="1"/>
        <pt x="175" y="625" on="0"/>
        <pt x="175" y="675" on="0"/>
        <pt x="175" y="700" on="1"/>
        <pt x="210" y="700" on="0"/>
        <pt x="280" y="700" on="0"/>
        <pt x="314" y="700" on="1"/>
        <pt x="325" y="700" on="0"/>
        <pt x="325" y="689" on="1"/>
        <pt x="325" y="572" on="0"/>
        <pt x="325" y="337" on="0"/>
        <pt x="325" y="221" on="1"/>
        <pt x="325" y="169" on="0"/>
        <pt x="344" y="150" on="1"/>
        <pt x="362" y="132" on="0"/>
        <pt x="409" y="132" on="1"/>
        <pt x="426" y="132" on="0"/>
        <pt x="462" y="132" on="0"/>
        <pt x="480" y="132" on="1"/>
      </contour>
    </TTGlyph>
    <TTGlyph name="three" xMin="53" yMin="-20" xMax="550" yMax="720">
      <contour>
        <pt x="281" y="720" on="1"/>
        <pt x="358" y="720" on="0"/>
        <pt x="474" y="681" on="0"/>
        <pt x="540" y="606" on="0"/>
        <pt x="540" y="553" on="1"/>
        <pt x="540" y="534" on="1"/>
        <pt x="540" y="460" on="0"/>
        <pt x="453" y="384" on="0"/>
        <pt x="351" y="365" on="1"/>
        <pt x="380" y="394" on="1"/>
        <pt x="380" y="328" on="1"/>
        <pt x="351" y="356" on="1"/>
        <pt x="458" y="340" on="0"/>
        <pt x="550" y="258" on="0"/>
        <pt x="550" y="202" on="1"/>
        <pt x="550" y="170" on="1"/>
        <pt x="550" y="108" on="0"/>
        <pt x="483" y="23" on="0"/>
        <pt x="363" y="-20" on="0"/>
        <pt x="281" y="-20" on="1"/>
        <pt x="228" y="-20" on="0"/>
        <pt x="135" y="-10" on="0"/>
        <pt x="71" y="4" on="0"/>
        <pt x="61" y="9" on="1"/>
        <pt x="53" y="13" on="0"/>
        <pt x="53" y="24" on="1"/>
        <pt x="53" y="28" on="0"/>
        <pt x="53" y="67" on="0"/>
        <pt x="53" y="117" on="0"/>
        <pt x="53" y="156" on="0"/>
        <pt x="53" y="160" on="1"/>
        <pt x="73" y="160" on="1"/>
        <pt x="105" y="148" on="0"/>
        <pt x="163" y="135" on="0"/>
        <pt x="230" y="130" on="0"/>
        <pt x="275" y="130" on="1"/>
        <pt x="324" y="130" on="0"/>
        <pt x="378" y="149" on="0"/>
        <pt x="400" y="181" on="0"/>
        <pt x="400" y="200" on="1"/>
        <pt x="400" y="205" on="1"/>
        <pt x="400" y="232" on="0"/>
        <pt x="363" y="269" on="0"/>
        <pt x="261" y="288" on="0"/>
        <pt x="161" y="288" on="1"/>
        <pt x="150" y="288" on="0"/>
        <pt x="150" y="299" on="1"/>
        <pt x="150" y="303" on="0"/>
        <pt x="150" y="340" on="0"/>
        <pt x="150" y="387" on="0"/>
        <pt x="150" y="424" on="0"/>
        <pt x="150" y="428" on="1"/>
        <pt x="232" y="428" on="0"/>
        <pt x="329" y="439" on="0"/>
        <pt x="376" y="459" on="0"/>
        <pt x="390" y="488" on="0"/>
        <pt x="390" y="505" on="1"/>
        <pt x="390" y="507" on="1"/>
        <pt x="390" y="524" on="0"/>
        <pt x="370" y="553" on="0"/>
        <pt x="320" y="570" on="0"/>
        <pt x="275" y="570" on="1"/>
        <pt x="214" y="570" on="0"/>
        <pt x="137" y="558" on="0"/>
        <pt x="93" y="545" on="1"/>
        <pt x="73" y="545" on="1"/>
        <pt x="73" y="549" on="0"/>
        <pt x="73" y="587" on="0"/>
        <pt x="73" y="634" on="0"/>
        <pt x="73" y="672" on="0"/>
        <pt x="73" y="676" on="1"/>
        <pt x="73" y="688" on="0"/>
        <pt x="83" y="692" on="1"/>
        <pt x="100" y="699" on="0"/>
        <pt x="207" y="720" on="0"/>
      </contour>
    </TTGlyph>
    <TTGlyph name="u" xMin="70" yMin="-12" xMax="530" yMax="540">
      <contour>
        <pt x="206" y="-12" on="1"/>
        <pt x="167" y="-12" on="0"/>
        <pt x="106" y="25" on="0"/>
        <pt x="70" y="93" on="0"/>
        <pt x="70" y="140" on="1"/>
        <pt x="70" y="215" on="0"/>
        <pt x="70" y="366" on="0"/>
        <pt x="70" y="441" on="1"/>
        <pt x="70" y="466" on="0"/>
        <pt x="70" y="515" on="0"/>
        <pt x="70" y="540" on="1"/>
        <pt x="108" y="540" on="0"/>
        <pt x="182" y="540" on="0"/>
        <pt x="219" y="540" on="1"/>
        <pt x="230" y="540" on="0"/>
        <pt x="230" y="529" on="1"/>
        <pt x="230" y="441" on="0"/>
        <pt x="230" y="265" on="0"/>
        <pt x="230" y="177" on="1"/>
        <pt x="230" y="161" on="0"/>
        <pt x="248" y="141" on="0"/>
        <pt x="264" y="141" on="1"/>
        <pt x="296" y="141" on="0"/>
        <pt x="362" y="176" on="0"/>
        <pt x="387" y="212" on="1"/>
        <pt x="392" y="189" on="0"/>
        <pt x="370" y="128" on="0"/>
        <pt x="353" y="90" on="1"/>
        <pt x="331" y="41" on="0"/>
        <pt x="262" y="-12" on="0"/>
      </contour>
      <contour>
        <pt x="370" y="540" on="1"/>
        <pt x="408" y="540" on="0"/>
        <pt x="482" y="540" on="0"/>
        <pt x="519" y="540" on="1"/>
        <pt x="530" y="540" on="0"/>
        <pt x="530" y="529" on="1"/>
        <pt x="530" y="421" on="0"/>
        <pt x="530" y="206" on="0"/>
        <pt x="530" y="98" on="1"/>
        <pt x="530" y="71" on="0"/>
        <pt x="530" y="21" on="0"/>
        <pt x="530" y="0" on="1"/>
        <pt x="489" y="0" on="0"/>
        <pt x="415" y="0" on="0"/>
        <pt x="381" y="0" on="1"/>
        <pt x="377" y="0" on="0"/>
        <pt x="370" y="7" on="0"/>
        <pt x="370" y="11" on="1"/>
        <pt x="370" y="143" on="0"/>
        <pt x="370" y="408" on="0"/>
      </contour>
      <contour>
        <pt x="391" y="86" on="1"/>
        <pt x="335" y="86" on="1"/>
        <pt x="408" y="220" on="1"/>
        <pt x="432" y="217" on="1"/>
      </contour>
    </TTGlyph>
    <TTGlyph name="u.italic" xMin="70" yMin="-12" xMax="575" yMax="540">
      <contour>
        <pt x="206" y="-12" on="1"/>
        <pt x="167" y="-12" on="0"/>
        <pt x="106" y="25" on="0"/>
        <pt x="70" y="93" on="0"/>
        <pt x="70" y="140" on="1"/>
        <pt x="70" y="215" on="0"/>
        <pt x="70" y="366" on="0"/>
        <pt x="70" y="441" on="1"/>
        <pt x="70" y="466" on="0"/>
        <pt x="70" y="515" on="0"/>
        <pt x="70" y="540" on="1"/>
        <pt x="106" y="540" on="0"/>
        <pt x="178" y="540" on="0"/>
        <pt x="214" y="540" on="1"/>
        <pt x="225" y="540" on="0"/>
        <pt x="225" y="529" on="1"/>
        <pt x="225" y="441" on="0"/>
        <pt x="225" y="265" on="0"/>
        <pt x="225" y="177" on="1"/>
        <pt x="225" y="161" on="0"/>
        <pt x="243" y="141" on="0"/>
        <pt x="259" y="141" on="1"/>
        <pt x="293" y="141" on="0"/>
        <pt x="361" y="176" on="0"/>
        <pt x="387" y="212" on="1"/>
        <pt x="392" y="189" on="0"/>
        <pt x="370" y="129" on="0"/>
        <pt x="356" y="97" on="1"/>
        <pt x="332" y="42" on="0"/>
        <pt x="262" y="-12" on="0"/>
      </contour>
      <contour>
        <pt x="515" y="0" on="1"/>
        <pt x="465" y="0" on="0"/>
        <pt x="400" y="37" on="0"/>
        <pt x="370" y="97" on="0"/>
        <pt x="370" y="131" on="1"/>
        <pt x="370" y="182" on="0"/>
        <pt x="370" y="284" on="0"/>
        <pt x="370" y="387" on="0"/>
        <pt x="370" y="489" on="0"/>
        <pt x="370" y="540" on="1"/>
        <pt x="406" y="540" on="0"/>
        <pt x="478" y="540" on="0"/>
        <pt x="514" y="540" on="1"/>
        <pt x="525" y="540" on="0"/>
        <pt x="525" y="529" on="1"/>
        <pt x="525" y="435" on="0"/>
        <pt x="525" y="245" on="0"/>
        <pt x="525" y="150" on="1"/>
        <pt x="525" y="140" on="0"/>
        <pt x="530" y="135" on="1"/>
        <pt x="535" y="130" on="0"/>
        <pt x="546" y="130" on="1"/>
        <pt x="548" y="130" on="0"/>
        <pt x="553" y="130" on="0"/>
        <pt x="555" y="130" on="1"/>
        <pt x="575" y="130" on="1"/>
        <pt x="575" y="100" on="0"/>
        <pt x="575" y="41" on="0"/>
        <pt x="575" y="11" on="1"/>
        <pt x="575" y="0" on="0"/>
        <pt x="564" y="0" on="1"/>
        <pt x="559" y="0" on="0"/>
        <pt x="527" y="0" on="0"/>
      </contour>
      <contour>
        <pt x="384" y="94" on="1"/>
        <pt x="336" y="94" on="1"/>
        <pt x="395" y="189" on="1"/>
        <pt x="410" y="186" on="1"/>
      </contour>
    </TTGlyph>
    <TTGlyph name="v" xMin="37" yMin="0" xMax="560" yMax="540">
      <contour>
        <pt x="183" y="540" on="1"/>
        <pt x="195" y="540" on="0"/>
        <pt x="200" y="523" on="1"/>
        <pt x="216" y="462" on="0"/>
        <pt x="246" y="336" on="0"/>
        <pt x="278" y="187" on="0"/>
        <pt x="295" y="91" on="1"/>
        <pt x="309" y="91" on="1"/>
        <pt x="326" y="186" on="0"/>
        <pt x="359" y="340" on="0"/>
        <pt x="390" y="474" on="0"/>
        <pt x="405" y="540" on="1"/>
        <pt x="440" y="540" on="0"/>
        <pt x="510" y="540" on="0"/>
        <pt x="545" y="540" on="1"/>
        <pt x="553" y="540" on="0"/>
        <pt x="560" y="529" on="0"/>
        <pt x="558" y="521" on="1"/>
        <pt x="521" y="391" on="0"/>
        <pt x="445" y="131" on="0"/>
        <pt x="407" y="0" on="1"/>
        <pt x="358" y="0" on="0"/>
        <pt x="259" y="0" on="0"/>
        <pt x="209" y="0" on="1"/>
        <pt x="193" y="0" on="0"/>
        <pt x="188" y="15" on="1"/>
        <pt x="151" y="146" on="0"/>
        <pt x="75" y="409" on="0"/>
        <pt x="37" y="540" on="1"/>
        <pt x="74" y="540" on="0"/>
        <pt x="146" y="540" on="0"/>
      </contour>
      <contour>
        <pt x="264" y="32" on="1"/>
        <pt x="264" y="108" on="1"/>
        <pt x="339" y="108" on="1"/>
        <pt x="339" y="32" on="1"/>
      </contour>
    </TTGlyph>
    <TTGlyph name="v.italic" xMin="46" yMin="0" xMax="550" yMax="540">
      <contour>
        <pt x="478" y="540" on="1"/>
        <pt x="487" y="540" on="0"/>
        <pt x="492" y="535" on="1"/>
        <pt x="510" y="517" on="0"/>
        <pt x="536" y="453" on="0"/>
        <pt x="550" y="368" on="0"/>
        <pt x="550" y="318" on="1"/>
        <pt x="550" y="270" on="1"/>
        <pt x="550" y="189" on="0"/>
        <pt x="480" y="67" on="0"/>
        <pt x="362" y="0" on="0"/>
        <pt x="289" y="0" on="1"/>
        <pt x="116" y="0" on="1"/>
        <pt x="105" y="0" on="0"/>
        <pt x="105" y="11" on="1"/>
        <pt x="105" y="78" on="0"/>
        <pt x="105" y="221" on="0"/>
        <pt x="105" y="356" on="0"/>
        <pt x="105" y="410" on="1"/>
        <pt x="93" y="410" on="0"/>
        <pt x="69" y="410" on="0"/>
        <pt x="57" y="410" on="1"/>
        <pt x="46" y="410" on="0"/>
        <pt x="46" y="421" on="1"/>
        <pt x="46" y="451" on="0"/>
        <pt x="46" y="510" on="0"/>
        <pt x="46" y="540" on="1"/>
        <pt x="96" y="540" on="0"/>
        <pt x="195" y="540" on="0"/>
        <pt x="244" y="540" on="1"/>
        <pt x="255" y="540" on="0"/>
        <pt x="255" y="529" on="1"/>
        <pt x="255" y="444" on="0"/>
        <pt x="255" y="274" on="0"/>
        <pt x="255" y="188" on="1"/>
        <pt x="255" y="174" on="0"/>
        <pt x="255" y="144" on="0"/>
        <pt x="255" y="130" on="1"/>
        <pt x="273" y="130" on="1"/>
        <pt x="332" y="130" on="0"/>
        <pt x="398" y="206" on="0"/>
        <pt x="398" y="270" on="1"/>
        <pt x="398" y="318" on="1"/>
        <pt x="398" y="385" on="0"/>
        <pt x="375" y="477" on="0"/>
        <pt x="346" y="520" on="1"/>
        <pt x="346" y="540" on="1"/>
        <pt x="379" y="540" on="0"/>
        <pt x="445" y="540" on="0"/>
      </contour>
      <contour>
        <pt x="128" y="405" on="1"/>
        <pt x="90" y="414" on="1"/>
        <pt x="112" y="462" on="1"/>
        <pt x="128" y="459" on="1"/>
      </contour>
      <contour>
        <pt x="242" y="90" on="1"/>
        <pt x="242" y="127" on="1"/>
        <pt x="291" y="127" on="1"/>
        <pt x="285" y="90" on="1"/>
      </contour>
    </TTGlyph>
    <TTGlyph name="w" xMin="6" yMin="0" xMax="595" yMax="540">
      <contour>
        <pt x="244" y="451" on="1"/>
        <pt x="349" y="451" on="1"/>
        <pt x="354" y="451" on="0"/>
        <pt x="360" y="447" on="0"/>
        <pt x="361" y="440" on="1"/>
        <pt x="371" y="393" on="0"/>
        <pt x="386" y="294" on="0"/>
        <pt x="399" y="177" on="0"/>
        <pt x="404" y="102" on="1"/>
        <pt x="429" y="102" on="1"/>
        <pt x="429" y="188" on="0"/>
        <pt x="433" y="337" on="0"/>
        <pt x="441" y="474" on="0"/>
        <pt x="446" y="540" on="1"/>
        <pt x="481" y="540" on="0"/>
        <pt x="550" y="540" on="0"/>
        <pt x="584" y="540" on="1"/>
        <pt x="590" y="540" on="0"/>
        <pt x="595" y="536" on="0"/>
        <pt x="593" y="527" on="1"/>
        <pt x="574" y="395" on="0"/>
        <pt x="537" y="132" on="0"/>
        <pt x="518" y="0" on="1"/>
        <pt x="482" y="0" on="0"/>
        <pt x="400" y="0" on="0"/>
        <pt x="364" y="0" on="1"/>
        <pt x="350" y="0" on="0"/>
        <pt x="347" y="15" on="1"/>
        <pt x="339" y="53" on="0"/>
        <pt x="329" y="108" on="0"/>
        <pt x="322" y="158" on="0"/>
        <pt x="316" y="217" on="0"/>
        <pt x="312" y="296" on="0"/>
        <pt x="309" y="354" on="1"/>
        <pt x="292" y="354" on="1"/>
        <pt x="289" y="296" on="0"/>
        <pt x="285" y="217" on="0"/>
        <pt x="280" y="157" on="0"/>
        <pt x="273" y="104" on="0"/>
        <pt x="261" y="42" on="0"/>
        <pt x="253" y="0" on="1"/>
        <pt x="214" y="0" on="0"/>
        <pt x="133" y="0" on="0"/>
        <pt x="96" y="0" on="1"/>
        <pt x="81" y="0" on="0"/>
        <pt x="79" y="15" on="1"/>
        <pt x="61" y="146" on="0"/>
        <pt x="24" y="409" on="0"/>
        <pt x="6" y="540" on="1"/>
        <pt x="41" y="540" on="0"/>
        <pt x="110" y="540" on="0"/>
        <pt x="144" y="540" on="1"/>
        <pt x="150" y="540" on="0"/>
        <pt x="156" y="535" on="0"/>
        <pt x="157" y="527" on="1"/>
        <pt x="162" y="462" on="0"/>
        <pt x="170" y="332" on="0"/>
        <pt x="174" y="188" on="0"/>
        <pt x="174" y="102" on="1"/>
        <pt x="199" y="102" on="1"/>
        <pt x="205" y="211" on="0"/>
        <pt x="228" y="375" on="0"/>
      </contour>
      <contour>
        <pt x="279" y="312" on="1"/>
        <pt x="279" y="375" on="1"/>
        <pt x="322" y="375" on="1"/>
        <pt x="322" y="312" on="1"/>
      </contour>
      <contour>
        <pt x="161" y="41" on="1"/>
        <pt x="161" y="117" on="1"/>
        <pt x="209" y="117" on="1"/>
        <pt x="209" y="41" on="1"/>
      </contour>
      <contour>
        <pt x="393" y="41" on="1"/>
        <pt x="393" y="117" on="1"/>
        <pt x="441" y="117" on="1"/>
        <pt x="441" y="41" on="1"/>
      </contour>
    </TTGlyph>
    <TTGlyph name="w.italic" xMin="30" yMin="-5" xMax="577" yMax="540">
      <contour>
        <pt x="246" y="425" on="1"/>
        <pt x="272" y="425" on="0"/>
        <pt x="324" y="425" on="0"/>
        <pt x="350" y="425" on="1"/>
        <pt x="361" y="425" on="0"/>
        <pt x="361" y="414" on="1"/>
        <pt x="361" y="348" on="0"/>
        <pt x="361" y="216" on="0"/>
        <pt x="361" y="150" on="1"/>
        <pt x="361" y="125" on="0"/>
        <pt x="386" y="125" on="1"/>
        <pt x="393" y="125" on="1"/>
        <pt x="419" y="125" on="0"/>
        <pt x="448" y="148" on="0"/>
        <pt x="448" y="180" on="1"/>
        <pt x="448" y="348" on="1"/>
        <pt x="448" y="405" on="0"/>
        <pt x="431" y="483" on="0"/>
        <pt x="406" y="520" on="1"/>
        <pt x="406" y="540" on="1"/>
        <pt x="434" y="540" on="0"/>
        <pt x="490" y="540" on="0"/>
        <pt x="518" y="540" on="1"/>
        <pt x="527" y="540" on="0"/>
        <pt x="532" y="535" on="1"/>
        <pt x="547" y="520" on="0"/>
        <pt x="567" y="465" on="0"/>
        <pt x="577" y="391" on="0"/>
        <pt x="577" y="348" on="1"/>
        <pt x="577" y="180" on="1"/>
        <pt x="577" y="125" on="0"/>
        <pt x="531" y="42" on="0"/>
        <pt x="451" y="-5" on="0"/>
        <pt x="399" y="-5" on="1"/>
        <pt x="383" y="-5" on="1"/>
        <pt x="335" y="-5" on="0"/>
        <pt x="274" y="37" on="0"/>
        <pt x="246" y="104" on="0"/>
        <pt x="246" y="140" on="1"/>
        <pt x="246" y="188" on="0"/>
        <pt x="246" y="283" on="0"/>
        <pt x="246" y="378" on="0"/>
      </contour>
      <contour>
        <pt x="258" y="160" on="1"/>
        <pt x="266" y="143" on="0"/>
        <pt x="262" y="117" on="0"/>
        <pt x="248" y="88" on="1"/>
        <pt x="230" y="51" on="0"/>
        <pt x="158" y="-5" on="0"/>
        <pt x="117" y="-5" on="1"/>
        <pt x="41" y="-5" on="1"/>
        <pt x="30" y="-5" on="0"/>
        <pt x="30" y="6" on="1"/>
        <pt x="30" y="60" on="0"/>
        <pt x="30" y="168" on="0"/>
        <pt x="30" y="277" on="0"/>
        <pt x="30" y="385" on="0"/>
        <pt x="30" y="439" on="1"/>
        <pt x="30" y="465" on="0"/>
        <pt x="30" y="515" on="0"/>
        <pt x="30" y="540" on="1"/>
        <pt x="61" y="540" on="0"/>
        <pt x="123" y="540" on="0"/>
        <pt x="154" y="540" on="1"/>
        <pt x="165" y="540" on="0"/>
        <pt x="165" y="529" on="1"/>
        <pt x="165" y="446" on="0"/>
        <pt x="165" y="287" on="0"/>
        <pt x="165" y="205" on="1"/>
        <pt x="165" y="187" on="0"/>
        <pt x="165" y="143" on="0"/>
        <pt x="165" y="125" on="1"/>
        <pt x="170" y="125" on="1"/>
        <pt x="193" y="125" on="0"/>
        <pt x="236" y="139" on="0"/>
      </contour>
      <contour>
        <pt x="152" y="91" on="1"/>
        <pt x="154" y="122" on="1"/>
        <pt x="215" y="122" on="1"/>
        <pt x="175" y="78" on="1"/>
      </contour>
      <contour>
        <pt x="259" y="114" on="1"/>
        <pt x="268" y="72" on="1"/>
        <pt x="227" y="72" on="1"/>
        <pt x="242" y="114" on="1"/>
      </contour>
      <contour>
        <pt x="360" y="77" on="1"/>
        <pt x="357" y="122" on="1"/>
        <pt x="415" y="122" on="1"/>
        <pt x="387" y="74" on="1"/>
      </contour>
    </TTGlyph>
    <TTGlyph name="x" xMin="43" yMin="0" xMax="565" yMax="540">
      <contour>
        <pt x="403" y="0" on="1"/>
        <pt x="390" y="0" on="0"/>
        <pt x="384" y="10" on="1"/>
        <pt x="359" y="63" on="0"/>
        <pt x="308" y="166" on="0"/>
        <pt x="282" y="218" on="1"/>
        <pt x="278" y="226" on="0"/>
        <pt x="256" y="229" on="0"/>
        <pt x="233" y="233" on="0"/>
        <pt x="227" y="240" on="1"/>
        <pt x="181" y="315" on="0"/>
        <pt x="91" y="465" on="0"/>
        <pt x="45" y="540" on="1"/>
        <pt x="84" y="540" on="0"/>
        <pt x="167" y="540" on="0"/>
        <pt x="206" y="540" on="1"/>
        <pt x="218" y="540" on="0"/>
        <pt x="225" y="530" on="1"/>
        <pt x="248" y="480" on="0"/>
        <pt x="295" y="378" on="0"/>
        <pt x="319" y="328" on="1"/>
        <pt x="323" y="321" on="0"/>
        <pt x="345" y="319" on="0"/>
        <pt x="368" y="318" on="0"/>
        <pt x="372" y="311" on="1"/>
        <pt x="420" y="233" on="0"/>
        <pt x="517" y="78" on="0"/>
        <pt x="565" y="0" on="1"/>
        <pt x="525" y="0" on="0"/>
        <pt x="443" y="0" on="0"/>
      </contour>
      <contour>
        <pt x="545" y="540" on="1"/>
        <pt x="557" y="540" on="0"/>
        <pt x="557" y="530" on="1"/>
        <pt x="557" y="525" on="0"/>
        <pt x="553" y="518" on="1"/>
        <pt x="509" y="448" on="0"/>
        <pt x="420" y="308" on="0"/>
        <pt x="376" y="237" on="1"/>
        <pt x="370" y="228" on="0"/>
        <pt x="352" y="226" on="0"/>
        <pt x="332" y="230" on="0"/>
        <pt x="315" y="228" on="0"/>
        <pt x="310" y="217" on="1"/>
        <pt x="285" y="163" on="0"/>
        <pt x="236" y="54" on="0"/>
        <pt x="211" y="0" on="1"/>
        <pt x="55" y="0" on="1"/>
        <pt x="43" y="0" on="0"/>
        <pt x="43" y="11" on="1"/>
        <pt x="43" y="14" on="0"/>
        <pt x="46" y="21" on="0"/>
        <pt x="50" y="27" on="1"/>
        <pt x="95" y="98" on="0"/>
        <pt x="185" y="240" on="0"/>
        <pt x="230" y="310" on="1"/>
        <pt x="235" y="318" on="0"/>
        <pt x="254" y="316" on="0"/>
        <pt x="277" y="310" on="0"/>
        <pt x="296" y="309" on="0"/>
        <pt x="299" y="317" on="1"/>
        <pt x="323" y="374" on="0"/>
        <pt x="366" y="484" on="0"/>
        <pt x="389" y="540" on="1"/>
      </contour>
      <contour>
        <pt x="318" y="172" on="1"/>
        <pt x="272" y="172" on="1"/>
        <pt x="289" y="252" on="1"/>
        <pt x="305" y="249" on="1"/>
      </contour>
      <contour>
        <pt x="292" y="361" on="1"/>
        <pt x="338" y="361" on="1"/>
        <pt x="319" y="282" on="1"/>
        <pt x="303" y="285" on="1"/>
      </contour>
    </TTGlyph>
    <TTGlyph name="x.italic" xMin="34" yMin="0" xMax="558" yMax="540">
      <contour>
        <pt x="441" y="0" on="1"/>
        <pt x="400" y="0" on="0"/>
        <pt x="345" y="32" on="0"/>
        <pt x="318" y="81" on="1"/>
        <pt x="287" y="138" on="0"/>
        <pt x="232" y="241" on="0"/>
        <pt x="175" y="348" on="0"/>
        <pt x="141" y="410" on="1"/>
        <pt x="123" y="410" on="0"/>
        <pt x="91" y="410" on="0"/>
        <pt x="74" y="410" on="1"/>
        <pt x="63" y="410" on="0"/>
        <pt x="63" y="421" on="1"/>
        <pt x="63" y="449" on="0"/>
        <pt x="63" y="516" on="0"/>
        <pt x="63" y="540" on="1"/>
        <pt x="82" y="540" on="0"/>
        <pt x="145" y="540" on="0"/>
        <pt x="208" y="540" on="0"/>
        <pt x="226" y="540" on="1"/>
        <pt x="231" y="540" on="0"/>
        <pt x="242" y="535" on="0"/>
        <pt x="245" y="528" on="1"/>
        <pt x="267" y="486" on="0"/>
        <pt x="323" y="382" on="0"/>
        <pt x="381" y="274" on="0"/>
        <pt x="432" y="178" on="0"/>
        <pt x="449" y="143" on="1"/>
        <pt x="453" y="136" on="0"/>
        <pt x="465" y="130" on="0"/>
        <pt x="472" y="130" on="1"/>
        <pt x="487" y="130" on="0"/>
        <pt x="499" y="130" on="0"/>
        <pt x="511" y="130" on="0"/>
        <pt x="526" y="130" on="1"/>
        <pt x="540" y="130" on="1"/>
        <pt x="540" y="126" on="0"/>
        <pt x="540" y="94" on="0"/>
        <pt x="540" y="55" on="0"/>
        <pt x="540" y="23" on="0"/>
        <pt x="540" y="18" on="1"/>
        <pt x="540" y="8" on="0"/>
        <pt x="534" y="0" on="0"/>
        <pt x="524" y="0" on="1"/>
        <pt x="515" y="0" on="0"/>
        <pt x="483" y="0" on="0"/>
        <pt x="450" y="0" on="0"/>
      </contour>
      <contour>
        <pt x="548" y="540" on="1"/>
        <pt x="558" y="540" on="0"/>
        <pt x="558" y="531" on="1"/>
        <pt x="558" y="527" on="0"/>
        <pt x="554" y="521" on="1"/>
        <pt x="511" y="453" on="0"/>
        <pt x="417" y="304" on="0"/>
        <pt x="375" y="237" on="1"/>
        <pt x="371" y="232" on="0"/>
        <pt x="362" y="248" on="0"/>
        <pt x="356" y="278" on="0"/>
        <pt x="354" y="292" on="1"/>
        <pt x="354" y="345" on="0"/>
        <pt x="359" y="435" on="0"/>
        <pt x="368" y="509" on="0"/>
        <pt x="373" y="540" on="1"/>
        <pt x="421" y="540" on="0"/>
        <pt x="501" y="540" on="0"/>
      </contour>
      <contour>
        <pt x="209" y="0" on="1"/>
        <pt x="180" y="0" on="0"/>
        <pt x="112" y="0" on="0"/>
        <pt x="52" y="0" on="0"/>
        <pt x="34" y="0" on="1"/>
        <pt x="79" y="71" on="0"/>
        <pt x="182" y="232" on="0"/>
        <pt x="227" y="303" on="1"/>
        <pt x="231" y="308" on="0"/>
        <pt x="238" y="291" on="0"/>
        <pt x="244" y="262" on="0"/>
        <pt x="245" y="248" on="1"/>
        <pt x="245" y="181" on="0"/>
        <pt x="236" y="74" on="0"/>
        <pt x="226" y="15" on="1"/>
        <pt x="225" y="6" on="0"/>
        <pt x="216" y="0" on="0"/>
      </contour>
      <contour>
        <pt x="157" y="403" on="1"/>
        <pt x="125" y="421" on="1"/>
        <pt x="148" y="434" on="1"/>
        <pt x="158" y="427" on="1"/>
      </contour>
      <contour>
        <pt x="273" y="183" on="1"/>
        <pt x="227" y="183" on="1"/>
        <pt x="246" y="282" on="1"/>
        <pt x="262" y="279" on="1"/>
      </contour>
      <contour>
        <pt x="321" y="355" on="1"/>
        <pt x="367" y="355" on="1"/>
        <pt x="348" y="256" on="1"/>
        <pt x="332" y="259" on="1"/>
      </contour>
    </TTGlyph>
    <TTGlyph name="y" xMin="41" yMin="-200" xMax="563" yMax="540">
      <contour>
        <pt x="549" y="540" on="1"/>
        <pt x="554" y="540" on="0"/>
        <pt x="563" y="532" on="0"/>
        <pt x="561" y="524" on="1"/>
        <pt x="544" y="454" on="0"/>
        <pt x="514" y="328" on="0"/>
        <pt x="483" y="201" on="0"/>
        <pt x="450" y="61" on="0"/>
        <pt x="430" y="-24" on="1"/>
        <pt x="417" y="-82" on="0"/>
        <pt x="365" y="-160" on="0"/>
        <pt x="286" y="-200" on="0"/>
        <pt x="229" y="-200" on="1"/>
        <pt x="210" y="-200" on="0"/>
        <pt x="159" y="-200" on="0"/>
        <pt x="119" y="-200" on="0"/>
        <pt x="115" y="-200" on="1"/>
        <pt x="104" y="-200" on="0"/>
        <pt x="104" y="-189" on="1"/>
        <pt x="104" y="-58" on="1"/>
        <pt x="124" y="-58" on="1"/>
        <pt x="146" y="-58" on="0"/>
        <pt x="188" y="-58" on="0"/>
        <pt x="210" y="-58" on="1"/>
        <pt x="244" y="-58" on="0"/>
        <pt x="289" y="-24" on="0"/>
        <pt x="297" y="12" on="1"/>
        <pt x="302" y="37" on="0"/>
        <pt x="321" y="122" on="0"/>
        <pt x="344" y="232" on="0"/>
        <pt x="370" y="356" on="0"/>
        <pt x="397" y="482" on="0"/>
        <pt x="409" y="540" on="1"/>
        <pt x="441" y="540" on="0"/>
        <pt x="511" y="540" on="0"/>
      </contour>
      <contour>
        <pt x="187" y="540" on="1"/>
        <pt x="197" y="540" on="0"/>
        <pt x="205" y="534" on="0"/>
        <pt x="207" y="526" on="1"/>
        <pt x="226" y="452" on="0"/>
        <pt x="250" y="354" on="0"/>
        <pt x="267" y="286" on="0"/>
        <pt x="279" y="232" on="0"/>
        <pt x="293" y="172" on="0"/>
        <pt x="302" y="131" on="1"/>
        <pt x="303" y="124" on="0"/>
        <pt x="311" y="124" on="1"/>
        <pt x="388" y="124" on="1"/>
        <pt x="387" y="75" on="0"/>
        <pt x="363" y="40" on="0"/>
        <pt x="343" y="40" on="1"/>
        <pt x="205" y="40" on="1"/>
        <pt x="195" y="40" on="0"/>
        <pt x="192" y="51" on="1"/>
        <pt x="191" y="54" on="0"/>
        <pt x="169" y="123" on="0"/>
        <pt x="135" y="231" on="0"/>
        <pt x="95" y="359" on="0"/>
        <pt x="56" y="487" on="0"/>
        <pt x="41" y="540" on="1"/>
        <pt x="76" y="540" on="0"/>
        <pt x="148" y="540" on="0"/>
      </contour>
      <contour>
        <pt x="266" y="86" on="1"/>
        <pt x="266" y="132" on="1"/>
        <pt x="351" y="132" on="1"/>
        <pt x="351" y="86" on="1"/>
      </contour>
    </TTGlyph>
    <TTGlyph name="y.italic" xMin="70" yMin="-210" xMax="530" yMax="540">
      <contour>
        <pt x="210" y="18" on="1"/>
        <pt x="169" y="18" on="0"/>
        <pt x="106" y="55" on="0"/>
        <pt x="70" y="123" on="0"/>
        <pt x="70" y="170" on="1"/>
        <pt x="70" y="238" on="0"/>
        <pt x="70" y="373" on="0"/>
        <pt x="70" y="441" on="1"/>
        <pt x="70" y="466" on="0"/>
        <pt x="70" y="515" on="0"/>
        <pt x="70" y="540" on="1"/>
        <pt x="108" y="540" on="0"/>
        <pt x="177" y="540" on="0"/>
        <pt x="214" y="540" on="1"/>
        <pt x="225" y="540" on="0"/>
        <pt x="225" y="529" on="1"/>
        <pt x="225" y="449" on="0"/>
        <pt x="225" y="279" on="0"/>
        <pt x="225" y="199" on="1"/>
        <pt x="225" y="163" on="0"/>
        <pt x="259" y="163" on="1"/>
        <pt x="291" y="163" on="0"/>
        <pt x="362" y="206" on="0"/>
        <pt x="387" y="242" on="1"/>
        <pt x="393" y="215" on="0"/>
        <pt x="374" y="147" on="0"/>
        <pt x="361" y="118" on="1"/>
        <pt x="337" y="64" on="0"/>
        <pt x="262" y="18" on="0"/>
      </contour>
      <contour>
        <pt x="256" y="-70" on="1"/>
        <pt x="324" y="-70" on="0"/>
        <pt x="352" y="-42" on="1"/>
        <pt x="380" y="-15" on="0"/>
        <pt x="380" y="49" on="1"/>
        <pt x="380" y="138" on="0"/>
        <pt x="380" y="294" on="0"/>
        <pt x="380" y="451" on="0"/>
        <pt x="380" y="540" on="1"/>
        <pt x="415" y="540" on="0"/>
        <pt x="485" y="540" on="0"/>
        <pt x="519" y="540" on="1"/>
        <pt x="530" y="540" on="0"/>
        <pt x="530" y="529" on="1"/>
        <pt x="530" y="442" on="0"/>
        <pt x="530" y="288" on="0"/>
        <pt x="530" y="134" on="0"/>
        <pt x="530" y="47" on="1"/>
        <pt x="530" y="-77" on="0"/>
        <pt x="401" y="-210" on="0"/>
        <pt x="262" y="-210" on="1"/>
        <pt x="220" y="-210" on="0"/>
        <pt x="144" y="-198" on="0"/>
        <pt x="92" y="-180" on="0"/>
        <pt x="84" y="-173" on="1"/>
        <pt x="81" y="-170" on="0"/>
        <pt x="81" y="-165" on="1"/>
        <pt x="81" y="-134" on="0"/>
        <pt x="81" y="-71" on="0"/>
        <pt x="81" y="-40" on="1"/>
        <pt x="101" y="-40" on="1"/>
        <pt x="142" y="-57" on="0"/>
        <pt x="215" y="-70" on="0"/>
      </contour>
      <contour>
        <pt x="391" y="116" on="1"/>
        <pt x="335" y="116" on="1"/>
        <pt x="408" y="250" on="1"/>
        <pt x="432" y="247" on="1"/>
      </contour>
    </TTGlyph>
    <TTGlyph name="z" xMin="70" yMin="0" xMax="530" yMax="540">
      <contour>
        <pt x="70" y="540" on="1"/>
        <pt x="519" y="540" on="1"/>
        <pt x="530" y="540" on="0"/>
        <pt x="530" y="529" on="1"/>
        <pt x="530" y="385" on="1"/>
        <pt x="471" y="333" on="0"/>
        <pt x="393" y="264" on="0"/>
        <pt x="338" y="221" on="0"/>
        <pt x="295" y="193" on="0"/>
        <pt x="249" y="170" on="0"/>
        <pt x="217" y="155" on="1"/>
        <pt x="217" y="142" on="1"/>
        <pt x="253" y="142" on="0"/>
        <pt x="340" y="142" on="0"/>
        <pt x="391" y="142" on="1"/>
        <pt x="519" y="142" on="1"/>
        <pt x="530" y="142" on="0"/>
        <pt x="530" y="131" on="1"/>
        <pt x="530" y="98" on="0"/>
        <pt x="530" y="33" on="0"/>
        <pt x="530" y="0" on="1"/>
        <pt x="81" y="0" on="1"/>
        <pt x="70" y="0" on="0"/>
        <pt x="70" y="11" on="1"/>
        <pt x="70" y="155" on="1"/>
        <pt x="129" y="207" on="0"/>
        <pt x="208" y="275" on="0"/>
        <pt x="262" y="318" on="0"/>
        <pt x="305" y="346" on="0"/>
        <pt x="351" y="370" on="0"/>
        <pt x="383" y="385" on="1"/>
        <pt x="383" y="398" on="1"/>
        <pt x="347" y="398" on="0"/>
        <pt x="260" y="398" on="0"/>
        <pt x="209" y="398" on="1"/>
        <pt x="81" y="398" on="1"/>
        <pt x="70" y="398" on="0"/>
        <pt x="70" y="409" on="1"/>
        <pt x="70" y="442" on="0"/>
        <pt x="70" y="507" on="0"/>
      </contour>
      <contour>
        <pt x="368" y="324" on="1"/>
        <pt x="368" y="439" on="1"/>
        <pt x="391" y="439" on="1"/>
        <pt x="391" y="324" on="1"/>
      </contour>
      <contour>
        <pt x="209" y="101" on="1"/>
        <pt x="209" y="216" on="1"/>
        <pt x="232" y="216" on="1"/>
        <pt x="232" y="101" on="1"/>
      </contour>
    </TTGlyph>
    <TTGlyph name="z.italic" xMin="30" yMin="0" xMax="543" yMax="570">
      <contour>
        <pt x="130" y="540" on="1"/>
        <pt x="518" y="540" on="1"/>
        <pt x="529" y="540" on="0"/>
        <pt x="529" y="529" on="1"/>
        <pt x="529" y="387" on="1"/>
        <pt x="529" y="387" on="0"/>
        <pt x="491" y="340" on="0"/>
        <pt x="426" y="262" on="0"/>
        <pt x="345" y="164" on="0"/>
        <pt x="259" y="60" on="0"/>
        <pt x="219" y="12" on="1"/>
        <pt x="213" y="5" on="0"/>
        <pt x="203" y="0" on="0"/>
        <pt x="195" y="0" on="1"/>
        <pt x="154" y="0" on="0"/>
        <pt x="71" y="0" on="0"/>
        <pt x="30" y="0" on="1"/>
        <pt x="87" y="68" on="0"/>
        <pt x="178" y="177" on="0"/>
        <pt x="258" y="272" on="0"/>
        <pt x="335" y="366" on="0"/>
        <pt x="379" y="418" on="1"/>
        <pt x="379" y="427" on="1"/>
        <pt x="363" y="420" on="0"/>
        <pt x="303" y="410" on="0"/>
        <pt x="277" y="410" on="1"/>
        <pt x="141" y="410" on="1"/>
        <pt x="130" y="410" on="0"/>
        <pt x="130" y="421" on="1"/>
        <pt x="130" y="451" on="0"/>
        <pt x="130" y="510" on="0"/>
      </contour>
      <contour>
        <pt x="543" y="130" on="1"/>
        <pt x="543" y="126" on="0"/>
        <pt x="543" y="92" on="0"/>
        <pt x="543" y="52" on="0"/>
        <pt x="543" y="17" on="0"/>
        <pt x="543" y="11" on="1"/>
        <pt x="543" y="0" on="0"/>
        <pt x="532" y="0" on="1"/>
        <pt x="529" y="0" on="0"/>
        <pt x="490" y="0" on="0"/>
        <pt x="442" y="0" on="0"/>
        <pt x="423" y="0" on="1"/>
        <pt x="393" y="0" on="0"/>
        <pt x="344" y="11" on="0"/>
        <pt x="292" y="39" on="0"/>
        <pt x="256" y="66" on="1"/>
        <pt x="250" y="71" on="0"/>
        <pt x="249" y="95" on="0"/>
        <pt x="273" y="144" on="0"/>
        <pt x="303" y="184" on="1"/>
        <pt x="342" y="158" on="0"/>
        <pt x="378" y="135" on="0"/>
        <pt x="398" y="130" on="0"/>
        <pt x="411" y="130" on="1"/>
        <pt x="444" y="130" on="0"/>
        <pt x="509" y="130" on="0"/>
        <pt x="531" y="130" on="1"/>
      </contour>
      <contour>
        <pt x="213" y="368" on="1"/>
        <pt x="185" y="368" on="0"/>
        <pt x="118" y="368" on="0"/>
        <pt x="89" y="368" on="1"/>
        <pt x="78" y="368" on="0"/>
        <pt x="78" y="379" on="1"/>
        <pt x="78" y="401" on="0"/>
        <pt x="78" y="475" on="0"/>
        <pt x="78" y="548" on="0"/>
        <pt x="78" y="570" on="1"/>
        <pt x="202" y="570" on="1"/>
        <pt x="213" y="570" on="0"/>
        <pt x="213" y="559" on="1"/>
        <pt x="213" y="537" on="0"/>
        <pt x="213" y="464" on="0"/>
        <pt x="213" y="390" on="0"/>
      </contour>
      <contour>
        <pt x="327" y="130" on="1"/>
        <pt x="327" y="198" on="1"/>
        <pt x="350" y="198" on="1"/>
        <pt x="350" y="130" on="1"/>
      </contour>
      <contour>
        <pt x="368" y="393" on="1"/>
        <pt x="368" y="437" on="1"/>
        <pt x="394" y="445" on="1"/>
        <pt x="394" y="400" on="1"/>
      </contour>
    </TTGlyph>
</ttFont>
